<svg width="26" height="26" viewBox="0 0 26 26" fill="none" xmlns="http://www.w3.org/2000/svg">
<path d="M24.8384 23.9413H23.6414V16.4598C23.6414 10.5106 18.8173 5.68652 12.8681 5.68652C6.91885 5.68652 2.09481 10.5106 2.09481 16.4598V23.9413H0.897774C0.406991 23.9413 0 24.3483 0 24.839C0 25.3298 0.406991 25.7368 0.897774 25.7368H24.8384C25.3292 25.7368 25.7362 25.3298 25.7362 24.839C25.7362 24.3483 25.3292 23.9413 24.8384 23.9413Z" fill="#292D32"/>
<path d="M12.8685 2.99258C12.3777 2.99258 11.9707 2.58559 11.9707 2.09481V0.897774C11.9707 0.406991 12.3777 0 12.8685 0C13.3593 0 13.7663 0.406991 13.7663 0.897774V2.09481C13.7663 2.58559 13.3593 2.99258 12.8685 2.99258Z" fill="#292D32"/>
<path d="M4.49025 5.389C4.26281 5.389 4.03538 5.30521 3.85582 5.12565L2.65879 3.92862C2.31165 3.58148 2.31165 3.00691 2.65879 2.65977C3.00593 2.31263 3.58051 2.31263 3.92765 2.65977L5.12468 3.8568C5.47182 4.20394 5.47182 4.77852 5.12468 5.12565C4.94512 5.30521 4.71769 5.389 4.49025 5.389Z" fill="#292D32"/>
<path d="M21.2503 5.389C21.0228 5.389 20.7954 5.30521 20.6158 5.12565C20.2687 4.77852 20.2687 4.20394 20.6158 3.8568L21.8129 2.65977C22.16 2.31263 22.7346 2.31263 23.0817 2.65977C23.4288 3.00691 23.4288 3.58148 23.0817 3.92862L21.8847 5.12565C21.7051 5.30521 21.4777 5.389 21.2503 5.389Z" fill="#292D32"/>
</svg>
