<svg width="311" height="222" viewBox="0 0 311 222" fill="none" xmlns="http://www.w3.org/2000/svg">
<path d="M0 20C0 8.9543 8.9543 0 20 0H291C302.046 0 311 8.95431 311 20V91H0V20Z" fill="white" fill-opacity="0.11"/>
<path d="M0 202C0 213.046 8.9543 222 20 222H291C302.046 222 311 213.046 311 202V91H0V202Z" fill="white" fill-opacity="0.055"/>
<rect x="26" y="49" width="78" height="25" rx="12.5" fill="#BFFF00"/>
<mask id="mask0_604_240" style="mask-type:alpha" maskUnits="userSpaceOnUse" x="0" y="91" width="311" height="131">
<path d="M0 202C0 213.046 8.9543 222 20 222H291C302.046 222 311 213.046 311 202V91H0V202Z" fill="white"/>
</mask>
<g mask="url(#mask0_604_240)">
<path d="M-8 181C-8 175.477 -3.52285 171 2 171C7.52285 171 12 175.477 12 181V222H-8V181Z" fill="url(#paint0_linear_604_240)"/>
<path d="M17 165C17 159.477 21.4772 155 27 155C32.5228 155 37 159.477 37 165V222H17V165Z" fill="url(#paint1_linear_604_240)"/>
<path d="M42 173C42 167.477 46.4772 163 52 163C57.5228 163 62 167.477 62 173V222H42V173Z" fill="url(#paint2_linear_604_240)"/>
<path d="M67 151C67 145.477 71.4772 141 77 141C82.5228 141 87 145.477 87 151V222H67V151Z" fill="url(#paint3_linear_604_240)"/>
<path d="M92 184C92 178.477 96.4772 174 102 174C107.523 174 112 178.477 112 184V222H92V184Z" fill="url(#paint4_linear_604_240)"/>
<path d="M117 165C117 159.477 121.477 155 127 155C132.523 155 137 159.477 137 165V222H117V165Z" fill="url(#paint5_linear_604_240)"/>
<path d="M142 145C142 139.477 146.477 135 152 135C157.523 135 162 139.477 162 145V222H142V145Z" fill="url(#paint6_linear_604_240)"/>
<path d="M167 155C167 149.477 171.477 145 177 145C182.523 145 187 149.477 187 155V222H167V155Z" fill="url(#paint7_linear_604_240)"/>
<path d="M192 165C192 159.477 196.477 155 202 155C207.523 155 212 159.477 212 165V222H192V165Z" fill="url(#paint8_linear_604_240)"/>
<path d="M217 145C217 139.477 221.477 135 227 135C232.523 135 237 139.477 237 145V222H217V145Z" fill="url(#paint9_linear_604_240)"/>
<path d="M242 122C242 116.477 246.477 112 252 112C257.523 112 262 116.477 262 122V222H242V122Z" fill="url(#paint10_linear_604_240)"/>
</g>
<path d="M27.42 24H33.48C34.84 24 35.9333 24.34 36.76 25.02C37.6 25.6867 38.02 26.58 38.02 27.7C38.02 28.3667 37.8467 28.9667 37.5 29.5C37.1533 30.02 36.68 30.4267 36.08 30.72C36.84 31.0133 37.44 31.4467 37.88 32.02C38.3333 32.5933 38.56 33.26 38.56 34.02C38.56 35.22 38.12 36.1867 37.24 36.92C36.36 37.64 35.1933 38 33.74 38H27.42V24ZM33.36 25.78H29.52V29.94H33.36C34.1467 29.94 34.7733 29.7533 35.24 29.38C35.7067 29.0067 35.94 28.5 35.94 27.86C35.94 27.22 35.7067 26.7133 35.24 26.34C34.7733 25.9667 34.1467 25.78 33.36 25.78ZM33.58 36.22C34.4467 36.22 35.14 36.0133 35.66 35.6C36.18 35.1733 36.44 34.6133 36.44 33.92C36.44 33.24 36.18 32.6867 35.66 32.26C35.14 31.8333 34.4467 31.62 33.58 31.62H29.52V36.22H33.58ZM49.418 36.84C48.8313 37.2933 48.218 37.6333 47.578 37.86C46.938 38.0733 46.238 38.18 45.478 38.18C44.7313 38.18 44.0313 38.0467 43.378 37.78C42.7246 37.5 42.158 37.1267 41.678 36.66C41.198 36.1933 40.818 35.64 40.538 35C40.2713 34.3467 40.138 33.6467 40.138 32.9C40.138 32.1667 40.2713 31.48 40.538 30.84C40.8046 30.2 41.1646 29.6467 41.618 29.18C42.0713 28.7133 42.6113 28.3467 43.238 28.08C43.8646 27.8 44.5313 27.66 45.238 27.66C45.9313 27.66 46.578 27.8 47.178 28.08C47.7913 28.3467 48.3113 28.72 48.738 29.2C49.178 29.6667 49.5246 30.2267 49.778 30.88C50.0313 31.5333 50.158 32.2333 50.158 32.98V33.56H42.118C42.2513 34.4 42.638 35.1 43.278 35.66C43.918 36.2067 44.678 36.48 45.558 36.48C46.0513 36.48 46.5246 36.4 46.978 36.24C47.4313 36.08 47.818 35.86 48.138 35.58L49.418 36.84ZM45.198 29.34C44.438 29.34 43.7713 29.5933 43.198 30.1C42.638 30.6067 42.2846 31.26 42.138 32.06H48.178C48.0313 31.2867 47.678 30.64 47.118 30.12C46.5713 29.6 45.9313 29.34 45.198 29.34ZM59.9019 38V37.04C59.4752 37.4 58.9952 37.68 58.4619 37.88C57.9285 38.0667 57.3685 38.16 56.7819 38.16C56.0619 38.16 55.3885 38.0267 54.7619 37.76C54.1352 37.48 53.5885 37.1067 53.1219 36.64C52.6685 36.1733 52.3085 35.62 52.0419 34.98C51.7752 34.3267 51.6419 33.6333 51.6419 32.9C51.6419 32.1667 51.7752 31.48 52.0419 30.84C52.3085 30.2 52.6685 29.6467 53.1219 29.18C53.5885 28.7133 54.1419 28.3467 54.7819 28.08C55.4219 27.8 56.1019 27.66 56.8219 27.66C57.3819 27.66 57.9219 27.7467 58.4419 27.92C58.9619 28.0933 59.4419 28.34 59.8819 28.66V24L61.8819 23.56V38H59.9019ZM53.6019 32.88C53.6019 33.88 53.9352 34.72 54.6019 35.4C55.2685 36.08 56.0885 36.42 57.0619 36.42C57.6352 36.42 58.1619 36.3133 58.6419 36.1C59.1352 35.8867 59.5485 35.5867 59.8819 35.2V30.58C59.5485 30.2067 59.1352 29.9133 58.6419 29.7C58.1485 29.4867 57.6219 29.38 57.0619 29.38C56.0885 29.38 55.2685 29.7133 54.6019 30.38C53.9352 31.0467 53.6019 31.88 53.6019 32.88ZM64.2503 38V27.82H66.2503V29.12C66.557 28.6267 66.9503 28.2533 67.4303 28C67.9103 27.7333 68.4503 27.6 69.0503 27.6C69.2636 27.6 69.4503 27.6133 69.6103 27.64C69.7703 27.6667 69.9236 27.7067 70.0703 27.76V29.56C69.8836 29.4933 69.6903 29.44 69.4903 29.4C69.2903 29.36 69.0903 29.34 68.8903 29.34C68.3036 29.34 67.777 29.5 67.3103 29.82C66.857 30.1267 66.5036 30.5867 66.2503 31.2V38H64.2503ZM70.5872 32.9C70.5872 32.1667 70.7205 31.48 70.9872 30.84C71.2672 30.1867 71.6472 29.6267 72.1272 29.16C72.6072 28.68 73.1672 28.3067 73.8072 28.04C74.4605 27.76 75.1539 27.62 75.8872 27.62C76.6205 27.62 77.3072 27.76 77.9472 28.04C78.6005 28.3067 79.1605 28.68 79.6272 29.16C80.1072 29.6267 80.4805 30.1867 80.7472 30.84C81.0272 31.48 81.1672 32.1667 81.1672 32.9C81.1672 33.6467 81.0272 34.3467 80.7472 35C80.4805 35.64 80.1072 36.2 79.6272 36.68C79.1605 37.1467 78.6005 37.52 77.9472 37.8C77.3072 38.0667 76.6205 38.2 75.8872 38.2C75.1539 38.2 74.4605 38.0667 73.8072 37.8C73.1672 37.52 72.6072 37.1467 72.1272 36.68C71.6472 36.2 71.2672 35.64 70.9872 35C70.7205 34.3467 70.5872 33.6467 70.5872 32.9ZM75.8872 36.44C76.8072 36.44 77.5872 36.1 78.2272 35.42C78.8805 34.7267 79.2072 33.8867 79.2072 32.9C79.2072 31.9133 78.8805 31.08 78.2272 30.4C77.5872 29.72 76.8072 29.38 75.8872 29.38C74.9672 29.38 74.1805 29.72 73.5272 30.4C72.8739 31.08 72.5472 31.9133 72.5472 32.9C72.5472 33.8867 72.8672 34.7267 73.5072 35.42C74.1605 36.1 74.9539 36.44 75.8872 36.44ZM82.638 32.9C82.638 32.1667 82.7713 31.48 83.038 30.84C83.318 30.1867 83.698 29.6267 84.178 29.16C84.658 28.68 85.218 28.3067 85.858 28.04C86.5113 27.76 87.2046 27.62 87.938 27.62C88.6713 27.62 89.358 27.76 89.998 28.04C90.6513 28.3067 91.2113 28.68 91.678 29.16C92.158 29.6267 92.5313 30.1867 92.798 30.84C93.078 31.48 93.218 32.1667 93.218 32.9C93.218 33.6467 93.078 34.3467 92.798 35C92.5313 35.64 92.158 36.2 91.678 36.68C91.2113 37.1467 90.6513 37.52 89.998 37.8C89.358 38.0667 88.6713 38.2 87.938 38.2C87.2046 38.2 86.5113 38.0667 85.858 37.8C85.218 37.52 84.658 37.1467 84.178 36.68C83.698 36.2 83.318 35.64 83.038 35C82.7713 34.3467 82.638 33.6467 82.638 32.9ZM87.938 36.44C88.858 36.44 89.638 36.1 90.278 35.42C90.9313 34.7267 91.258 33.8867 91.258 32.9C91.258 31.9133 90.9313 31.08 90.278 30.4C89.638 29.72 88.858 29.38 87.938 29.38C87.018 29.38 86.2313 29.72 85.578 30.4C84.9246 31.08 84.598 31.9133 84.598 32.9C84.598 33.8867 84.918 34.7267 85.558 35.42C86.2113 36.1 87.0046 36.44 87.938 36.44ZM95.1097 38V27.82H97.1097V28.78C97.483 28.4067 97.9097 28.12 98.3897 27.92C98.8697 27.72 99.3964 27.62 99.9697 27.62C100.65 27.62 101.263 27.7733 101.81 28.08C102.356 28.3733 102.79 28.7867 103.11 29.32C103.523 28.76 104.016 28.34 104.59 28.06C105.176 27.7667 105.83 27.62 106.55 27.62C107.67 27.62 108.583 27.9933 109.29 28.74C110.01 29.4733 110.37 30.4267 110.37 31.6V38H108.37V31.94C108.37 31.14 108.156 30.5133 107.73 30.06C107.316 29.5933 106.75 29.36 106.03 29.36C105.536 29.36 105.09 29.4733 104.69 29.7C104.29 29.9267 103.943 30.2667 103.65 30.72C103.676 30.8533 103.696 31 103.71 31.16C103.723 31.3067 103.73 31.4533 103.73 31.6V38H101.75V31.94C101.75 31.14 101.536 30.5133 101.11 30.06C100.696 29.5933 100.13 29.36 99.4097 29.36C98.9297 29.36 98.4964 29.4667 98.1097 29.68C97.723 29.88 97.3897 30.1867 97.1097 30.6V38H95.1097Z" fill="white"/>
<path d="M227.785 27.9V44H224.634V31.097L221.483 32.385V29.648L225.784 27.9H227.785ZM242.244 39.515C242.244 40.1897 242.083 40.8183 241.761 41.401C241.439 41.9837 240.986 42.482 240.404 42.896C239.836 43.31 239.154 43.6397 238.357 43.885C237.575 44.115 236.716 44.23 235.781 44.23C234.539 44.23 233.358 44.0077 232.239 43.563C231.119 43.1183 230.184 42.505 229.433 41.723L231.549 39.768C232.193 40.412 232.829 40.8643 233.458 41.125C234.086 41.3857 234.853 41.516 235.758 41.516C236.739 41.516 237.536 41.309 238.15 40.895C238.763 40.481 239.07 39.9443 239.07 39.285C239.07 38.687 238.786 38.2117 238.219 37.859C237.667 37.5063 236.931 37.33 236.011 37.33H234.539V34.823H235.689C236.517 34.823 237.207 34.6007 237.759 34.156C238.311 33.7113 238.587 33.1517 238.587 32.477C238.587 31.879 238.311 31.3807 237.759 30.982C237.222 30.5833 236.54 30.384 235.712 30.384C234.93 30.384 234.24 30.5297 233.642 30.821C233.044 31.097 232.4 31.58 231.71 32.27L229.571 30.315C230.353 29.487 231.296 28.8353 232.4 28.36C233.504 27.8847 234.646 27.647 235.827 27.647C236.685 27.647 237.475 27.762 238.196 27.992C238.932 28.2067 239.56 28.5133 240.082 28.912C240.603 29.3107 241.009 29.786 241.301 30.338C241.592 30.89 241.738 31.4957 241.738 32.155C241.738 32.9523 241.523 33.6807 241.094 34.34C240.664 34.984 240.082 35.4977 239.346 35.881C240.22 36.1877 240.917 36.663 241.439 37.307C241.975 37.951 242.244 38.687 242.244 39.515Z" fill="white"/>
<path d="M247.016 43L251.656 31.8H253.624L258.2 43H256.376L255.08 39.72H250.072L248.76 43H247.016ZM250.632 38.328H254.536L252.584 33.416L250.632 38.328ZM269.945 37.4C269.945 38.232 269.78 39.0107 269.449 39.736C269.129 40.4507 268.697 41.0693 268.153 41.592L269.305 43L267.737 43.384L266.969 42.456C266.542 42.6907 266.089 42.872 265.609 43C265.129 43.1173 264.628 43.176 264.105 43.176C263.294 43.176 262.532 43.0267 261.817 42.728C261.102 42.4293 260.484 42.024 259.961 41.512C259.449 40.9893 259.038 40.376 258.729 39.672C258.43 38.9573 258.281 38.2 258.281 37.4C258.281 36.6 258.43 35.848 258.729 35.144C259.038 34.4293 259.449 33.816 259.961 33.304C260.484 32.7813 261.102 32.3707 261.817 32.072C262.532 31.7733 263.294 31.624 264.105 31.624C264.916 31.624 265.678 31.7733 266.393 32.072C267.108 32.3707 267.726 32.7813 268.249 33.304C268.772 33.816 269.182 34.4293 269.481 35.144C269.79 35.848 269.945 36.6 269.945 37.4ZM266.057 39.048L267.113 40.328C267.465 39.9547 267.737 39.5173 267.929 39.016C268.132 38.5147 268.233 37.976 268.233 37.4C268.233 36.8027 268.126 36.248 267.913 35.736C267.7 35.2133 267.406 34.7653 267.033 34.392C266.67 34.008 266.233 33.7093 265.721 33.496C265.22 33.2827 264.681 33.176 264.105 33.176C263.529 33.176 262.99 33.2827 262.489 33.496C261.988 33.7093 261.55 34.008 261.177 34.392C260.814 34.7653 260.526 35.2133 260.313 35.736C260.1 36.248 259.993 36.8027 259.993 37.4C259.993 37.9973 260.1 38.5573 260.313 39.08C260.526 39.592 260.814 40.0347 261.177 40.408C261.55 40.7813 261.988 41.08 262.489 41.304C262.99 41.5173 263.529 41.624 264.105 41.624C264.436 41.624 264.756 41.592 265.065 41.528C265.385 41.4533 265.678 41.3467 265.945 41.208L264.489 39.432L266.057 39.048ZM271.73 43V31.8H273.41V43H271.73Z" fill="white" fill-opacity="0.5"/>
<path d="M214.016 68L218.656 56.8H220.624L225.2 68H223.376L222.08 64.72H217.072L215.76 68H214.016ZM217.632 63.328H221.536L219.584 58.416L217.632 63.328ZM226.323 58.544C226.056 58.544 225.827 58.448 225.635 58.256C225.443 58.0533 225.347 57.8187 225.347 57.552C225.347 57.2853 225.443 57.056 225.635 56.864C225.827 56.6613 226.056 56.56 226.323 56.56C226.589 56.56 226.819 56.6613 227.011 56.864C227.213 57.056 227.315 57.2853 227.315 57.552C227.315 57.8187 227.213 58.0533 227.011 58.256C226.819 58.448 226.589 58.544 226.323 58.544ZM227.123 59.856V68H225.523V59.856H227.123ZM228.367 68V59.856H229.967V60.896C230.212 60.5013 230.527 60.2027 230.911 60C231.295 59.7867 231.727 59.68 232.207 59.68C232.378 59.68 232.527 59.6907 232.655 59.712C232.783 59.7333 232.906 59.7653 233.023 59.808V61.248C232.874 61.1947 232.719 61.152 232.559 61.12C232.399 61.088 232.239 61.072 232.079 61.072C231.61 61.072 231.188 61.2 230.815 61.456C230.452 61.7013 230.17 62.0693 229.967 62.56V68H228.367ZM247.744 62.4C247.744 63.232 247.579 64.0107 247.248 64.736C246.928 65.4507 246.496 66.0693 245.952 66.592L247.104 68L245.536 68.384L244.768 67.456C244.342 67.6907 243.888 67.872 243.408 68C242.928 68.1173 242.427 68.176 241.904 68.176C241.094 68.176 240.331 68.0267 239.616 67.728C238.902 67.4293 238.283 67.024 237.76 66.512C237.248 65.9893 236.838 65.376 236.528 64.672C236.23 63.9573 236.08 63.2 236.08 62.4C236.08 61.6 236.23 60.848 236.528 60.144C236.838 59.4293 237.248 58.816 237.76 58.304C238.283 57.7813 238.902 57.3707 239.616 57.072C240.331 56.7733 241.094 56.624 241.904 56.624C242.715 56.624 243.478 56.7733 244.192 57.072C244.907 57.3707 245.526 57.7813 246.048 58.304C246.571 58.816 246.982 59.4293 247.28 60.144C247.59 60.848 247.744 61.6 247.744 62.4ZM243.856 64.048L244.912 65.328C245.264 64.9547 245.536 64.5173 245.728 64.016C245.931 63.5147 246.032 62.976 246.032 62.4C246.032 61.8027 245.926 61.248 245.712 60.736C245.499 60.2133 245.206 59.7653 244.832 59.392C244.47 59.008 244.032 58.7093 243.52 58.496C243.019 58.2827 242.48 58.176 241.904 58.176C241.328 58.176 240.79 58.2827 240.288 58.496C239.787 58.7093 239.35 59.008 238.976 59.392C238.614 59.7653 238.326 60.2133 238.112 60.736C237.899 61.248 237.792 61.8027 237.792 62.4C237.792 62.9973 237.899 63.5573 238.112 64.08C238.326 64.592 238.614 65.0347 238.976 65.408C239.35 65.7813 239.787 66.08 240.288 66.304C240.79 66.5173 241.328 66.624 241.904 66.624C242.235 66.624 242.555 66.592 242.864 66.528C243.184 66.4533 243.478 66.3467 243.744 66.208L242.288 64.432L243.856 64.048ZM250.265 59.856V64.688C250.265 65.328 250.446 65.8347 250.809 66.208C251.182 66.5813 251.673 66.768 252.281 66.768C252.708 66.768 253.092 66.6773 253.433 66.496C253.774 66.304 254.057 66.0373 254.281 65.696V59.856H255.881V68H254.281V67.184C253.961 67.504 253.593 67.7493 253.177 67.92C252.772 68.08 252.324 68.16 251.833 68.16C250.905 68.16 250.142 67.8613 249.545 67.264C248.958 66.6667 248.665 65.8987 248.665 64.96V59.856H250.265ZM259.711 68.144C258.826 68.144 258.106 67.9147 257.551 67.456C256.997 66.9973 256.719 66.4 256.719 65.664C256.719 64.896 257.013 64.2933 257.599 63.856C258.186 63.408 258.991 63.184 260.015 63.184C260.41 63.184 260.794 63.2267 261.167 63.312C261.541 63.3867 261.898 63.4933 262.239 63.632V62.768C262.239 62.192 262.069 61.76 261.727 61.472C261.386 61.184 260.895 61.04 260.255 61.04C259.882 61.04 259.493 61.0987 259.087 61.216C258.682 61.3227 258.229 61.4933 257.727 61.728L257.135 60.528C257.743 60.24 258.319 60.032 258.863 59.904C259.407 59.7653 259.946 59.696 260.479 59.696C261.535 59.696 262.351 59.952 262.927 60.464C263.514 60.9653 263.807 61.68 263.807 62.608V68H262.239V67.296C261.877 67.584 261.487 67.7973 261.071 67.936C260.655 68.0747 260.202 68.144 259.711 68.144ZM258.255 65.632C258.255 66.0267 258.421 66.3467 258.751 66.592C259.093 66.8373 259.535 66.96 260.079 66.96C260.506 66.96 260.901 66.896 261.263 66.768C261.626 66.64 261.951 66.448 262.239 66.192V64.784C261.93 64.6133 261.605 64.4907 261.263 64.416C260.922 64.3307 260.549 64.288 260.143 64.288C259.567 64.288 259.109 64.4107 258.767 64.656C258.426 64.9013 258.255 65.2267 258.255 65.632ZM266.611 56.448V68H265.011V56.8L266.611 56.448ZM268.655 58.544C268.389 58.544 268.159 58.448 267.967 58.256C267.775 58.0533 267.679 57.8187 267.679 57.552C267.679 57.2853 267.775 57.056 267.967 56.864C268.159 56.6613 268.389 56.56 268.655 56.56C268.922 56.56 269.151 56.6613 269.343 56.864C269.546 57.056 269.647 57.2853 269.647 57.552C269.647 57.8187 269.546 58.0533 269.343 58.256C269.151 58.448 268.922 58.544 268.655 58.544ZM269.455 59.856V68H267.855V59.856H269.455ZM271.756 65.984V61.2H270.028V59.856H271.756V57.776L273.34 57.392V59.856H275.74V61.2H273.34V65.616C273.34 66.032 273.43 66.3253 273.612 66.496C273.804 66.6667 274.113 66.752 274.54 66.752C274.764 66.752 274.961 66.7413 275.132 66.72C275.313 66.688 275.505 66.6347 275.708 66.56V67.904C275.494 67.9787 275.244 68.0373 274.956 68.08C274.678 68.1227 274.422 68.144 274.188 68.144C273.398 68.144 272.796 67.9627 272.38 67.6C271.964 67.2267 271.756 66.688 271.756 65.984ZM278.467 68.768L278.787 68.032L275.539 59.856H277.299L279.683 66.08L282.307 59.856H284.035L280.099 68.976C279.725 69.84 279.299 70.4587 278.819 70.832C278.339 71.216 277.725 71.408 276.979 71.408C276.808 71.408 276.648 71.3973 276.499 71.376C276.36 71.3653 276.237 71.344 276.131 71.312V69.904C276.237 69.9253 276.344 69.9413 276.451 69.952C276.568 69.9627 276.701 69.968 276.851 69.968C277.213 69.968 277.528 69.8667 277.795 69.664C278.072 69.472 278.296 69.1733 278.467 68.768Z" fill="white" fill-opacity="0.5"/>
<path d="M200.424 30.5757C200.19 30.3414 199.81 30.3414 199.576 30.5757C199.341 30.8101 199.341 31.1899 199.576 31.4243L200.424 30.5757ZM210 41.6C210.331 41.6 210.6 41.3314 210.6 41L210.6 35.6C210.6 35.2686 210.331 35 210 35C209.669 35 209.4 35.2686 209.4 35.6L209.4 40.4L204.6 40.4C204.269 40.4 204 40.6686 204 41C204 41.3314 204.269 41.6 204.6 41.6L210 41.6ZM199.576 31.4243L209.576 41.4243L210.424 40.5757L200.424 30.5757L199.576 31.4243Z" fill="#F17E4C"/>
<path d="M34.065 66V55.5H36.18L39.465 62.22L42.75 55.5H44.85V66H43.365V57.42L39.45 65.25L35.535 57.42V66H34.065ZM50.0599 66.15C49.3199 66.15 48.6449 65.975 48.0349 65.625C47.4349 65.275 46.9599 64.8 46.6099 64.2C46.2599 63.6 46.0849 62.93 46.0849 62.19C46.0849 61.45 46.2599 60.78 46.6099 60.18C46.9599 59.58 47.4349 59.105 48.0349 58.755C48.6449 58.395 49.3199 58.215 50.0599 58.215C50.8099 58.215 51.4849 58.395 52.0849 58.755C52.6849 59.105 53.1599 59.58 53.5099 60.18C53.8599 60.78 54.0349 61.45 54.0349 62.19C54.0349 62.93 53.8599 63.6 53.5099 64.2C53.1599 64.8 52.6849 65.275 52.0849 65.625C51.4849 65.975 50.8099 66.15 50.0599 66.15ZM50.0599 64.83C50.5299 64.83 50.9549 64.715 51.3349 64.485C51.7149 64.245 52.0149 63.925 52.2349 63.525C52.4549 63.125 52.5649 62.675 52.5649 62.175C52.5649 61.685 52.4499 61.245 52.2199 60.855C51.9999 60.455 51.6999 60.135 51.3199 59.895C50.9499 59.655 50.5299 59.535 50.0599 59.535C49.5899 59.535 49.1649 59.655 48.7849 59.895C48.4149 60.135 48.1149 60.455 47.8849 60.855C47.6649 61.245 47.5549 61.685 47.5549 62.175C47.5549 62.675 47.6649 63.125 47.8849 63.525C48.1049 63.925 48.4049 64.245 48.7849 64.485C49.1649 64.715 49.5899 64.83 50.0599 64.83ZM58.5884 66.12C57.8784 66.12 57.2284 65.945 56.6384 65.595C56.0484 65.245 55.5834 64.775 55.2434 64.185C54.9034 63.585 54.7334 62.915 54.7334 62.175C54.7334 61.435 54.9034 60.77 55.2434 60.18C55.5934 59.59 56.0634 59.12 56.6534 58.77C57.2434 58.42 57.8984 58.245 58.6184 58.245C59.0384 58.245 59.4434 58.31 59.8334 58.44C60.2234 58.57 60.5834 58.76 60.9134 59.01V55.5L62.4134 55.215V66H60.9284V65.265C60.2784 65.835 59.4984 66.12 58.5884 66.12ZM58.7834 64.815C59.2234 64.815 59.6234 64.735 59.9834 64.575C60.3534 64.415 60.6634 64.185 60.9134 63.885V60.45C60.6634 60.17 60.3534 59.95 59.9834 59.79C59.6234 59.62 59.2234 59.535 58.7834 59.535C58.3034 59.535 57.8684 59.65 57.4784 59.88C57.0884 60.11 56.7784 60.425 56.5484 60.825C56.3184 61.215 56.2034 61.66 56.2034 62.16C56.2034 62.66 56.3184 63.11 56.5484 63.51C56.7784 63.91 57.0884 64.23 57.4784 64.47C57.8684 64.7 58.3034 64.815 58.7834 64.815ZM67.4747 66.135C66.7247 66.135 66.0447 65.96 65.4347 65.61C64.8347 65.26 64.3547 64.785 63.9947 64.185C63.6447 63.585 63.4697 62.915 63.4697 62.175C63.4697 61.445 63.6397 60.785 63.9797 60.195C64.3197 59.595 64.7797 59.12 65.3597 58.77C65.9397 58.41 66.5847 58.23 67.2947 58.23C68.0047 58.23 68.6347 58.41 69.1847 58.77C69.7347 59.12 70.1697 59.6 70.4897 60.21C70.8197 60.81 70.9847 61.49 70.9847 62.25V62.67H64.9697C65.0497 63.09 65.2047 63.465 65.4347 63.795C65.6747 64.125 65.9747 64.385 66.3347 64.575C66.7047 64.765 67.1047 64.86 67.5347 64.86C67.9047 64.86 68.2597 64.805 68.5997 64.695C68.9497 64.575 69.2397 64.405 69.4697 64.185L70.4297 65.13C69.9797 65.47 69.5147 65.725 69.0347 65.895C68.5647 66.055 68.0447 66.135 67.4747 66.135ZM64.9847 61.545H69.4997C69.4397 61.145 69.2997 60.795 69.0797 60.495C68.8697 60.185 68.6047 59.945 68.2847 59.775C67.9747 59.595 67.6347 59.505 67.2647 59.505C66.8847 59.505 66.5347 59.59 66.2147 59.76C65.8947 59.93 65.6247 60.17 65.4047 60.48C65.1947 60.78 65.0547 61.135 64.9847 61.545ZM72.0383 66V58.365H73.5383V59.34C73.7783 58.98 74.0733 58.7 74.4233 58.5C74.7833 58.29 75.1883 58.185 75.6383 58.185C75.9483 58.195 76.2033 58.24 76.4033 58.32V59.67C76.2633 59.61 76.1183 59.57 75.9683 59.55C75.8183 59.52 75.6683 59.505 75.5183 59.505C75.0783 59.505 74.6883 59.625 74.3483 59.865C74.0083 60.095 73.7383 60.435 73.5383 60.885V66H72.0383ZM79.3371 66.135C78.7871 66.135 78.3021 66.04 77.8821 65.85C77.4621 65.65 77.1321 65.375 76.8921 65.025C76.6521 64.675 76.5321 64.27 76.5321 63.81C76.5321 63.09 76.8071 62.525 77.3571 62.115C77.9071 61.695 78.6621 61.485 79.6221 61.485C80.3721 61.485 81.0671 61.63 81.7071 61.92V61.11C81.7071 60.56 81.5471 60.15 81.2271 59.88C80.9171 59.61 80.4571 59.475 79.8471 59.475C79.4971 59.475 79.1321 59.53 78.7521 59.64C78.3721 59.74 77.9471 59.9 77.4771 60.12L76.9221 58.995C77.5021 58.725 78.0421 58.53 78.5421 58.41C79.0421 58.28 79.5471 58.215 80.0571 58.215C81.0471 58.215 81.8121 58.45 82.3521 58.92C82.9021 59.39 83.1771 60.06 83.1771 60.93V66H81.7071V65.34C81.3671 65.61 81.0021 65.81 80.6121 65.94C80.2221 66.07 79.7971 66.135 79.3371 66.135ZM77.9721 63.78C77.9721 64.15 78.1271 64.45 78.4371 64.68C78.7571 64.9 79.1721 65.01 79.6821 65.01C80.0821 65.01 80.4471 64.955 80.7771 64.845C81.1171 64.725 81.4271 64.54 81.7071 64.29V63C81.4171 62.83 81.1121 62.71 80.7921 62.64C80.4821 62.56 80.1321 62.52 79.7421 62.52C79.1921 62.52 78.7571 62.635 78.4371 62.865C78.1271 63.085 77.9721 63.39 77.9721 63.78ZM87.5808 66.135C86.8408 66.135 86.2758 65.965 85.8858 65.625C85.4958 65.275 85.3008 64.77 85.3008 64.11V59.625H83.6808V58.365H85.3008V56.415L86.7858 56.055V58.365H89.0358V59.625H86.7858V63.765C86.7858 64.155 86.8708 64.435 87.0408 64.605C87.2208 64.765 87.5108 64.845 87.9108 64.845C88.1208 64.845 88.3058 64.83 88.4658 64.8C88.6358 64.77 88.8158 64.725 89.0058 64.665V65.925C88.8058 65.995 88.5708 66.045 88.3008 66.075C88.0408 66.115 87.8008 66.135 87.5808 66.135ZM93.3087 66.135C92.5587 66.135 91.8787 65.96 91.2687 65.61C90.6687 65.26 90.1887 64.785 89.8287 64.185C89.4787 63.585 89.3037 62.915 89.3037 62.175C89.3037 61.445 89.4737 60.785 89.8137 60.195C90.1537 59.595 90.6137 59.12 91.1937 58.77C91.7737 58.41 92.4187 58.23 93.1287 58.23C93.8387 58.23 94.4687 58.41 95.0187 58.77C95.5687 59.12 96.0037 59.6 96.3237 60.21C96.6537 60.81 96.8187 61.49 96.8187 62.25V62.67H90.8037C90.8837 63.09 91.0387 63.465 91.2687 63.795C91.5087 64.125 91.8087 64.385 92.1687 64.575C92.5387 64.765 92.9387 64.86 93.3687 64.86C93.7387 64.86 94.0937 64.805 94.4337 64.695C94.7837 64.575 95.0737 64.405 95.3037 64.185L96.2637 65.13C95.8137 65.47 95.3487 65.725 94.8687 65.895C94.3987 66.055 93.8787 66.135 93.3087 66.135ZM90.8187 61.545H95.3337C95.2737 61.145 95.1337 60.795 94.9137 60.495C94.7037 60.185 94.4387 59.945 94.1187 59.775C93.8087 59.595 93.4687 59.505 93.0987 59.505C92.7187 59.505 92.3687 59.59 92.0487 59.76C91.7287 59.93 91.4587 60.17 91.2387 60.48C91.0287 60.78 90.8887 61.135 90.8187 61.545Z" fill="black"/>
<path d="M120.648 18.5124C119.843 20.3563 119.164 20.8545 119.071 20.9425C119.139 21.0071 120.151 21.8972 120.072 23.2159C119.991 24.5832 118.83 25.0011 118.207 25.0011C117.364 25.0011 116.734 24.4747 116.451 24.2749C116.375 24.2208 116.27 24.1342 116.17 24.0409C115.984 23.8673 115.879 23.6227 115.879 23.3674V21.4562C115.879 21.2721 115.977 21.102 116.135 21.0101L116.482 20.8089L116.135 20.6077C115.977 20.5158 115.879 20.3458 115.879 20.1617V18.2893C115.879 18.0089 116.013 17.7517 116.224 17.569C117.833 16.1824 120.138 15.7228 120.714 16.1586C121.133 16.4752 121.079 17.5262 120.648 18.5124H120.648Z" fill="#BFFF00"/>
<path d="M110.353 18.5124C111.159 20.3563 111.837 20.8545 111.931 20.9425C111.862 21.0071 110.85 21.8972 110.929 23.2159C111.01 24.5832 112.171 25.0011 112.794 25.0011C113.637 25.0011 114.267 24.4747 114.55 24.2749C114.627 24.2208 114.731 24.1342 114.831 24.0409C115.017 23.8673 115.122 23.6227 115.122 23.3674V21.4562C115.122 21.2721 115.025 21.102 114.866 21.0101L114.52 20.8089L114.866 20.6077C115.025 20.5158 115.122 20.3458 115.122 20.1617V18.2893C115.122 18.0089 114.989 17.7517 114.777 17.569C113.168 16.1824 110.864 15.7228 110.287 16.1586C109.868 16.4752 109.922 17.5262 110.353 18.5124Z" fill="#BFFF00"/>
<defs>
<linearGradient id="paint0_linear_604_240" x1="2" y1="91.5" x2="2" y2="222" gradientUnits="userSpaceOnUse">
<stop stop-color="#FF9900"/>
<stop offset="0.475292" stop-color="#BBFF2B"/>
<stop offset="1" stop-color="#1C3AE9"/>
</linearGradient>
<linearGradient id="paint1_linear_604_240" x1="27" y1="90.5" x2="27" y2="222" gradientUnits="userSpaceOnUse">
<stop stop-color="#FF9900"/>
<stop offset="0.482454" stop-color="#BBFF2B"/>
<stop offset="1" stop-color="#1C3AE9"/>
</linearGradient>
<linearGradient id="paint2_linear_604_240" x1="52" y1="91.5" x2="52" y2="222" gradientUnits="userSpaceOnUse">
<stop stop-color="#FF9900"/>
<stop offset="0.48777" stop-color="#BBFF2B"/>
<stop offset="1" stop-color="#1C3AE9"/>
</linearGradient>
<linearGradient id="paint3_linear_604_240" x1="77" y1="91.5" x2="77" y2="222" gradientUnits="userSpaceOnUse">
<stop stop-color="#FF9900"/>
<stop offset="0.505208" stop-color="#BBFF2B"/>
<stop offset="1" stop-color="#1C3AE9"/>
</linearGradient>
<linearGradient id="paint4_linear_604_240" x1="102" y1="91" x2="102" y2="222" gradientUnits="userSpaceOnUse">
<stop stop-color="#FF9900"/>
<stop offset="0.588542" stop-color="#BBFF2B"/>
<stop offset="1" stop-color="#1C3AE9"/>
</linearGradient>
<linearGradient id="paint5_linear_604_240" x1="127" y1="91" x2="127" y2="222" gradientUnits="userSpaceOnUse">
<stop stop-color="#FF9900"/>
<stop offset="0.491748" stop-color="#BBFF2B"/>
<stop offset="1" stop-color="#1C3AE9"/>
</linearGradient>
<linearGradient id="paint6_linear_604_240" x1="152" y1="91" x2="152" y2="222" gradientUnits="userSpaceOnUse">
<stop stop-color="#FF9900"/>
<stop offset="0.51371" stop-color="#BBFF2B"/>
<stop offset="1" stop-color="#1C3AE9"/>
</linearGradient>
<linearGradient id="paint7_linear_604_240" x1="177" y1="91" x2="177" y2="222" gradientUnits="userSpaceOnUse">
<stop stop-color="#FF9900"/>
<stop offset="0.494189" stop-color="#BBFF2B"/>
<stop offset="1" stop-color="#1C3AE9"/>
</linearGradient>
<linearGradient id="paint8_linear_604_240" x1="202" y1="91" x2="202" y2="222" gradientUnits="userSpaceOnUse">
<stop stop-color="#FF9900"/>
<stop offset="0.486868" stop-color="#BBFF2B"/>
<stop offset="1" stop-color="#1C3AE9"/>
</linearGradient>
<linearGradient id="paint9_linear_604_240" x1="227" y1="91" x2="227" y2="222" gradientUnits="userSpaceOnUse">
<stop stop-color="#FF9900"/>
<stop offset="0.489308" stop-color="#BBFF2B"/>
<stop offset="1" stop-color="#1C3AE9"/>
</linearGradient>
<linearGradient id="paint10_linear_604_240" x1="252" y1="91" x2="252" y2="222" gradientUnits="userSpaceOnUse">
<stop stop-color="#FF9900"/>
<stop offset="0.484428" stop-color="#BBFF2B"/>
<stop offset="1" stop-color="#1C3AE9"/>
</linearGradient>
</defs>
</svg>
