<svg width="311" height="91" viewBox="0 0 311 91" fill="none" xmlns="http://www.w3.org/2000/svg">
<path d="M0 20C0 8.9543 8.9543 0 20 0H291C302.046 0 311 8.95431 311 20V71C311 82.0457 302.046 91 291 91H20C8.95431 91 0 82.0457 0 71V20Z" fill="white" fill-opacity="0.11"/>
<rect x="26" y="49" width="56" height="25" rx="12.5" fill="#0ECCDA"/>
<path d="M27.42 38V24H29.52V30.52L36.3 24H38.94L31.72 30.76L39.18 38H36.3L29.52 31.34V38H27.42ZM41.1878 26.18C40.8545 26.18 40.5678 26.06 40.3278 25.82C40.0878 25.5667 39.9678 25.2733 39.9678 24.94C39.9678 24.6067 40.0878 24.32 40.3278 24.08C40.5678 23.8267 40.8545 23.7 41.1878 23.7C41.5211 23.7 41.8078 23.8267 42.0478 24.08C42.3011 24.32 42.4278 24.6067 42.4278 24.94C42.4278 25.2733 42.3011 25.5667 42.0478 25.82C41.8078 26.06 41.5211 26.18 41.1878 26.18ZM42.1878 27.82V38H40.1878V27.82H42.1878ZM45.8633 35.48V29.5H43.7033V27.82H45.8633V25.22L47.8433 24.74V27.82H50.8433V29.5H47.8433V35.02C47.8433 35.54 47.9566 35.9067 48.1833 36.12C48.4233 36.3333 48.8099 36.44 49.3433 36.44C49.6233 36.44 49.8699 36.4267 50.0833 36.4C50.3099 36.36 50.5499 36.2933 50.8033 36.2V37.88C50.5366 37.9733 50.2233 38.0467 49.8633 38.1C49.5166 38.1533 49.1966 38.18 48.9033 38.18C47.9166 38.18 47.1633 37.9533 46.6433 37.5C46.1233 37.0333 45.8633 36.36 45.8633 35.48ZM56.9619 36.42C57.4685 36.42 57.9485 36.32 58.4019 36.12C58.8552 35.9067 59.2885 35.5933 59.7019 35.18L60.9019 36.48C60.3685 37.0133 59.7552 37.4333 59.0619 37.74C58.3685 38.0333 57.6419 38.18 56.8819 38.18C56.1485 38.18 55.4619 38.0467 54.8219 37.78C54.1819 37.5 53.6285 37.1267 53.1619 36.66C52.6952 36.1933 52.3219 35.64 52.0419 35C51.7752 34.3467 51.6419 33.6467 51.6419 32.9C51.6419 32.1667 51.7752 31.48 52.0419 30.84C52.3219 30.1867 52.6952 29.6267 53.1619 29.16C53.6285 28.68 54.1819 28.3067 54.8219 28.04C55.4619 27.76 56.1485 27.62 56.8819 27.62C57.6419 27.62 58.3819 27.7733 59.1019 28.08C59.8219 28.3733 60.4485 28.7867 60.9819 29.32L59.7219 30.68C59.3352 30.2667 58.9019 29.9533 58.4219 29.74C57.9419 29.5133 57.4419 29.4 56.9219 29.4C56.0019 29.4 55.2219 29.74 54.5819 30.42C53.9419 31.1 53.6219 31.9267 53.6219 32.9C53.6219 33.9 53.9419 34.74 54.5819 35.42C55.2352 36.0867 56.0285 36.42 56.9619 36.42ZM62.5316 38V24L64.5316 23.56V28.84C64.9316 28.44 65.3849 28.14 65.8916 27.94C66.4116 27.7267 66.9782 27.62 67.5916 27.62C68.7516 27.62 69.7049 27.9933 70.4516 28.74C71.1982 29.4733 71.5716 30.4267 71.5716 31.6V38H69.5716V31.94C69.5716 31.14 69.3382 30.5133 68.8716 30.06C68.4182 29.5933 67.8116 29.36 67.0516 29.36C66.5182 29.36 66.0316 29.4733 65.5916 29.7C65.1649 29.9267 64.8116 30.2533 64.5316 30.68V38H62.5316ZM82.6992 36.84C82.1126 37.2933 81.4992 37.6333 80.8592 37.86C80.2192 38.0733 79.5192 38.18 78.7592 38.18C78.0126 38.18 77.3126 38.0467 76.6592 37.78C76.0059 37.5 75.4392 37.1267 74.9592 36.66C74.4792 36.1933 74.0992 35.64 73.8192 35C73.5526 34.3467 73.4192 33.6467 73.4192 32.9C73.4192 32.1667 73.5526 31.48 73.8192 30.84C74.0859 30.2 74.4459 29.6467 74.8992 29.18C75.3526 28.7133 75.8926 28.3467 76.5192 28.08C77.1459 27.8 77.8126 27.66 78.5192 27.66C79.2126 27.66 79.8592 27.8 80.4592 28.08C81.0726 28.3467 81.5926 28.72 82.0192 29.2C82.4592 29.6667 82.8059 30.2267 83.0592 30.88C83.3126 31.5333 83.4392 32.2333 83.4392 32.98V33.56H75.3992C75.5326 34.4 75.9192 35.1 76.5592 35.66C77.1992 36.2067 77.9592 36.48 78.8392 36.48C79.3326 36.48 79.8059 36.4 80.2592 36.24C80.7126 36.08 81.0992 35.86 81.4192 35.58L82.6992 36.84ZM78.4792 29.34C77.7192 29.34 77.0526 29.5933 76.4792 30.1C75.9192 30.6067 75.5659 31.26 75.4192 32.06H81.4592C81.3126 31.2867 80.9592 30.64 80.3992 30.12C79.8526 29.6 79.2126 29.34 78.4792 29.34ZM85.3441 38V27.82H87.3441V28.84C87.7441 28.44 88.1974 28.14 88.7041 27.94C89.2241 27.7267 89.7907 27.62 90.4041 27.62C91.5641 27.62 92.5174 27.9933 93.2641 28.74C94.0107 29.4733 94.3841 30.4267 94.3841 31.6V38H92.3841V31.94C92.3841 31.14 92.1507 30.5133 91.6841 30.06C91.2307 29.5933 90.6241 29.36 89.8641 29.36C89.3307 29.36 88.8441 29.4733 88.4041 29.7C87.9774 29.9267 87.6241 30.2533 87.3441 30.68V38H85.3441Z" fill="white"/>
<path d="M225.866 44.23C224.808 44.23 223.842 44.0307 222.968 43.632C222.094 43.2333 221.35 42.6737 220.737 41.953C220.124 41.2323 219.641 40.3583 219.288 39.331C218.951 38.3037 218.782 37.169 218.782 35.927C218.782 34.7003 218.951 33.5733 219.288 32.546C219.641 31.5187 220.124 30.6447 220.737 29.924C221.366 29.2033 222.117 28.6437 222.991 28.245C223.865 27.8463 224.823 27.647 225.866 27.647C226.924 27.647 227.89 27.8463 228.764 28.245C229.638 28.6437 230.382 29.2033 230.995 29.924C231.608 30.6447 232.084 31.5187 232.421 32.546C232.774 33.5733 232.95 34.7003 232.95 35.927C232.95 37.169 232.781 38.3037 232.444 39.331C232.107 40.3583 231.624 41.2323 230.995 41.953C230.382 42.6737 229.638 43.2333 228.764 43.632C227.89 44.0307 226.924 44.23 225.866 44.23ZM225.866 41.493C227.108 41.493 228.089 40.9947 228.81 39.998C229.531 39.0013 229.891 37.6443 229.891 35.927C229.891 34.2403 229.523 32.8987 228.787 31.902C228.066 30.89 227.093 30.384 225.866 30.384C224.639 30.384 223.666 30.89 222.945 31.902C222.224 32.8987 221.864 34.2403 221.864 35.927C221.864 37.6443 222.224 39.0013 222.945 39.998C223.666 40.9947 224.639 41.493 225.866 41.493ZM241.611 44.253C240.553 44.253 239.587 44.0613 238.713 43.678C237.839 43.2793 237.088 42.735 236.459 42.045C235.846 41.3397 235.363 40.4963 235.01 39.515C234.673 38.5337 234.504 37.4527 234.504 36.272C234.504 34.984 234.696 33.811 235.079 32.753C235.462 31.6797 235.999 30.7673 236.689 30.016C237.379 29.2647 238.215 28.682 239.196 28.268C240.177 27.854 241.258 27.647 242.439 27.647C243.313 27.647 244.179 27.7927 245.038 28.084C245.897 28.36 246.617 28.7357 247.2 29.211L245.406 31.465C244.931 31.097 244.432 30.8287 243.911 30.66C243.39 30.4913 242.822 30.407 242.209 30.407C240.829 30.407 239.74 30.8823 238.943 31.833C238.161 32.7683 237.732 34.1023 237.655 35.835C238.176 35.2523 238.82 34.8 239.587 34.478C240.354 34.1407 241.166 33.972 242.025 33.972C242.838 33.972 243.589 34.0947 244.279 34.34C244.969 34.5853 245.559 34.9303 246.05 35.375C246.556 35.8043 246.947 36.3257 247.223 36.939C247.499 37.537 247.637 38.1963 247.637 38.917C247.637 39.6837 247.484 40.3967 247.177 41.056C246.87 41.7 246.449 42.2597 245.912 42.735C245.391 43.2103 244.754 43.586 244.003 43.862C243.267 44.1227 242.47 44.253 241.611 44.253ZM241.519 36.456C240.798 36.456 240.124 36.6093 239.495 36.916C238.882 37.2227 238.33 37.6597 237.839 38.227C238.084 39.239 238.529 40.0517 239.173 40.665C239.817 41.2783 240.584 41.585 241.473 41.585C242.347 41.585 243.075 41.3397 243.658 40.849C244.256 40.3583 244.555 39.7373 244.555 38.986C244.555 38.2347 244.271 37.629 243.704 37.169C243.137 36.6937 242.408 36.456 241.519 36.456Z" fill="white"/>
<path d="M252.016 43L256.656 31.8H258.624L263.2 43H261.376L260.08 39.72H255.072L253.76 43H252.016ZM255.632 38.328H259.536L257.584 33.416L255.632 38.328ZM274.945 37.4C274.945 38.232 274.78 39.0107 274.449 39.736C274.129 40.4507 273.697 41.0693 273.153 41.592L274.305 43L272.737 43.384L271.969 42.456C271.542 42.6907 271.089 42.872 270.609 43C270.129 43.1173 269.628 43.176 269.105 43.176C268.294 43.176 267.532 43.0267 266.817 42.728C266.102 42.4293 265.484 42.024 264.961 41.512C264.449 40.9893 264.038 40.376 263.729 39.672C263.43 38.9573 263.281 38.2 263.281 37.4C263.281 36.6 263.43 35.848 263.729 35.144C264.038 34.4293 264.449 33.816 264.961 33.304C265.484 32.7813 266.102 32.3707 266.817 32.072C267.532 31.7733 268.294 31.624 269.105 31.624C269.916 31.624 270.678 31.7733 271.393 32.072C272.108 32.3707 272.726 32.7813 273.249 33.304C273.772 33.816 274.182 34.4293 274.481 35.144C274.79 35.848 274.945 36.6 274.945 37.4ZM271.057 39.048L272.113 40.328C272.465 39.9547 272.737 39.5173 272.929 39.016C273.132 38.5147 273.233 37.976 273.233 37.4C273.233 36.8027 273.126 36.248 272.913 35.736C272.7 35.2133 272.406 34.7653 272.033 34.392C271.67 34.008 271.233 33.7093 270.721 33.496C270.22 33.2827 269.681 33.176 269.105 33.176C268.529 33.176 267.99 33.2827 267.489 33.496C266.988 33.7093 266.55 34.008 266.177 34.392C265.814 34.7653 265.526 35.2133 265.313 35.736C265.1 36.248 264.993 36.8027 264.993 37.4C264.993 37.9973 265.1 38.5573 265.313 39.08C265.526 39.592 265.814 40.0347 266.177 40.408C266.55 40.7813 266.988 41.08 267.489 41.304C267.99 41.5173 268.529 41.624 269.105 41.624C269.436 41.624 269.756 41.592 270.065 41.528C270.385 41.4533 270.678 41.3467 270.945 41.208L269.489 39.432L271.057 39.048ZM276.73 43V31.8H278.41V43H276.73Z" fill="white" fill-opacity="0.5"/>
<path d="M214.016 68L218.656 56.8H220.624L225.2 68H223.376L222.08 64.72H217.072L215.76 68H214.016ZM217.632 63.328H221.536L219.584 58.416L217.632 63.328ZM226.323 58.544C226.056 58.544 225.827 58.448 225.635 58.256C225.443 58.0533 225.347 57.8187 225.347 57.552C225.347 57.2853 225.443 57.056 225.635 56.864C225.827 56.6613 226.056 56.56 226.323 56.56C226.589 56.56 226.819 56.6613 227.011 56.864C227.213 57.056 227.315 57.2853 227.315 57.552C227.315 57.8187 227.213 58.0533 227.011 58.256C226.819 58.448 226.589 58.544 226.323 58.544ZM227.123 59.856V68H225.523V59.856H227.123ZM228.367 68V59.856H229.967V60.896C230.212 60.5013 230.527 60.2027 230.911 60C231.295 59.7867 231.727 59.68 232.207 59.68C232.378 59.68 232.527 59.6907 232.655 59.712C232.783 59.7333 232.906 59.7653 233.023 59.808V61.248C232.874 61.1947 232.719 61.152 232.559 61.12C232.399 61.088 232.239 61.072 232.079 61.072C231.61 61.072 231.188 61.2 230.815 61.456C230.452 61.7013 230.17 62.0693 229.967 62.56V68H228.367ZM247.744 62.4C247.744 63.232 247.579 64.0107 247.248 64.736C246.928 65.4507 246.496 66.0693 245.952 66.592L247.104 68L245.536 68.384L244.768 67.456C244.342 67.6907 243.888 67.872 243.408 68C242.928 68.1173 242.427 68.176 241.904 68.176C241.094 68.176 240.331 68.0267 239.616 67.728C238.902 67.4293 238.283 67.024 237.76 66.512C237.248 65.9893 236.838 65.376 236.528 64.672C236.23 63.9573 236.08 63.2 236.08 62.4C236.08 61.6 236.23 60.848 236.528 60.144C236.838 59.4293 237.248 58.816 237.76 58.304C238.283 57.7813 238.902 57.3707 239.616 57.072C240.331 56.7733 241.094 56.624 241.904 56.624C242.715 56.624 243.478 56.7733 244.192 57.072C244.907 57.3707 245.526 57.7813 246.048 58.304C246.571 58.816 246.982 59.4293 247.28 60.144C247.59 60.848 247.744 61.6 247.744 62.4ZM243.856 64.048L244.912 65.328C245.264 64.9547 245.536 64.5173 245.728 64.016C245.931 63.5147 246.032 62.976 246.032 62.4C246.032 61.8027 245.926 61.248 245.712 60.736C245.499 60.2133 245.206 59.7653 244.832 59.392C244.47 59.008 244.032 58.7093 243.52 58.496C243.019 58.2827 242.48 58.176 241.904 58.176C241.328 58.176 240.79 58.2827 240.288 58.496C239.787 58.7093 239.35 59.008 238.976 59.392C238.614 59.7653 238.326 60.2133 238.112 60.736C237.899 61.248 237.792 61.8027 237.792 62.4C237.792 62.9973 237.899 63.5573 238.112 64.08C238.326 64.592 238.614 65.0347 238.976 65.408C239.35 65.7813 239.787 66.08 240.288 66.304C240.79 66.5173 241.328 66.624 241.904 66.624C242.235 66.624 242.555 66.592 242.864 66.528C243.184 66.4533 243.478 66.3467 243.744 66.208L242.288 64.432L243.856 64.048ZM250.265 59.856V64.688C250.265 65.328 250.446 65.8347 250.809 66.208C251.182 66.5813 251.673 66.768 252.281 66.768C252.708 66.768 253.092 66.6773 253.433 66.496C253.774 66.304 254.057 66.0373 254.281 65.696V59.856H255.881V68H254.281V67.184C253.961 67.504 253.593 67.7493 253.177 67.92C252.772 68.08 252.324 68.16 251.833 68.16C250.905 68.16 250.142 67.8613 249.545 67.264C248.958 66.6667 248.665 65.8987 248.665 64.96V59.856H250.265ZM259.711 68.144C258.826 68.144 258.106 67.9147 257.551 67.456C256.997 66.9973 256.719 66.4 256.719 65.664C256.719 64.896 257.013 64.2933 257.599 63.856C258.186 63.408 258.991 63.184 260.015 63.184C260.41 63.184 260.794 63.2267 261.167 63.312C261.541 63.3867 261.898 63.4933 262.239 63.632V62.768C262.239 62.192 262.069 61.76 261.727 61.472C261.386 61.184 260.895 61.04 260.255 61.04C259.882 61.04 259.493 61.0987 259.087 61.216C258.682 61.3227 258.229 61.4933 257.727 61.728L257.135 60.528C257.743 60.24 258.319 60.032 258.863 59.904C259.407 59.7653 259.946 59.696 260.479 59.696C261.535 59.696 262.351 59.952 262.927 60.464C263.514 60.9653 263.807 61.68 263.807 62.608V68H262.239V67.296C261.877 67.584 261.487 67.7973 261.071 67.936C260.655 68.0747 260.202 68.144 259.711 68.144ZM258.255 65.632C258.255 66.0267 258.421 66.3467 258.751 66.592C259.093 66.8373 259.535 66.96 260.079 66.96C260.506 66.96 260.901 66.896 261.263 66.768C261.626 66.64 261.951 66.448 262.239 66.192V64.784C261.93 64.6133 261.605 64.4907 261.263 64.416C260.922 64.3307 260.549 64.288 260.143 64.288C259.567 64.288 259.109 64.4107 258.767 64.656C258.426 64.9013 258.255 65.2267 258.255 65.632ZM266.611 56.448V68H265.011V56.8L266.611 56.448ZM268.655 58.544C268.389 58.544 268.159 58.448 267.967 58.256C267.775 58.0533 267.679 57.8187 267.679 57.552C267.679 57.2853 267.775 57.056 267.967 56.864C268.159 56.6613 268.389 56.56 268.655 56.56C268.922 56.56 269.151 56.6613 269.343 56.864C269.546 57.056 269.647 57.2853 269.647 57.552C269.647 57.8187 269.546 58.0533 269.343 58.256C269.151 58.448 268.922 58.544 268.655 58.544ZM269.455 59.856V68H267.855V59.856H269.455ZM271.756 65.984V61.2H270.028V59.856H271.756V57.776L273.34 57.392V59.856H275.74V61.2H273.34V65.616C273.34 66.032 273.43 66.3253 273.612 66.496C273.804 66.6667 274.113 66.752 274.54 66.752C274.764 66.752 274.961 66.7413 275.132 66.72C275.313 66.688 275.505 66.6347 275.708 66.56V67.904C275.494 67.9787 275.244 68.0373 274.956 68.08C274.678 68.1227 274.422 68.144 274.188 68.144C273.398 68.144 272.796 67.9627 272.38 67.6C271.964 67.2267 271.756 66.688 271.756 65.984ZM278.467 68.768L278.787 68.032L275.539 59.856H277.299L279.683 66.08L282.307 59.856H284.035L280.099 68.976C279.725 69.84 279.299 70.4587 278.819 70.832C278.339 71.216 277.725 71.408 276.979 71.408C276.808 71.408 276.648 71.3973 276.499 71.376C276.36 71.3653 276.237 71.344 276.131 71.312V69.904C276.237 69.9253 276.344 69.9413 276.451 69.952C276.568 69.9627 276.701 69.968 276.851 69.968C277.213 69.968 277.528 69.8667 277.795 69.664C278.072 69.472 278.296 69.1733 278.467 68.768Z" fill="white" fill-opacity="0.5"/>
<path d="M40.105 66.165C39.335 66.165 38.615 66.025 37.945 65.745C37.285 65.465 36.705 65.08 36.205 64.59C35.705 64.09 35.315 63.515 35.035 62.865C34.755 62.205 34.615 61.5 34.615 60.75C34.615 60 34.75 59.3 35.02 58.65C35.3 57.99 35.69 57.415 36.19 56.925C36.69 56.425 37.27 56.035 37.93 55.755C38.59 55.475 39.305 55.335 40.075 55.335C40.905 55.335 41.69 55.495 42.43 55.815C43.17 56.135 43.795 56.58 44.305 57.15L43.225 58.2C42.845 57.75 42.375 57.405 41.815 57.165C41.265 56.915 40.685 56.79 40.075 56.79C39.525 56.79 39.015 56.89 38.545 57.09C38.085 57.29 37.68 57.57 37.33 57.93C36.98 58.28 36.705 58.695 36.505 59.175C36.315 59.655 36.22 60.18 36.22 60.75C36.22 61.31 36.315 61.835 36.505 62.325C36.705 62.805 36.98 63.225 37.33 63.585C37.69 63.945 38.105 64.225 38.575 64.425C39.045 64.625 39.555 64.725 40.105 64.725C40.725 64.725 41.285 64.595 41.785 64.335C42.295 64.075 42.71 63.72 43.03 63.27C43.35 62.81 43.545 62.295 43.615 61.725H40.12V60.345H45.265V60.885C45.265 61.635 45.135 62.33 44.875 62.97C44.615 63.61 44.25 64.17 43.78 64.65C43.32 65.13 42.775 65.505 42.145 65.775C41.515 66.035 40.835 66.165 40.105 66.165ZM49.9906 66.15C49.2506 66.15 48.5756 65.975 47.9656 65.625C47.3656 65.275 46.8906 64.8 46.5406 64.2C46.1906 63.6 46.0156 62.93 46.0156 62.19C46.0156 61.45 46.1906 60.78 46.5406 60.18C46.8906 59.58 47.3656 59.105 47.9656 58.755C48.5756 58.395 49.2506 58.215 49.9906 58.215C50.7406 58.215 51.4156 58.395 52.0156 58.755C52.6156 59.105 53.0906 59.58 53.4406 60.18C53.7906 60.78 53.9656 61.45 53.9656 62.19C53.9656 62.93 53.7906 63.6 53.4406 64.2C53.0906 64.8 52.6156 65.275 52.0156 65.625C51.4156 65.975 50.7406 66.15 49.9906 66.15ZM49.9906 64.83C50.4606 64.83 50.8856 64.715 51.2656 64.485C51.6456 64.245 51.9456 63.925 52.1656 63.525C52.3856 63.125 52.4956 62.675 52.4956 62.175C52.4956 61.685 52.3806 61.245 52.1506 60.855C51.9306 60.455 51.6306 60.135 51.2506 59.895C50.8806 59.655 50.4606 59.535 49.9906 59.535C49.5206 59.535 49.0956 59.655 48.7156 59.895C48.3456 60.135 48.0456 60.455 47.8156 60.855C47.5956 61.245 47.4856 61.685 47.4856 62.175C47.4856 62.675 47.5956 63.125 47.8156 63.525C48.0356 63.925 48.3356 64.245 48.7156 64.485C49.0956 64.715 49.5206 64.83 49.9906 64.83ZM58.639 66.15C57.899 66.15 57.224 65.975 56.614 65.625C56.014 65.275 55.539 64.8 55.189 64.2C54.839 63.6 54.664 62.93 54.664 62.19C54.664 61.45 54.839 60.78 55.189 60.18C55.539 59.58 56.014 59.105 56.614 58.755C57.224 58.395 57.899 58.215 58.639 58.215C59.389 58.215 60.064 58.395 60.664 58.755C61.264 59.105 61.739 59.58 62.089 60.18C62.439 60.78 62.614 61.45 62.614 62.19C62.614 62.93 62.439 63.6 62.089 64.2C61.739 64.8 61.264 65.275 60.664 65.625C60.064 65.975 59.389 66.15 58.639 66.15ZM58.639 64.83C59.109 64.83 59.534 64.715 59.914 64.485C60.294 64.245 60.594 63.925 60.814 63.525C61.034 63.125 61.144 62.675 61.144 62.175C61.144 61.685 61.029 61.245 60.799 60.855C60.579 60.455 60.279 60.135 59.899 59.895C59.529 59.655 59.109 59.535 58.639 59.535C58.169 59.535 57.744 59.655 57.364 59.895C56.994 60.135 56.694 60.455 56.464 60.855C56.244 61.245 56.134 61.685 56.134 62.175C56.134 62.675 56.244 63.125 56.464 63.525C56.684 63.925 56.984 64.245 57.364 64.485C57.744 64.715 58.169 64.83 58.639 64.83ZM67.1675 66.12C66.4575 66.12 65.8075 65.945 65.2175 65.595C64.6275 65.245 64.1625 64.775 63.8225 64.185C63.4825 63.585 63.3125 62.915 63.3125 62.175C63.3125 61.435 63.4825 60.77 63.8225 60.18C64.1725 59.59 64.6425 59.12 65.2325 58.77C65.8225 58.42 66.4775 58.245 67.1975 58.245C67.6175 58.245 68.0225 58.31 68.4125 58.44C68.8025 58.57 69.1625 58.76 69.4925 59.01V55.5L70.9925 55.215V66H69.5075V65.265C68.8575 65.835 68.0775 66.12 67.1675 66.12ZM67.3625 64.815C67.8025 64.815 68.2025 64.735 68.5625 64.575C68.9325 64.415 69.2425 64.185 69.4925 63.885V60.45C69.2425 60.17 68.9325 59.95 68.5625 59.79C68.2025 59.62 67.8025 59.535 67.3625 59.535C66.8825 59.535 66.4475 59.65 66.0575 59.88C65.6675 60.11 65.3575 60.425 65.1275 60.825C64.8975 61.215 64.7825 61.66 64.7825 62.16C64.7825 62.66 64.8975 63.11 65.1275 63.51C65.3575 63.91 65.6675 64.23 66.0575 64.47C66.4475 64.7 66.8825 64.815 67.3625 64.815Z" fill="black"/>
<path d="M106.648 18.5124C105.843 20.3563 105.164 20.8545 105.071 20.9425C105.139 21.0071 106.151 21.8972 106.072 23.2159C105.991 24.5832 104.83 25.0011 104.207 25.0011C103.364 25.0011 102.734 24.4747 102.451 24.2749C102.375 24.2208 102.27 24.1342 102.17 24.0409C101.984 23.8673 101.879 23.6227 101.879 23.3674V21.4562C101.879 21.2721 101.977 21.102 102.135 21.0101L102.482 20.8089L102.135 20.6077C101.977 20.5158 101.879 20.3458 101.879 20.1617V18.2893C101.879 18.0089 102.013 17.7517 102.224 17.569C103.833 16.1824 106.138 15.7228 106.714 16.1586C107.133 16.4752 107.079 17.5262 106.648 18.5124H106.648Z" fill="#0ECCDA"/>
<path d="M96.3531 18.5124C97.1586 20.3563 97.8373 20.8545 97.9307 20.9425C97.8623 21.0071 96.8505 21.8972 96.929 23.2159C97.0103 24.5832 98.1713 25.0011 98.7939 25.0011C99.6371 25.0011 100.267 24.4747 100.55 24.2749C100.627 24.2208 100.731 24.1342 100.831 24.0409C101.017 23.8673 101.122 23.6227 101.122 23.3674V21.4562C101.122 21.2721 101.025 21.102 100.866 21.0101L100.52 20.8089L100.866 20.6077C101.025 20.5158 101.122 20.3458 101.122 20.1617V18.2893C101.122 18.0089 100.989 17.7517 100.777 17.569C99.168 16.1824 96.8637 15.7228 96.2872 16.1586C95.8683 16.4752 95.9225 17.5262 96.3531 18.5124Z" fill="#0ECCDA"/>
<path d="M199.599 40.554C199.352 40.7757 199.332 41.1551 199.554 41.4014C199.776 41.6477 200.155 41.6677 200.401 41.446L199.599 40.554ZM210.599 32.0315C210.617 31.7006 210.362 31.4182 210.032 31.4008L204.639 31.117C204.308 31.0996 204.026 31.3537 204.008 31.6846C203.991 32.0156 204.245 32.2979 204.576 32.3154L209.369 32.5676L209.117 37.361C209.1 37.6919 209.354 37.9743 209.685 37.9917C210.016 38.0091 210.298 37.755 210.315 37.4241L210.599 32.0315ZM200.401 41.446L210.401 32.446L209.599 31.554L199.599 40.554L200.401 41.446Z" fill="#47F9FA"/>
</svg>
