<svg width="22" height="18" viewBox="0 0 22 18" fill="none" xmlns="http://www.w3.org/2000/svg">
<path d="M20.3582 5.47677C18.8937 8.76251 17.6599 9.65021 17.4901 9.8071C17.6145 9.92218 19.454 11.5082 19.3111 13.8581C19.1633 16.2945 17.0527 17.0391 15.9208 17.0391C14.3878 17.0391 13.2424 16.1012 12.7281 15.7451C12.5888 15.6487 12.399 15.4943 12.2173 15.3281C11.8787 15.0187 11.6875 14.583 11.6875 14.1281V10.7223C11.6875 10.3943 11.8653 10.0914 12.1534 9.92759L12.7835 9.56907L12.1534 9.21054C11.8653 9.04677 11.6875 8.74382 11.6875 8.41579V5.0794C11.6875 4.57973 11.9307 4.12137 12.3156 3.79579C15.2407 1.32497 19.43 0.506122 20.4786 1.28268C21.24 1.84678 21.1417 3.71956 20.3587 5.47677H20.3582Z" stroke="#7FE2FB"/>
<path d="M1.64195 5.47677C3.10646 8.76251 4.34029 9.65021 4.51006 9.8071C4.38573 9.92218 2.54622 11.5082 2.68903 13.8581C2.83683 16.2945 4.94746 17.0391 6.07943 17.0391C7.61234 17.0391 8.75779 16.1012 9.27209 15.7451C9.4114 15.6487 9.60114 15.4943 9.78289 15.3281C10.1214 15.0187 10.3127 14.583 10.3127 14.1281V10.7223C10.3127 10.3943 10.1349 10.0914 9.84681 9.92759L9.21666 9.56907L9.84681 9.21054C10.1349 9.04677 10.3127 8.74382 10.3127 8.41579V5.0794C10.3127 4.57973 10.0695 4.12137 9.68453 3.79579C6.7595 1.32497 2.57019 0.506122 1.52211 1.28268C0.760649 1.84678 0.859015 3.71956 1.64195 5.47677Z" stroke="#7FE2FB"/>
</svg>
