<svg width="26" height="19" viewBox="0 0 26 19" fill="none" xmlns="http://www.w3.org/2000/svg">
<path d="M14.0654 0H6.8847C1.60858 0 0 1.60858 0 6.88476V11.6719C0 16.948 1.60858 18.5566 6.8847 18.5566H14.0654C19.3415 18.5566 20.9501 16.948 20.9501 11.6719V6.88476C20.9501 1.60858 19.3415 0 14.0654 0Z" fill="#292D32"/>
<path d="M23.7028 5.41929C23.5226 5.40642 23.291 5.39355 23.0336 5.39355C22.5317 5.39355 22.1328 5.79248 22.1328 6.29436V12.2783C22.1328 12.7802 22.5317 13.1791 23.0336 13.1791C23.291 13.1791 23.5098 13.1662 23.7285 13.1534C25.736 12.9217 25.736 11.5062 25.736 10.4767V8.08313C25.736 7.05364 25.736 5.63806 23.7028 5.41929Z" fill="#292D32"/>
</svg>
