<svg width="28" height="23" viewBox="0 0 28 23" fill="none" xmlns="http://www.w3.org/2000/svg">
<path d="M26.8727 6.21467C24.8396 10.7759 23.1268 12.0083 22.8912 12.226C23.0638 12.3858 25.6174 14.5876 25.4191 17.8496C25.2139 21.2318 22.2839 22.2655 20.7126 22.2655C18.5845 22.2655 16.9944 20.9635 16.2805 20.4692C16.0871 20.3354 15.8237 20.1211 15.5714 19.8903C15.1014 19.4609 14.8359 18.856 14.8359 18.2244V13.4966C14.8359 13.0412 15.0827 12.6207 15.4827 12.3933L16.3574 11.8956L15.4827 11.3979C15.0827 11.1706 14.8359 10.75 14.8359 10.2946V5.66303C14.8359 4.96939 15.1735 4.33309 15.7079 3.88113C19.7685 0.451129 25.5841 -0.685603 27.0397 0.392416C28.0968 1.1755 27.9602 3.77531 26.8734 6.21467H26.8727Z" fill="white"/>
<path d="M0.89116 6.21467C2.9242 10.7759 4.637 12.0083 4.87267 12.226C4.70008 12.3858 2.14647 14.5876 2.34472 17.8496C2.54989 21.2318 5.47988 22.2655 7.05128 22.2655C9.17928 22.2655 10.7694 20.9635 11.4833 20.4692C11.6767 20.3354 11.9401 20.1211 12.1924 19.8903C12.6624 19.4609 12.9279 18.856 12.9279 18.2244V13.4966C12.9279 13.0412 12.6811 12.6207 12.2812 12.3933L11.4064 11.8956L12.2812 11.3979C12.6811 11.1706 12.9279 10.75 12.9279 10.2946V5.66303C12.9279 4.96939 12.5903 4.33309 12.0559 3.88113C7.99536 0.451129 2.17975 -0.685603 0.724802 0.392416C-0.332268 1.1755 -0.195715 3.77531 0.89116 6.21467Z" fill="white"/>
</svg>
