<svg width="131" height="33" viewBox="0 0 131 33" fill="none" xmlns="http://www.w3.org/2000/svg">
<g clip-path="url(#clip0_217_16)">
<path d="M39.3656 9.21215C36.3871 15.973 33.8781 17.7986 33.5325 18.1211C33.7862 18.358 37.5258 21.621 37.2362 26.4567C36.9365 31.4696 32.6436 33.0006 30.3423 33.0006C27.2259 33.0006 24.8967 31.0715 23.8499 30.3388C23.5662 30.1398 23.1807 29.8232 22.8111 29.4808C22.1219 28.8437 21.7344 27.9479 21.7344 27.0122V20.0044C21.7344 19.3296 22.0959 18.7064 22.6813 18.37L23.9638 17.6314L22.6813 16.8948C22.0959 16.5583 21.7344 15.9332 21.7344 15.2603V8.39392C21.7344 7.36466 22.2298 6.423 23.0129 5.75209C28.9579 0.669502 37.4779 -1.01673 39.6094 0.581906C41.1575 1.74256 40.9578 5.59681 39.3656 9.21215Z" fill="black"/>
<path d="M1.30713 9.21215C4.28562 15.973 6.79468 17.7986 7.14027 18.1211C6.88657 18.358 3.14696 21.621 3.43662 26.4567C3.73627 31.4696 8.02922 33.0006 10.3305 33.0006C13.4469 33.0006 15.7761 31.0715 16.8229 30.3388C17.1066 30.1398 17.4921 29.8232 17.8617 29.4808C18.5509 28.8437 18.9384 27.9479 18.9384 27.0122V20.0044C18.9384 19.3296 18.5768 18.7064 17.9915 18.37L16.709 17.6314L17.9915 16.8948C18.5768 16.5583 18.9384 15.9332 18.9384 15.2603V8.39392C18.9384 7.36466 18.443 6.423 17.6599 5.75209C11.7129 0.669502 3.19291 -1.01673 1.06141 0.581906C-0.486766 1.74256 -0.287001 5.59681 1.30713 9.21215Z" fill="black"/>
<path d="M60.6576 20.6587C60.6576 21.3276 60.5498 21.9268 60.336 22.4584C60.1223 22.9919 59.8126 23.4458 59.4051 23.8221C58.9996 24.1984 58.5062 24.489 57.9289 24.6961C57.3515 24.9031 56.7063 25.0046 55.9931 25.0046H48.7656V10.2188H55.6076C57.1038 10.2188 58.2225 10.5731 58.9636 11.2838C59.7048 11.9946 60.0763 12.9741 60.0763 14.2243C60.0763 14.8494 59.9485 15.4069 59.6908 15.8966C59.4351 16.3863 59.0775 16.7945 58.622 17.121C59.2633 17.4475 59.7627 17.9053 60.1183 18.4946C60.4739 19.0839 60.6536 19.8046 60.6536 20.6567L60.6576 20.6587ZM51.5923 12.775V16.034H55.6116C56.097 16.034 56.5065 15.8847 56.8401 15.586C57.1757 15.2874 57.3415 14.8912 57.3415 14.3935C57.3415 13.8958 57.1877 13.5016 56.8821 13.211C56.5744 12.9203 56.1509 12.775 55.6096 12.775H51.5903H51.5923ZM57.771 20.5531C57.771 19.928 57.5813 19.4482 57.2037 19.1138C56.8261 18.7793 56.2728 18.6141 55.5477 18.6141H51.5923V22.4285H55.6116C55.8813 22.4285 56.1469 22.4006 56.4026 22.3429C56.6583 22.2852 56.8901 22.1836 57.0978 22.0343C57.3036 21.885 57.4674 21.6939 57.5893 21.459C57.7091 21.2241 57.771 20.9234 57.771 20.5531Z" fill="black"/>
<path d="M72.3521 25.0067H69.6572V24.0053C69.3156 24.4034 68.9081 24.712 68.4387 24.933C67.9692 25.154 67.4418 25.2635 66.8565 25.2635C66.2013 25.2635 65.606 25.146 65.0706 24.9111C64.5353 24.6762 64.0798 24.3497 63.7022 23.9316C63.3247 23.5135 63.031 23.0079 62.8253 22.4186C62.6175 21.8293 62.5156 21.1723 62.5156 20.4477V14.0332H65.3383V20.4477C65.3383 20.6049 65.3603 20.802 65.4022 21.0449C65.4442 21.2858 65.5381 21.5247 65.6799 21.7596C65.8217 21.9945 66.0295 22.1936 66.2992 22.3569C66.5689 22.5201 66.9324 22.6017 67.3899 22.6017C68.0311 22.6017 68.5485 22.3967 68.9401 21.9846C69.3316 21.5725 69.5274 21.0608 69.5274 20.4496V14.0352H72.3501V25.0087L72.3521 25.0067Z" fill="black"/>
<path d="M80.0713 24.9849C79.2583 25.0705 78.5451 25.0207 77.9338 24.8355C77.3206 24.6504 76.8072 24.3538 76.3936 23.9417C75.9801 23.5296 75.6665 23.0219 75.4528 22.4187C75.239 21.8154 75.1311 21.1366 75.1311 20.384V16.5278H73.8047V14.0353H75.1311V11.2441H77.9538V14.0353H79.9415V16.5278H77.9538V20.4059C77.9538 21.1724 78.1276 21.7139 78.4772 22.0265C78.8268 22.339 79.3562 22.4744 80.0693 22.4306V24.9868L80.0713 24.9849Z" fill="black"/>
<path d="M86.8272 24.9849C86.0141 25.0705 85.301 25.0207 84.6897 24.8355C84.0764 24.6504 83.563 24.3538 83.1495 23.9417C82.736 23.5296 82.4224 23.0219 82.2086 22.4187C81.9949 21.8154 81.887 21.1366 81.887 20.384V16.5278H80.5605V14.0353H81.887V11.2441H84.7097V14.0353H86.6973V16.5278H84.7097V20.4059C84.7097 21.1724 84.8835 21.7139 85.2331 22.0265C85.5826 22.339 86.112 22.4744 86.8252 22.4306V24.9868L86.8272 24.9849Z" fill="black"/>
<path d="M90.6538 20.6182C90.8396 21.301 91.1772 21.8326 91.6686 22.2168C92.16 22.601 92.7413 22.7922 93.4105 22.7922C93.88 22.7922 94.3255 22.6886 94.747 22.4836C95.1665 22.2785 95.4981 21.954 95.7418 21.514H98.7563C98.4286 22.6369 97.8054 23.5427 96.8845 24.2315C95.9655 24.9204 94.8129 25.2648 93.4305 25.2648C92.6614 25.2648 91.9343 25.1155 91.2491 24.8168C90.5659 24.5182 89.9666 24.1101 89.4532 23.5925C88.9398 23.0729 88.5343 22.4657 88.2346 21.7709C87.935 21.0761 87.7852 20.3295 87.7852 19.5332C87.7852 18.7368 87.935 17.9883 88.2346 17.2855C88.5343 16.5828 88.9398 15.9716 89.4532 15.454C89.9666 14.9344 90.5659 14.5242 91.2491 14.2177C91.9343 13.9131 92.6594 13.7598 93.4305 13.7598C94.2436 13.7598 95.0087 13.9131 95.7298 14.2177C96.449 14.5223 97.0662 14.9702 97.5796 15.5595C98.093 16.1488 98.4786 16.8694 98.7343 17.7215C98.99 18.5736 99.0699 19.5391 98.97 20.6202H90.6518L90.6538 20.6182ZM96.1693 18.3168C95.9975 17.6777 95.6659 17.1701 95.1745 16.7938C94.683 16.4175 94.0957 16.2284 93.4105 16.2284C92.7693 16.2284 92.206 16.4175 91.7205 16.7938C91.2351 17.1701 90.8935 17.6777 90.6937 18.3168H96.1673H96.1693Z" fill="black"/>
<path d="M107.182 16.5464C106.611 16.4747 106.099 16.4866 105.642 16.5782C105.187 16.6698 104.793 16.8868 104.465 17.2272C104.166 17.5398 103.974 17.9061 103.888 18.3242C103.802 18.7422 103.76 19.1723 103.76 19.6142V25.0054H100.938V14.0319H103.632V15.1189C104.088 14.5655 104.627 14.1813 105.246 13.9682C105.866 13.7552 106.511 13.7054 107.182 13.8189V16.5464Z" fill="black"/>
<path d="M113.746 14.0759V16.5684H111.759V25.0056H108.936V16.5684H107.609V14.0759H108.936C108.95 13.3652 109.064 12.7082 109.277 12.105C109.491 11.5018 109.809 10.9901 110.228 10.5701C110.648 10.152 111.161 9.8434 111.768 9.64233C112.374 9.44324 113.069 9.3875 113.854 9.47111V12.1129C113.169 12.0572 112.649 12.1767 112.294 12.4753C111.938 12.7739 111.759 13.3055 111.759 14.0739H113.746V14.0759Z" fill="black"/>
<path d="M118.323 25.0073H115.5V9.1543H118.323V25.0073Z" fill="black"/>
<path d="M126.124 27.0095C125.853 27.7202 125.547 28.2876 125.205 28.7137C124.864 29.1397 124.482 29.4622 124.061 29.6832C123.639 29.9042 123.178 30.0376 122.67 30.0873C122.165 30.1371 121.626 30.1411 121.056 30.0973V27.5411C121.412 27.5689 121.724 27.563 121.987 27.5192C122.251 27.4774 122.483 27.3977 122.682 27.2842C122.882 27.1708 123.056 27.0115 123.206 26.8045C123.356 26.5974 123.488 26.3386 123.601 26.026L123.921 25.1959L119.666 14.0293H122.658L125.353 21.9568L127.982 14.0293H130.997L126.122 27.0055L126.124 27.0095Z" fill="black"/>
</g>
<defs>
<clipPath id="clip0_217_16">
<rect width="131" height="33" fill="white"/>
</clipPath>
</defs>
</svg>
