<svg width="41" height="33" viewBox="0 0 41 33" fill="none" xmlns="http://www.w3.org/2000/svg">
<path d="M39.3656 9.21215C36.3871 15.973 33.8781 17.7986 33.5325 18.1211C33.7862 18.358 37.5258 21.621 37.2362 26.4567C36.9365 31.4696 32.6436 33.0006 30.3423 33.0006C27.2259 33.0006 24.8967 31.0715 23.8499 30.3388C23.5662 30.1398 23.1807 29.8232 22.8111 29.4808C22.1219 28.8437 21.7344 27.9479 21.7344 27.0122V20.0044C21.7344 19.3296 22.0959 18.7064 22.6813 18.37L23.9638 17.6314L22.6813 16.8948C22.0959 16.5583 21.7344 15.9332 21.7344 15.2603V8.39392C21.7344 7.36466 22.2298 6.423 23.0129 5.75209C28.9579 0.669502 37.4779 -1.01673 39.6094 0.581906C41.1575 1.74256 40.9578 5.59681 39.3656 9.21215Z" fill="#00A3FF"/>
<path d="M1.30713 9.21215C4.28562 15.973 6.79468 17.7986 7.14027 18.1211C6.88657 18.358 3.14696 21.621 3.43662 26.4567C3.73627 31.4696 8.02922 33.0006 10.3305 33.0006C13.4469 33.0006 15.7761 31.0715 16.8229 30.3388C17.1066 30.1398 17.4921 29.8232 17.8617 29.4808C18.5509 28.8437 18.9384 27.9479 18.9384 27.0122V20.0044C18.9384 19.3296 18.5768 18.7064 17.9915 18.37L16.709 17.6314L17.9915 16.8948C18.5768 16.5583 18.9384 15.9332 18.9384 15.2603V8.39392C18.9384 7.36466 18.443 6.423 17.6599 5.75209C11.7129 0.669502 3.19291 -1.01673 1.06141 0.581906C-0.486766 1.74256 -0.287001 5.59681 1.30713 9.21215Z" fill="#00A3FF"/>
</svg>
