<svg width="10" height="8" viewBox="0 0 10 8" fill="none" xmlns="http://www.w3.org/2000/svg">
<path d="M9.20142 2.12788C8.50531 3.68965 7.91885 4.11159 7.83816 4.18616C7.89725 4.24086 8.7716 4.99474 8.70372 6.11166C8.63347 7.26972 7.63025 7.62363 7.09221 7.62363C6.36359 7.62363 5.81914 7.17785 5.57469 7.0086C5.50847 6.96279 5.41828 6.88938 5.33189 6.81037C5.17098 6.66334 5.08008 6.45622 5.08008 6.23999V4.62119C5.08008 4.46527 5.16457 4.32127 5.30151 4.24343L5.60103 4.07302L5.30151 3.90261C5.16457 3.82476 5.08008 3.68077 5.08008 3.52485V1.939C5.08008 1.7015 5.19566 1.48364 5.37865 1.32889C6.76896 0.154465 8.76021 -0.234748 9.25861 0.134362C9.62055 0.402487 9.5738 1.29265 9.20165 2.12788H9.20142Z" fill="#292D32"/>
<path d="M0.30513 2.12788C1.00124 3.68965 1.58769 4.11159 1.66839 4.18616C1.60929 4.24086 0.734946 4.99474 0.802824 6.11166C0.873075 7.26972 1.87629 7.62363 2.41433 7.62363C3.14296 7.62363 3.6874 7.17785 3.93186 7.0086C3.99808 6.96279 4.08826 6.88938 4.17465 6.81037C4.33557 6.66334 4.42647 6.45622 4.42647 6.23999V4.62119C4.42647 4.46527 4.34198 4.32127 4.20503 4.24343L3.90552 4.07302L4.20503 3.90261C4.34198 3.82476 4.42647 3.68077 4.42647 3.52485V1.939C4.42647 1.7015 4.31089 1.48364 4.1279 1.32889C2.73759 0.154465 0.746338 -0.234748 0.24817 0.134362C-0.113767 0.402487 -0.0670123 1.29265 0.30513 2.12788Z" fill="#292D32"/>
</svg>
