<svg width="26" height="26" viewBox="0 0 26 26" fill="none" xmlns="http://www.w3.org/2000/svg">
<path d="M12.8681 0C5.76491 0 0 5.76491 0 12.8681C0 19.9713 5.76491 25.7362 12.8681 25.7362C19.9713 25.7362 25.7362 19.9713 25.7362 12.8681C25.7362 5.76491 19.9713 0 12.8681 0ZM8.40286 14.7597C8.77604 15.1329 8.77604 15.7505 8.40286 16.1237C8.20984 16.3167 7.96535 16.4068 7.72086 16.4068C7.47636 16.4068 7.23187 16.3167 7.03885 16.1237L4.46523 13.5501C4.09205 13.1769 4.09205 12.5593 4.46523 12.1861L7.03885 9.61247C7.41202 9.23929 8.02969 9.23929 8.40286 9.61247C8.77604 9.98564 8.77604 10.6033 8.40286 10.9765L6.51126 12.8681L8.40286 14.7597ZM15.0428 10.243L12.4692 16.2524C12.3148 16.6127 11.9545 16.8315 11.5813 16.8315C11.4526 16.8315 11.3239 16.8057 11.2081 16.7543C10.7191 16.5484 10.4875 15.9822 10.7063 15.4803L13.2799 9.47092C13.4858 8.98193 14.052 8.7503 14.5409 8.96906C15.0299 9.18782 15.2487 9.75401 15.0428 10.243ZM21.271 13.5501L18.6973 16.1237C18.5043 16.3167 18.2598 16.4068 18.0153 16.4068C17.7708 16.4068 17.5263 16.3167 17.3333 16.1237C16.9601 15.7505 16.9601 15.1329 17.3333 14.7597L19.2249 12.8681L17.3333 10.9765C16.9601 10.6033 16.9601 9.98564 17.3333 9.61247C17.7065 9.23929 18.3242 9.23929 18.6973 9.61247L21.271 12.1861C21.6441 12.5593 21.6441 13.1769 21.271 13.5501Z" fill="#292D32"/>
</svg>
