<svg width="26" height="30" viewBox="0 0 26 30" fill="none" xmlns="http://www.w3.org/2000/svg">
<path opacity="0.4" d="M25.5 7.5V19.5H4.275C1.92 19.5 0 21.42 0 23.775V7.5C0 1.5 1.5 0 7.5 0H18C24 0 25.5 1.5 25.5 7.5Z" fill="#292D32"/>
<path d="M25.5 19.5V24.75C25.5 27.645 23.145 30 20.25 30H5.25C2.355 30 0 27.645 0 24.75V23.775C0 21.42 1.92 19.5 4.275 19.5H25.5Z" fill="#292D32"/>
<path d="M18.75 8.625H6.75C6.135 8.625 5.625 8.115 5.625 7.5C5.625 6.885 6.135 6.375 6.75 6.375H18.75C19.365 6.375 19.875 6.885 19.875 7.5C19.875 8.115 19.365 8.625 18.75 8.625Z" fill="#292D32"/>
<path d="M14.25 13.875H6.75C6.135 13.875 5.625 13.365 5.625 12.75C5.625 12.135 6.135 11.625 6.75 11.625H14.25C14.865 11.625 15.375 12.135 15.375 12.75C15.375 13.365 14.865 13.875 14.25 13.875Z" fill="#292D32"/>
</svg>
