<svg width="24" height="25" viewBox="0 0 24 25" fill="none" xmlns="http://www.w3.org/2000/svg">
<path d="M22.3835 10.1845H18.7897C15.8426 10.1845 13.4426 7.7845 13.4426 4.83733V1.24353C13.4426 0.559589 12.883 0 12.199 0H6.92646C3.09639 0 0 2.48706 0 6.92647V17.9441C0 22.3835 3.09639 24.8706 6.92646 24.8706H16.7006C20.5307 24.8706 23.6271 22.3835 23.6271 17.9441V11.428C23.6271 10.7441 23.0675 10.1845 22.3835 10.1845ZM11.2291 14.3379C11.0426 14.5244 10.8063 14.6115 10.57 14.6115C10.3337 14.6115 10.0975 14.5244 9.91094 14.3379L9.0156 13.4426V18.653C9.0156 19.1628 8.5928 19.5856 8.08295 19.5856C7.5731 19.5856 7.1503 19.1628 7.1503 18.653V13.4426L6.25496 14.3379C5.89433 14.6985 5.29744 14.6985 4.93682 14.3379C4.57619 13.9773 4.57619 13.3804 4.93682 13.0198L7.42388 10.5327C7.51092 10.4581 7.59797 10.3959 7.69745 10.3462C7.72232 10.3337 7.75963 10.3213 7.7845 10.3089C7.85911 10.284 7.93372 10.2716 8.02077 10.2591H8.12025C8.21974 10.2591 8.31922 10.284 8.4187 10.3213H8.44357C8.54305 10.3586 8.64254 10.4332 8.71715 10.5078C8.72958 10.5203 8.74202 10.5203 8.74202 10.5327L11.2291 13.0198C11.5897 13.3804 11.5897 13.9773 11.2291 14.3379Z" fill="#292D32"/>
<path d="M18.5662 8.46914C19.7475 8.48158 21.389 8.48158 22.7942 8.48158C23.503 8.48158 23.8761 7.64841 23.3787 7.151C21.588 5.34788 18.3797 2.10227 16.5392 0.261841C16.0294 -0.248006 15.1465 0.100182 15.1465 0.808994V5.14892C15.1465 6.96447 16.6885 8.46914 18.5662 8.46914Z" fill="#292D32"/>
</svg>
