<svg width="25" height="25" viewBox="0 0 25 25" fill="none" xmlns="http://www.w3.org/2000/svg">
<path d="M23.5327 7.71763L14.8872 0.806233C13.5523 -0.266656 11.3941 -0.266656 10.0717 0.793757L1.42619 7.71763C0.453102 8.49111 -0.170671 10.1253 0.0414119 11.3479L1.70065 21.2784C2.00006 23.0499 3.69672 24.4846 5.49318 24.4846H19.4657C21.2497 24.4846 22.9588 23.0374 23.2582 21.2784L24.9175 11.3479C25.1171 10.1253 24.4933 8.49111 23.5327 7.71763ZM12.4794 16.6126C10.7578 16.6126 9.36057 15.2153 9.36057 13.4937C9.36057 11.7721 10.7578 10.3748 12.4794 10.3748C14.2011 10.3748 15.5983 11.7721 15.5983 13.4937C15.5983 15.2153 14.2011 16.6126 12.4794 16.6126Z" fill="#292D32"/>
</svg>
