<svg width="320" height="141" viewBox="0 0 320 141" fill="none" xmlns="http://www.w3.org/2000/svg">
<g filter="url(#filter0_b_357_442)">
<rect width="320" height="125" rx="12" fill="black" fill-opacity="0.45"/>
<path d="M269.801 24V16.8984H269.702L267.575 18.416V17.127L269.801 15.5449H271.114V24H269.801ZM273.449 24V15.1406H274.72V18.6035H274.814C275.125 17.9238 275.734 17.5137 276.66 17.5137C278.084 17.5137 278.869 18.3633 278.869 19.8809V24H277.603V20.1797C277.603 19.125 277.164 18.6035 276.232 18.6035C275.3 18.6035 274.72 19.2422 274.72 20.2676V24H273.449ZM285.431 24.1055C284.219 24.1055 283.322 23.3672 283.322 22.2129V22.2012C283.322 21.0645 284.177 20.4023 285.695 20.3086L287.418 20.209V19.6465C287.418 18.9492 286.978 18.5625 286.117 18.5625C285.414 18.5625 284.951 18.8203 284.799 19.2715L284.793 19.2949H283.568L283.574 19.2539C283.726 18.2109 284.728 17.5137 286.176 17.5137C287.775 17.5137 288.677 18.3105 288.677 19.6465V24H287.418V23.0977H287.318C286.943 23.7422 286.275 24.1055 285.431 24.1055ZM284.588 22.1602C284.588 22.7461 285.086 23.0918 285.771 23.0918C286.72 23.0918 287.418 22.4707 287.418 21.6504V21.1055L285.865 21.2051C284.986 21.2578 284.588 21.5742 284.588 22.1484V22.1602ZM293.04 26.2441C291.423 26.2441 290.427 25.5352 290.274 24.4746L290.286 24.4629H291.569L291.575 24.4746C291.681 24.9141 292.196 25.2246 293.057 25.2246C294.106 25.2246 294.727 24.7324 294.727 23.8652V22.6113H294.634C294.247 23.3027 293.544 23.6895 292.671 23.6895C291.036 23.6895 290.028 22.4297 290.028 20.6367V20.625C290.028 18.8086 291.042 17.5254 292.694 17.5254C293.585 17.5254 294.276 17.9648 294.645 18.6797H294.722V17.6367H295.987V23.8711C295.987 25.3184 294.845 26.2441 293.04 26.2441ZM293.022 22.6406C294.1 22.6406 294.751 21.8203 294.751 20.6309V20.6191C294.751 19.4355 294.095 18.6035 293.022 18.6035C291.938 18.6035 291.329 19.4355 291.329 20.6191V20.6309C291.329 21.8145 291.938 22.6406 293.022 22.6406ZM300.391 24.123C298.521 24.123 297.379 22.875 297.379 20.8242V20.8125C297.379 18.7676 298.527 17.5137 300.391 17.5137C302.248 17.5137 303.396 18.7617 303.396 20.8125V20.8242C303.396 22.875 302.254 24.123 300.391 24.123ZM300.391 23.0625C301.48 23.0625 302.102 22.2305 302.102 20.8242V20.8125C302.102 19.4004 301.48 18.5742 300.391 18.5742C299.295 18.5742 298.68 19.4004 298.68 20.8125V20.8242C298.68 22.2363 299.295 23.0625 300.391 23.0625Z" fill="white" fill-opacity="0.2"/>
<path d="M269.801 24V16.8984H269.702L267.575 18.416V17.127L269.801 15.5449H271.114V24H269.801ZM273.449 24V15.1406H274.72V18.6035H274.814C275.125 17.9238 275.734 17.5137 276.66 17.5137C278.084 17.5137 278.869 18.3633 278.869 19.8809V24H277.603V20.1797C277.603 19.125 277.164 18.6035 276.232 18.6035C275.3 18.6035 274.72 19.2422 274.72 20.2676V24H273.449ZM285.431 24.1055C284.219 24.1055 283.322 23.3672 283.322 22.2129V22.2012C283.322 21.0645 284.177 20.4023 285.695 20.3086L287.418 20.209V19.6465C287.418 18.9492 286.978 18.5625 286.117 18.5625C285.414 18.5625 284.951 18.8203 284.799 19.2715L284.793 19.2949H283.568L283.574 19.2539C283.726 18.2109 284.728 17.5137 286.176 17.5137C287.775 17.5137 288.677 18.3105 288.677 19.6465V24H287.418V23.0977H287.318C286.943 23.7422 286.275 24.1055 285.431 24.1055ZM284.588 22.1602C284.588 22.7461 285.086 23.0918 285.771 23.0918C286.72 23.0918 287.418 22.4707 287.418 21.6504V21.1055L285.865 21.2051C284.986 21.2578 284.588 21.5742 284.588 22.1484V22.1602ZM293.04 26.2441C291.423 26.2441 290.427 25.5352 290.274 24.4746L290.286 24.4629H291.569L291.575 24.4746C291.681 24.9141 292.196 25.2246 293.057 25.2246C294.106 25.2246 294.727 24.7324 294.727 23.8652V22.6113H294.634C294.247 23.3027 293.544 23.6895 292.671 23.6895C291.036 23.6895 290.028 22.4297 290.028 20.6367V20.625C290.028 18.8086 291.042 17.5254 292.694 17.5254C293.585 17.5254 294.276 17.9648 294.645 18.6797H294.722V17.6367H295.987V23.8711C295.987 25.3184 294.845 26.2441 293.04 26.2441ZM293.022 22.6406C294.1 22.6406 294.751 21.8203 294.751 20.6309V20.6191C294.751 19.4355 294.095 18.6035 293.022 18.6035C291.938 18.6035 291.329 19.4355 291.329 20.6191V20.6309C291.329 21.8145 291.938 22.6406 293.022 22.6406ZM300.391 24.123C298.521 24.123 297.379 22.875 297.379 20.8242V20.8125C297.379 18.7676 298.527 17.5137 300.391 17.5137C302.248 17.5137 303.396 18.7617 303.396 20.8125V20.8242C303.396 22.875 302.254 24.123 300.391 24.123ZM300.391 23.0625C301.48 23.0625 302.102 22.2305 302.102 20.8242V20.8125C302.102 19.4004 301.48 18.5742 300.391 18.5742C299.295 18.5742 298.68 19.4004 298.68 20.8125V20.8242C298.68 22.2363 299.295 23.0625 300.391 23.0625Z" fill="white" fill-opacity="0.7" style="mix-blend-mode:overlay"/>
<path d="M38.0605 24V15.5449H39.5723L42.2676 22.2891H42.3613L45.0566 15.5449H46.5684V24H45.373V17.7949H45.2852L42.8008 24H41.8281L39.3496 17.7949H39.2559V24H38.0605ZM50.8956 24V20.5371L47.9191 15.5449H49.378L51.505 19.2305H51.6046L53.7316 15.5449H55.1905L52.2081 20.5371V24H50.8956ZM59.7084 24V15.5449H63.1068C64.6947 15.5449 65.6498 16.3535 65.6498 17.6484V17.6602C65.6498 18.5391 64.9994 19.3301 64.1673 19.4707V19.5703C65.3099 19.6934 66.0716 20.502 66.0716 21.6035V21.6152C66.0716 23.0977 64.9877 24 63.183 24H59.7084ZM62.8021 16.6172H61.0209V19.1426H62.5795C63.7396 19.1426 64.3431 18.709 64.3431 17.8887V17.877C64.3431 17.0801 63.7748 16.6172 62.8021 16.6172ZM62.8431 20.1445H61.0209V22.9277H62.9193C64.1029 22.9277 64.7298 22.4414 64.7298 21.5332V21.5215C64.7298 20.6133 64.0795 20.1445 62.8431 20.1445ZM71.0552 24.2051C68.9341 24.2051 67.6274 22.9453 67.6274 21.0879V15.5449H68.9399V20.9883C68.9399 22.2129 69.7075 23.0449 71.0552 23.0449C72.4028 23.0449 73.1645 22.2129 73.1645 20.9883V15.5449H74.477V21.0879C74.477 22.9453 73.1821 24.2051 71.0552 24.2051ZM78.6168 24V16.6758H75.9566V15.5449H82.5836V16.6758H79.9293V24H78.6168ZM86.2195 24V16.6758H83.5593V15.5449H90.1862V16.6758H87.532V24H86.2195ZM91.6776 24V15.5449H97.0448V16.6758H92.9901V19.1484H96.828V20.2383H92.9901V22.8691H97.0448V24H91.6776ZM98.8232 24V15.5449H102.157C103.892 15.5449 104.97 16.5527 104.97 18.123V18.1348C104.97 19.2715 104.36 20.1973 103.329 20.543L105.228 24H103.71L101.987 20.748H100.136V24H98.8232ZM100.136 19.6816H102.028C103.036 19.6816 103.622 19.1309 103.622 18.1699V18.1582C103.622 17.2207 103.001 16.6465 101.987 16.6465H100.136V19.6816ZM106.719 24V15.5449H111.998V16.6758H108.031V19.3535H111.664V20.4609H108.031V24H106.719ZM113.583 24V15.5449H114.896V22.8691H118.857V24H113.583ZM121.602 24V20.5371L118.625 15.5449H120.084L122.211 19.2305H122.311L124.438 15.5449H125.897L122.914 20.5371V24H121.602Z" fill="white" fill-opacity="0.2"/>
<path d="M38.0605 24V15.5449H39.5723L42.2676 22.2891H42.3613L45.0566 15.5449H46.5684V24H45.373V17.7949H45.2852L42.8008 24H41.8281L39.3496 17.7949H39.2559V24H38.0605ZM50.8956 24V20.5371L47.9191 15.5449H49.378L51.505 19.2305H51.6046L53.7316 15.5449H55.1905L52.2081 20.5371V24H50.8956ZM59.7084 24V15.5449H63.1068C64.6947 15.5449 65.6498 16.3535 65.6498 17.6484V17.6602C65.6498 18.5391 64.9994 19.3301 64.1673 19.4707V19.5703C65.3099 19.6934 66.0716 20.502 66.0716 21.6035V21.6152C66.0716 23.0977 64.9877 24 63.183 24H59.7084ZM62.8021 16.6172H61.0209V19.1426H62.5795C63.7396 19.1426 64.3431 18.709 64.3431 17.8887V17.877C64.3431 17.0801 63.7748 16.6172 62.8021 16.6172ZM62.8431 20.1445H61.0209V22.9277H62.9193C64.1029 22.9277 64.7298 22.4414 64.7298 21.5332V21.5215C64.7298 20.6133 64.0795 20.1445 62.8431 20.1445ZM71.0552 24.2051C68.9341 24.2051 67.6274 22.9453 67.6274 21.0879V15.5449H68.9399V20.9883C68.9399 22.2129 69.7075 23.0449 71.0552 23.0449C72.4028 23.0449 73.1645 22.2129 73.1645 20.9883V15.5449H74.477V21.0879C74.477 22.9453 73.1821 24.2051 71.0552 24.2051ZM78.6168 24V16.6758H75.9566V15.5449H82.5836V16.6758H79.9293V24H78.6168ZM86.2195 24V16.6758H83.5593V15.5449H90.1862V16.6758H87.532V24H86.2195ZM91.6776 24V15.5449H97.0448V16.6758H92.9901V19.1484H96.828V20.2383H92.9901V22.8691H97.0448V24H91.6776ZM98.8232 24V15.5449H102.157C103.892 15.5449 104.97 16.5527 104.97 18.123V18.1348C104.97 19.2715 104.36 20.1973 103.329 20.543L105.228 24H103.71L101.987 20.748H100.136V24H98.8232ZM100.136 19.6816H102.028C103.036 19.6816 103.622 19.1309 103.622 18.1699V18.1582C103.622 17.2207 103.001 16.6465 101.987 16.6465H100.136V19.6816ZM106.719 24V15.5449H111.998V16.6758H108.031V19.3535H111.664V20.4609H108.031V24H106.719ZM113.583 24V15.5449H114.896V22.8691H118.857V24H113.583ZM121.602 24V20.5371L118.625 15.5449H120.084L122.211 19.2305H122.311L124.438 15.5449H125.897L122.914 20.5371V24H121.602Z" fill="white" fill-opacity="0.7" style="mix-blend-mode:overlay"/>
<path d="M13.1963 51V41.1357H15.2607V45.1416H19.7041V41.1357H21.7686V51H19.7041V46.8438H15.2607V51H13.1963ZM26.3112 51.1572C24.6227 51.1572 23.7545 50.1318 23.7545 48.3408V43.4736H25.7506V47.8828C25.7506 48.9492 26.1539 49.5029 27.0973 49.5029C28.0817 49.5029 28.6149 48.8398 28.6149 47.8213V43.4736H30.611V51H28.6149V49.8379H28.4918C28.15 50.6582 27.3844 51.1572 26.3112 51.1572ZM32.4739 51V43.4736H34.47V44.6494H34.593C34.9143 43.8018 35.6936 43.3096 36.678 43.3096C37.7034 43.3096 38.4622 43.8291 38.7698 44.6973H38.8929C39.2346 43.8633 40.1096 43.3096 41.1624 43.3096C42.6595 43.3096 43.596 44.2803 43.596 45.832V51H41.5999V46.3311C41.5999 45.4219 41.1897 44.9639 40.3557 44.9639C39.5491 44.9639 39.0296 45.5586 39.0296 46.3721V51H37.0335V46.2422C37.0335 45.4355 36.5755 44.9639 35.7962 44.9639C35.0169 44.9639 34.47 45.5996 34.47 46.4609V51H32.4739ZM46.4091 42.3184C45.7939 42.3184 45.2812 41.8262 45.2812 41.2109C45.2812 40.5889 45.7939 40.0967 46.4091 40.0967C47.0243 40.0967 47.5302 40.5889 47.5302 41.2109C47.5302 41.8262 47.0243 42.3184 46.4091 42.3184ZM45.4042 51V43.4736H47.4003V51H45.4042ZM51.9566 51.1162C50.0767 51.1162 48.9009 49.6465 48.9009 47.2402V47.2266C48.9009 44.8066 50.0494 43.3506 51.9566 43.3506C52.9888 43.3506 53.8296 43.8564 54.2056 44.6768H54.3287V40.5957H56.3248V51H54.3287V49.8311H54.2056C53.816 50.6445 53.0162 51.1162 51.9566 51.1162ZM52.6334 49.4619C53.6929 49.4619 54.3492 48.6279 54.3492 47.2471V47.2334C54.3492 45.8525 53.6861 45.0049 52.6334 45.0049C51.5806 45.0049 50.9312 45.8525 50.9312 47.2266V47.2402C50.9312 48.6279 51.5806 49.4619 52.6334 49.4619ZM59.2678 42.3184C58.6525 42.3184 58.1398 41.8262 58.1398 41.2109C58.1398 40.5889 58.6525 40.0967 59.2678 40.0967C59.883 40.0967 60.3889 40.5889 60.3889 41.2109C60.3889 41.8262 59.883 42.3184 59.2678 42.3184ZM58.2629 51V43.4736H60.259V51H58.2629ZM62.7098 51V44.9775H61.493V43.4736H62.7098V42.7695C62.7098 41.2725 63.4754 40.5205 65.2938 40.5205C65.6971 40.5205 66.0321 40.5479 66.3192 40.5957V41.9287C66.1961 41.9082 65.9842 41.8877 65.7245 41.8877C64.952 41.8877 64.6649 42.25 64.6649 42.9062V43.4736H66.2577V44.9775H64.7059V51H62.7098ZM68.7221 42.3184C68.1069 42.3184 67.5942 41.8262 67.5942 41.2109C67.5942 40.5889 68.1069 40.0967 68.7221 40.0967C69.3374 40.0967 69.8432 40.5889 69.8432 41.2109C69.8432 41.8262 69.3374 42.3184 68.7221 42.3184ZM67.7173 51V43.4736H69.7134V51H67.7173ZM74.8917 51.1572C72.6017 51.1572 71.214 49.6602 71.214 47.2471V47.2402C71.214 44.8477 72.6154 43.3096 74.8097 43.3096C77.004 43.3096 78.3712 44.8135 78.3712 47.0898V47.7119H73.1896C73.2101 48.9492 73.8732 49.667 74.9327 49.667C75.8077 49.667 76.2931 49.2021 76.4298 48.915L76.4503 48.874H78.3097L78.296 48.9424C78.0636 49.8857 77.0929 51.1572 74.8917 51.1572ZM74.8439 44.8066C73.9757 44.8066 73.3331 45.3945 73.2101 46.4609H76.4571C76.3341 45.3672 75.712 44.8066 74.8439 44.8066ZM79.865 51V43.4736H81.8611V44.6426H81.9841C82.2234 43.8291 82.907 43.3506 83.8845 43.3506C84.1511 43.3506 84.4314 43.3916 84.6296 43.4463V45.1895C84.3289 45.1211 84.0212 45.0732 83.7136 45.0732C82.5789 45.0732 81.8611 45.7227 81.8611 46.7891V51H79.865ZM92.4161 51.0273C90.584 51.0273 89.8457 50.4326 89.8457 48.9697V44.9775H88.6836V43.4736H89.8457V41.6758H91.8623V43.4736H93.4141V44.9775H91.8623V48.5117C91.8623 49.1885 92.1495 49.4893 92.8262 49.4893C93.086 49.4893 93.2227 49.4756 93.4141 49.4551V50.9385C93.168 50.9863 92.7989 51.0273 92.4161 51.0273ZM97.4235 51.1572C95.735 51.1572 94.8669 50.1318 94.8669 48.3408V43.4736H96.863V47.8828C96.863 48.9492 97.2663 49.5029 98.2096 49.5029C99.194 49.5029 99.7272 48.8398 99.7272 47.8213V43.4736H101.723V51H99.7272V49.8379H99.6042C99.2624 50.6582 98.4968 51.1572 97.4235 51.1572ZM103.586 51V43.4736H105.582V44.6426H105.705C105.945 43.8291 106.628 43.3506 107.606 43.3506C107.872 43.3506 108.153 43.3916 108.351 43.4463V45.1895C108.05 45.1211 107.743 45.0732 107.435 45.0732C106.3 45.0732 105.582 45.7227 105.582 46.7891V51H103.586ZM109.612 51V43.4736H111.608V44.6357H111.731C112.073 43.8223 112.818 43.3096 113.892 43.3096C115.566 43.3096 116.469 44.335 116.469 46.1328V51H114.473V46.584C114.473 45.5244 114.035 44.9639 113.092 44.9639C112.169 44.9639 111.608 45.627 111.608 46.6455V51H109.612ZM121.572 51.1572C119.282 51.1572 117.894 49.6602 117.894 47.2471V47.2402C117.894 44.8477 119.296 43.3096 121.49 43.3096C123.684 43.3096 125.051 44.8135 125.051 47.0898V47.7119H119.87C119.89 48.9492 120.553 49.667 121.613 49.667C122.488 49.667 122.973 49.2021 123.11 48.915L123.13 48.874H124.99L124.976 48.9424C124.744 49.8857 123.773 51.1572 121.572 51.1572ZM121.524 44.8066C120.656 44.8066 120.013 45.3945 119.89 46.4609H123.137C123.014 45.3672 122.392 44.8066 121.524 44.8066ZM129.232 51.1162C127.352 51.1162 126.176 49.6465 126.176 47.2402V47.2266C126.176 44.8066 127.324 43.3506 129.232 43.3506C130.264 43.3506 131.105 43.8564 131.481 44.6768H131.604V40.5957H133.6V51H131.604V49.8311H131.481C131.091 50.6445 130.291 51.1162 129.232 51.1162ZM129.908 49.4619C130.968 49.4619 131.624 48.6279 131.624 47.2471V47.2334C131.624 45.8525 130.961 45.0049 129.908 45.0049C128.856 45.0049 128.206 45.8525 128.206 47.2266V47.2402C128.206 48.6279 128.856 49.4619 129.908 49.4619ZM142.336 51.1572C140.019 51.1572 138.625 49.6875 138.625 47.2402V47.2266C138.625 44.7998 140.04 43.3096 142.336 43.3096C144.633 43.3096 146.048 44.793 146.048 47.2266V47.2402C146.048 49.6943 144.654 51.1572 142.336 51.1572ZM142.336 49.5918C143.396 49.5918 144.004 48.7236 144.004 47.2402V47.2266C144.004 45.7568 143.389 44.875 142.336 44.875C141.277 44.875 140.668 45.7568 140.668 47.2266V47.2402C140.668 48.7236 141.27 49.5918 142.336 49.5918ZM148.116 51V44.9775H146.9V43.4736H148.116V42.7695C148.116 41.2725 148.882 40.5205 150.7 40.5205C151.104 40.5205 151.439 40.5479 151.726 40.5957V41.9287C151.603 41.9082 151.391 41.8877 151.131 41.8877C150.359 41.8877 150.071 42.25 150.071 42.9062V43.4736H151.664V44.9775H150.112V51H148.116ZM153.76 51V44.9775H152.543V43.4736H153.76V42.7695C153.76 41.2725 154.525 40.5205 156.344 40.5205C156.747 40.5205 157.082 40.5479 157.369 40.5957V41.9287C157.246 41.9082 157.034 41.8877 156.774 41.8877C156.002 41.8877 155.715 42.25 155.715 42.9062V43.4736H157.307V44.9775H155.756V51H153.76Z" fill="white" fill-opacity="0.5"/>
<path d="M13.1963 51V41.1357H15.2607V45.1416H19.7041V41.1357H21.7686V51H19.7041V46.8438H15.2607V51H13.1963ZM26.3112 51.1572C24.6227 51.1572 23.7545 50.1318 23.7545 48.3408V43.4736H25.7506V47.8828C25.7506 48.9492 26.1539 49.5029 27.0973 49.5029C28.0817 49.5029 28.6149 48.8398 28.6149 47.8213V43.4736H30.611V51H28.6149V49.8379H28.4918C28.15 50.6582 27.3844 51.1572 26.3112 51.1572ZM32.4739 51V43.4736H34.47V44.6494H34.593C34.9143 43.8018 35.6936 43.3096 36.678 43.3096C37.7034 43.3096 38.4622 43.8291 38.7698 44.6973H38.8929C39.2346 43.8633 40.1096 43.3096 41.1624 43.3096C42.6595 43.3096 43.596 44.2803 43.596 45.832V51H41.5999V46.3311C41.5999 45.4219 41.1897 44.9639 40.3557 44.9639C39.5491 44.9639 39.0296 45.5586 39.0296 46.3721V51H37.0335V46.2422C37.0335 45.4355 36.5755 44.9639 35.7962 44.9639C35.0169 44.9639 34.47 45.5996 34.47 46.4609V51H32.4739ZM46.4091 42.3184C45.7939 42.3184 45.2812 41.8262 45.2812 41.2109C45.2812 40.5889 45.7939 40.0967 46.4091 40.0967C47.0243 40.0967 47.5302 40.5889 47.5302 41.2109C47.5302 41.8262 47.0243 42.3184 46.4091 42.3184ZM45.4042 51V43.4736H47.4003V51H45.4042ZM51.9566 51.1162C50.0767 51.1162 48.9009 49.6465 48.9009 47.2402V47.2266C48.9009 44.8066 50.0494 43.3506 51.9566 43.3506C52.9888 43.3506 53.8296 43.8564 54.2056 44.6768H54.3287V40.5957H56.3248V51H54.3287V49.8311H54.2056C53.816 50.6445 53.0162 51.1162 51.9566 51.1162ZM52.6334 49.4619C53.6929 49.4619 54.3492 48.6279 54.3492 47.2471V47.2334C54.3492 45.8525 53.6861 45.0049 52.6334 45.0049C51.5806 45.0049 50.9312 45.8525 50.9312 47.2266V47.2402C50.9312 48.6279 51.5806 49.4619 52.6334 49.4619ZM59.2678 42.3184C58.6525 42.3184 58.1398 41.8262 58.1398 41.2109C58.1398 40.5889 58.6525 40.0967 59.2678 40.0967C59.883 40.0967 60.3889 40.5889 60.3889 41.2109C60.3889 41.8262 59.883 42.3184 59.2678 42.3184ZM58.2629 51V43.4736H60.259V51H58.2629ZM62.7098 51V44.9775H61.493V43.4736H62.7098V42.7695C62.7098 41.2725 63.4754 40.5205 65.2938 40.5205C65.6971 40.5205 66.0321 40.5479 66.3192 40.5957V41.9287C66.1961 41.9082 65.9842 41.8877 65.7245 41.8877C64.952 41.8877 64.6649 42.25 64.6649 42.9062V43.4736H66.2577V44.9775H64.7059V51H62.7098ZM68.7221 42.3184C68.1069 42.3184 67.5942 41.8262 67.5942 41.2109C67.5942 40.5889 68.1069 40.0967 68.7221 40.0967C69.3374 40.0967 69.8432 40.5889 69.8432 41.2109C69.8432 41.8262 69.3374 42.3184 68.7221 42.3184ZM67.7173 51V43.4736H69.7134V51H67.7173ZM74.8917 51.1572C72.6017 51.1572 71.214 49.6602 71.214 47.2471V47.2402C71.214 44.8477 72.6154 43.3096 74.8097 43.3096C77.004 43.3096 78.3712 44.8135 78.3712 47.0898V47.7119H73.1896C73.2101 48.9492 73.8732 49.667 74.9327 49.667C75.8077 49.667 76.2931 49.2021 76.4298 48.915L76.4503 48.874H78.3097L78.296 48.9424C78.0636 49.8857 77.0929 51.1572 74.8917 51.1572ZM74.8439 44.8066C73.9757 44.8066 73.3331 45.3945 73.2101 46.4609H76.4571C76.3341 45.3672 75.712 44.8066 74.8439 44.8066ZM79.865 51V43.4736H81.8611V44.6426H81.9841C82.2234 43.8291 82.907 43.3506 83.8845 43.3506C84.1511 43.3506 84.4314 43.3916 84.6296 43.4463V45.1895C84.3289 45.1211 84.0212 45.0732 83.7136 45.0732C82.5789 45.0732 81.8611 45.7227 81.8611 46.7891V51H79.865ZM92.4161 51.0273C90.584 51.0273 89.8457 50.4326 89.8457 48.9697V44.9775H88.6836V43.4736H89.8457V41.6758H91.8623V43.4736H93.4141V44.9775H91.8623V48.5117C91.8623 49.1885 92.1495 49.4893 92.8262 49.4893C93.086 49.4893 93.2227 49.4756 93.4141 49.4551V50.9385C93.168 50.9863 92.7989 51.0273 92.4161 51.0273ZM97.4235 51.1572C95.735 51.1572 94.8669 50.1318 94.8669 48.3408V43.4736H96.863V47.8828C96.863 48.9492 97.2663 49.5029 98.2096 49.5029C99.194 49.5029 99.7272 48.8398 99.7272 47.8213V43.4736H101.723V51H99.7272V49.8379H99.6042C99.2624 50.6582 98.4968 51.1572 97.4235 51.1572ZM103.586 51V43.4736H105.582V44.6426H105.705C105.945 43.8291 106.628 43.3506 107.606 43.3506C107.872 43.3506 108.153 43.3916 108.351 43.4463V45.1895C108.05 45.1211 107.743 45.0732 107.435 45.0732C106.3 45.0732 105.582 45.7227 105.582 46.7891V51H103.586ZM109.612 51V43.4736H111.608V44.6357H111.731C112.073 43.8223 112.818 43.3096 113.892 43.3096C115.566 43.3096 116.469 44.335 116.469 46.1328V51H114.473V46.584C114.473 45.5244 114.035 44.9639 113.092 44.9639C112.169 44.9639 111.608 45.627 111.608 46.6455V51H109.612ZM121.572 51.1572C119.282 51.1572 117.894 49.6602 117.894 47.2471V47.2402C117.894 44.8477 119.296 43.3096 121.49 43.3096C123.684 43.3096 125.051 44.8135 125.051 47.0898V47.7119H119.87C119.89 48.9492 120.553 49.667 121.613 49.667C122.488 49.667 122.973 49.2021 123.11 48.915L123.13 48.874H124.99L124.976 48.9424C124.744 49.8857 123.773 51.1572 121.572 51.1572ZM121.524 44.8066C120.656 44.8066 120.013 45.3945 119.89 46.4609H123.137C123.014 45.3672 122.392 44.8066 121.524 44.8066ZM129.232 51.1162C127.352 51.1162 126.176 49.6465 126.176 47.2402V47.2266C126.176 44.8066 127.324 43.3506 129.232 43.3506C130.264 43.3506 131.105 43.8564 131.481 44.6768H131.604V40.5957H133.6V51H131.604V49.8311H131.481C131.091 50.6445 130.291 51.1162 129.232 51.1162ZM129.908 49.4619C130.968 49.4619 131.624 48.6279 131.624 47.2471V47.2334C131.624 45.8525 130.961 45.0049 129.908 45.0049C128.856 45.0049 128.206 45.8525 128.206 47.2266V47.2402C128.206 48.6279 128.856 49.4619 129.908 49.4619ZM142.336 51.1572C140.019 51.1572 138.625 49.6875 138.625 47.2402V47.2266C138.625 44.7998 140.04 43.3096 142.336 43.3096C144.633 43.3096 146.048 44.793 146.048 47.2266V47.2402C146.048 49.6943 144.654 51.1572 142.336 51.1572ZM142.336 49.5918C143.396 49.5918 144.004 48.7236 144.004 47.2402V47.2266C144.004 45.7568 143.389 44.875 142.336 44.875C141.277 44.875 140.668 45.7568 140.668 47.2266V47.2402C140.668 48.7236 141.27 49.5918 142.336 49.5918ZM148.116 51V44.9775H146.9V43.4736H148.116V42.7695C148.116 41.2725 148.882 40.5205 150.7 40.5205C151.104 40.5205 151.439 40.5479 151.726 40.5957V41.9287C151.603 41.9082 151.391 41.8877 151.131 41.8877C150.359 41.8877 150.071 42.25 150.071 42.9062V43.4736H151.664V44.9775H150.112V51H148.116ZM153.76 51V44.9775H152.543V43.4736H153.76V42.7695C153.76 41.2725 154.525 40.5205 156.344 40.5205C156.747 40.5205 157.082 40.5479 157.369 40.5957V41.9287C157.246 41.9082 157.034 41.8877 156.774 41.8877C156.002 41.8877 155.715 42.25 155.715 42.9062V43.4736H157.307V44.9775H155.756V51H153.76Z" fill="white" fill-opacity="0.7" style="mix-blend-mode:overlay"/>
<path d="M15.9717 72V67.7549L12.4717 62.1357H13.873L16.5322 66.5176H16.6416L19.3008 62.1357H20.7021L17.2021 67.7549V72H15.9717ZM24.0075 72.1299C21.9088 72.1299 20.61 70.6807 20.61 68.3223V68.3086C20.61 65.9434 21.9088 64.501 24.0075 64.501C26.1061 64.501 27.4049 65.9434 27.4049 68.3086V68.3223C27.4049 70.6807 26.1061 72.1299 24.0075 72.1299ZM24.0075 71.0771C25.402 71.0771 26.1881 70.0586 26.1881 68.3223V68.3086C26.1881 66.5654 25.402 65.5537 24.0075 65.5537C22.6129 65.5537 21.8268 66.5654 21.8268 68.3086V68.3223C21.8268 70.0586 22.6129 71.0771 24.0075 71.0771ZM31.5784 72.1299C29.9036 72.1299 29.0423 71.1455 29.0423 69.4023V64.6309H30.2317V69.1152C30.2317 70.4414 30.7102 71.0771 31.886 71.0771C33.1848 71.0771 33.8753 70.2842 33.8753 68.9922V64.6309H35.0647V72H33.8753V70.8994H33.7659C33.4036 71.6855 32.6585 72.1299 31.5784 72.1299ZM37.1464 72V64.6309H38.3359V65.7246H38.4452C38.7255 64.9521 39.4159 64.501 40.414 64.501C40.6396 64.501 40.8925 64.5283 41.0087 64.5488V65.7041C40.7626 65.6631 40.537 65.6357 40.2773 65.6357C39.1425 65.6357 38.3359 66.3535 38.3359 67.4336V72H37.1464ZM49.8 72.1299C48.7746 72.1299 47.9543 71.6445 47.5031 70.8242H47.3937V72H46.2043V61.7051H47.3937V65.793H47.5031C47.9064 65.0068 48.7883 64.501 49.8 64.501C51.673 64.501 52.8898 65.998 52.8898 68.3086V68.3223C52.8898 70.6191 51.6662 72.1299 49.8 72.1299ZM49.5266 71.0771C50.8732 71.0771 51.673 70.0381 51.673 68.3223V68.3086C51.673 66.5928 50.8732 65.5537 49.5266 65.5537C48.1867 65.5537 47.3664 66.6064 47.3664 68.3086V68.3223C47.3664 70.0244 48.1867 71.0771 49.5266 71.0771ZM57.6034 72.1299C55.4979 72.1299 54.2264 70.6533 54.2264 68.3428V68.3359C54.2264 66.0596 55.5252 64.501 57.5282 64.501C59.5311 64.501 60.7479 65.9912 60.7479 68.1924V68.6572H55.4432C55.4774 70.1816 56.3182 71.0703 57.6307 71.0703C58.6287 71.0703 59.244 70.5986 59.4422 70.1543L59.4696 70.0928H60.659L60.6454 70.1475C60.3924 71.1455 59.3397 72.1299 57.6034 72.1299ZM57.5213 65.5605C56.4276 65.5605 55.5936 66.3057 55.4637 67.707H59.5379C59.4149 66.251 58.6082 65.5605 57.5213 65.5605ZM65.1743 72.1299C63.3081 72.1299 62.0845 70.6191 62.0845 68.3223V68.3086C62.0845 65.998 63.3013 64.501 65.1743 64.501C66.186 64.501 67.0679 65.0068 67.4712 65.793H67.5805V61.7051H68.77V72H67.5805V70.8242H67.4712C67.02 71.6445 66.1997 72.1299 65.1743 72.1299ZM65.4477 71.0771C66.7876 71.0771 67.6079 70.0244 67.6079 68.3223V68.3086C67.6079 66.6064 66.7876 65.5537 65.4477 65.5537C64.1011 65.5537 63.3013 66.5928 63.3013 68.3086V68.3223C63.3013 70.0381 64.1011 71.0771 65.4477 71.0771ZM70.9132 72V64.6309H72.1027V65.7246H72.212C72.4923 64.9521 73.1827 64.501 74.1808 64.501C74.4064 64.501 74.6593 64.5283 74.7755 64.5488V65.7041C74.5294 65.6631 74.3038 65.6357 74.0441 65.6357C72.9093 65.6357 72.1027 66.3535 72.1027 67.4336V72H70.9132ZM78.9285 72.1299C76.8298 72.1299 75.531 70.6807 75.531 68.3223V68.3086C75.531 65.9434 76.8298 64.501 78.9285 64.501C81.0271 64.501 82.3259 65.9434 82.3259 68.3086V68.3223C82.3259 70.6807 81.0271 72.1299 78.9285 72.1299ZM78.9285 71.0771C80.323 71.0771 81.1091 70.0586 81.1091 68.3223V68.3086C81.1091 66.5654 80.323 65.5537 78.9285 65.5537C77.5339 65.5537 76.7478 66.5654 76.7478 68.3086V68.3223C76.7478 70.0586 77.5339 71.0771 78.9285 71.0771ZM87.06 72.1299C84.9613 72.1299 83.6625 70.6807 83.6625 68.3223V68.3086C83.6625 65.9434 84.9613 64.501 87.06 64.501C89.1586 64.501 90.4574 65.9434 90.4574 68.3086V68.3223C90.4574 70.6807 89.1586 72.1299 87.06 72.1299ZM87.06 71.0771C88.4545 71.0771 89.2406 70.0586 89.2406 68.3223V68.3086C89.2406 66.5654 88.4545 65.5537 87.06 65.5537C85.6654 65.5537 84.8793 66.5654 84.8793 68.3086V68.3223C84.8793 70.0586 85.6654 71.0771 87.06 71.0771ZM92.1631 72V64.6309H93.3526V65.752H93.462C93.7901 64.959 94.4873 64.501 95.4512 64.501C96.4493 64.501 97.1465 65.0273 97.4883 65.793H97.5977C97.9942 65.0137 98.835 64.501 99.8536 64.501C101.357 64.501 102.198 65.3623 102.198 66.9072V72H101.009V67.1807C101.009 66.0938 100.51 65.5537 99.4707 65.5537C98.4454 65.5537 97.7686 66.3262 97.7686 67.2627V72H96.5791V66.9961C96.5791 66.1211 95.9776 65.5537 95.0479 65.5537C94.084 65.5537 93.3526 66.3945 93.3526 67.4336V72H92.1631ZM108.071 72V61.7051H109.26V65.7383H109.369C109.739 64.959 110.429 64.501 111.516 64.501C113.17 64.501 114.093 65.4785 114.093 67.2285V72H112.904V67.5156C112.904 66.1895 112.357 65.5537 111.181 65.5537C110.005 65.5537 109.26 66.3467 109.26 67.6387V72H108.071ZM118.574 72.1299C116.899 72.1299 116.038 71.1455 116.038 69.4023V64.6309H117.228V69.1152C117.228 70.4414 117.706 71.0771 118.882 71.0771C120.181 71.0771 120.871 70.2842 120.871 68.9922V64.6309H122.061V72H120.871V70.8994H120.762C120.399 71.6855 119.654 72.1299 118.574 72.1299ZM124.142 72V64.6309H125.332V65.752H125.441C125.769 64.959 126.466 64.501 127.43 64.501C128.428 64.501 129.126 65.0273 129.467 65.793H129.577C129.973 65.0137 130.814 64.501 131.833 64.501C133.337 64.501 134.177 65.3623 134.177 66.9072V72H132.988V67.1807C132.988 66.0938 132.489 65.5537 131.45 65.5537C130.424 65.5537 129.748 66.3262 129.748 67.2627V72H128.558V66.9961C128.558 66.1211 127.957 65.5537 127.027 65.5537C126.063 65.5537 125.332 66.3945 125.332 67.4336V72H124.142ZM136.813 63.209C136.362 63.209 135.992 62.8398 135.992 62.3887C135.992 61.9375 136.362 61.5684 136.813 61.5684C137.264 61.5684 137.633 61.9375 137.633 62.3887C137.633 62.8398 137.264 63.209 136.813 63.209ZM136.211 72V64.6309H137.401V72H136.211ZM142.224 72.1299C140.357 72.1299 139.134 70.6191 139.134 68.3223V68.3086C139.134 65.998 140.35 64.501 142.224 64.501C143.235 64.501 144.117 65.0068 144.52 65.793H144.63V61.7051H145.819V72H144.63V70.8242H144.52C144.069 71.6445 143.249 72.1299 142.224 72.1299ZM142.497 71.0771C143.837 71.0771 144.657 70.0244 144.657 68.3223V68.3086C144.657 66.6064 143.837 65.5537 142.497 65.5537C141.15 65.5537 140.35 66.5928 140.35 68.3086V68.3223C140.35 70.0381 141.15 71.0771 142.497 71.0771ZM148.591 63.209C148.14 63.209 147.771 62.8398 147.771 62.3887C147.771 61.9375 148.14 61.5684 148.591 61.5684C149.042 61.5684 149.412 61.9375 149.412 62.3887C149.412 62.8398 149.042 63.209 148.591 63.209ZM147.99 72V64.6309H149.179V72H147.99ZM153.9 72.0547C152.382 72.0547 151.746 71.4941 151.746 70.0859V65.6152H150.584V64.6309H151.746V62.7236H152.977V64.6309H154.59V65.6152H152.977V69.7852C152.977 70.6533 153.277 71.002 154.043 71.002C154.255 71.002 154.371 70.9951 154.59 70.9746V71.9863C154.358 72.0273 154.132 72.0547 153.9 72.0547ZM156.856 74.584C156.699 74.584 156.494 74.5703 156.33 74.543V73.5654C156.473 73.5928 156.658 73.5996 156.822 73.5996C157.499 73.5996 157.909 73.292 158.176 72.4443L158.312 72.0068L155.585 64.6309H156.856L158.88 70.6943H158.989L161.006 64.6309H162.257L159.379 72.4512C158.77 74.1055 158.162 74.584 156.856 74.584ZM167.555 72V61.7051H168.744V72H167.555ZM173.895 72.1299C171.79 72.1299 170.518 70.6533 170.518 68.3428V68.3359C170.518 66.0596 171.817 64.501 173.82 64.501C175.823 64.501 177.04 65.9912 177.04 68.1924V68.6572H171.735C171.769 70.1816 172.61 71.0703 173.923 71.0703C174.921 71.0703 175.536 70.5986 175.734 70.1543L175.761 70.0928H176.951L176.937 70.1475C176.684 71.1455 175.632 72.1299 173.895 72.1299ZM173.813 65.5605C172.719 65.5605 171.885 66.3057 171.756 67.707H175.83C175.707 66.251 174.9 65.5605 173.813 65.5605ZM180.694 72L177.966 64.6309H179.224L181.241 70.7012H181.35L183.367 64.6309H184.624L181.897 72H180.694ZM188.791 72.1299C186.686 72.1299 185.414 70.6533 185.414 68.3428V68.3359C185.414 66.0596 186.713 64.501 188.716 64.501C190.719 64.501 191.936 65.9912 191.936 68.1924V68.6572H186.631C186.665 70.1816 187.506 71.0703 188.818 71.0703C189.816 71.0703 190.432 70.5986 190.63 70.1543L190.657 70.0928H191.847L191.833 70.1475C191.58 71.1455 190.527 72.1299 188.791 72.1299ZM188.709 65.5605C187.615 65.5605 186.781 66.3057 186.651 67.707H190.726C190.603 66.251 189.796 65.5605 188.709 65.5605ZM193.71 72V61.7051H194.899V72H193.71ZM200.908 72V61.7051H202.098V65.7383H202.207C202.576 64.959 203.267 64.501 204.353 64.501C206.008 64.501 206.931 65.4785 206.931 67.2285V72H205.741V67.5156C205.741 66.1895 205.194 65.5537 204.018 65.5537C202.843 65.5537 202.098 66.3467 202.098 67.6387V72H200.908ZM210.967 72.1299C209.566 72.1299 208.506 71.2822 208.506 69.9424V69.9287C208.506 68.6162 209.477 67.8574 211.193 67.7549L213.305 67.625V66.9551C213.305 66.0459 212.752 65.5537 211.651 65.5537C210.769 65.5537 210.188 65.8818 209.997 66.4561L209.99 66.4766H208.8L208.807 66.4355C208.999 65.2803 210.12 64.501 211.692 64.501C213.49 64.501 214.495 65.4238 214.495 66.9551V72H213.305V70.9131H213.196C212.731 71.6992 211.959 72.1299 210.967 72.1299ZM209.723 69.915C209.723 70.6602 210.359 71.0977 211.213 71.0977C212.423 71.0977 213.305 70.3047 213.305 69.252V68.582L211.336 68.7051C210.215 68.7734 209.723 69.1699 209.723 69.9014V69.915ZM219.058 72.1299C217.417 72.1299 216.289 71.3369 216.153 70.1201H217.369C217.568 70.7354 218.155 71.1387 219.099 71.1387C220.09 71.1387 220.794 70.667 220.794 69.9971V69.9834C220.794 69.4844 220.418 69.1357 219.509 68.917L218.367 68.6436C216.987 68.3154 216.364 67.7139 216.364 66.6543V66.6475C216.364 65.4238 217.54 64.501 219.106 64.501C220.651 64.501 221.724 65.2734 221.888 66.4766H220.719C220.562 65.8955 219.988 65.4922 219.099 65.4922C218.224 65.4922 217.581 65.9434 217.581 66.5928V66.6064C217.581 67.1055 217.95 67.4199 218.819 67.6318L219.953 67.9053C221.341 68.2402 222.011 68.8418 222.011 69.8945V69.9082C222.011 71.2207 220.733 72.1299 219.058 72.1299ZM227.514 72V64.6309H228.704V65.7246H228.813C229.093 64.9521 229.784 64.501 230.782 64.501C231.007 64.501 231.26 64.5283 231.376 64.5488V65.7041C231.13 65.6631 230.905 65.6357 230.645 65.6357C229.51 65.6357 228.704 66.3535 228.704 67.4336V72H227.514ZM235.509 72.1299C233.403 72.1299 232.132 70.6533 232.132 68.3428V68.3359C232.132 66.0596 233.431 64.501 235.434 64.501C237.437 64.501 238.653 65.9912 238.653 68.1924V68.6572H233.349C233.383 70.1816 234.224 71.0703 235.536 71.0703C236.534 71.0703 237.15 70.5986 237.348 70.1543L237.375 70.0928H238.565L238.551 70.1475C238.298 71.1455 237.245 72.1299 235.509 72.1299ZM235.427 65.5605C234.333 65.5605 233.499 66.3057 233.369 67.707H237.443C237.32 66.251 236.514 65.5605 235.427 65.5605ZM242.383 72.1299C240.981 72.1299 239.922 71.2822 239.922 69.9424V69.9287C239.922 68.6162 240.892 67.8574 242.608 67.7549L244.72 67.625V66.9551C244.72 66.0459 244.167 65.5537 243.066 65.5537C242.184 65.5537 241.603 65.8818 241.412 66.4561L241.405 66.4766H240.216L240.222 66.4355C240.414 65.2803 241.535 64.501 243.107 64.501C244.905 64.501 245.91 65.4238 245.91 66.9551V72H244.72V70.9131H244.611C244.146 71.6992 243.374 72.1299 242.383 72.1299ZM241.138 69.915C241.138 70.6602 241.774 71.0977 242.629 71.0977C243.839 71.0977 244.72 70.3047 244.72 69.252V68.582L242.752 68.7051C241.631 68.7734 241.138 69.1699 241.138 69.9014V69.915ZM250.958 72.1299C248.894 72.1299 247.575 70.6328 247.575 68.2949V68.2812C247.575 65.9912 248.887 64.501 250.952 64.501C252.743 64.501 253.816 65.5332 254.035 66.8457L254.041 66.8867H252.859L252.852 66.8662C252.667 66.1416 252.011 65.5537 250.952 65.5537C249.625 65.5537 248.791 66.6201 248.791 68.2812V68.2949C248.791 69.9902 249.639 71.0771 250.952 71.0771C251.943 71.0771 252.572 70.6396 252.845 69.8193L252.859 69.7783L254.035 69.7715L254.021 69.8467C253.72 71.1797 252.729 72.1299 250.958 72.1299ZM255.706 72V61.7051H256.896V65.7383H257.005C257.374 64.959 258.064 64.501 259.151 64.501C260.806 64.501 261.729 65.4785 261.729 67.2285V72H260.539V67.5156C260.539 66.1895 259.992 65.5537 258.816 65.5537C257.641 65.5537 256.896 66.3467 256.896 67.6387V72H255.706ZM266.75 72.1299C264.644 72.1299 263.373 70.6533 263.373 68.3428V68.3359C263.373 66.0596 264.672 64.501 266.674 64.501C268.677 64.501 269.894 65.9912 269.894 68.1924V68.6572H264.59C264.624 70.1816 265.465 71.0703 266.777 71.0703C267.775 71.0703 268.39 70.5986 268.589 70.1543L268.616 70.0928H269.805L269.792 70.1475C269.539 71.1455 268.486 72.1299 266.75 72.1299ZM266.668 65.5605C265.574 65.5605 264.74 66.3057 264.61 67.707H268.684C268.561 66.251 267.755 65.5605 266.668 65.5605ZM274.321 72.1299C272.454 72.1299 271.231 70.6191 271.231 68.3223V68.3086C271.231 65.998 272.448 64.501 274.321 64.501C275.332 64.501 276.214 65.0068 276.617 65.793H276.727V61.7051H277.916V72H276.727V70.8242H276.617C276.166 71.6445 275.346 72.1299 274.321 72.1299ZM274.594 71.0771C275.934 71.0771 276.754 70.0244 276.754 68.3223V68.3086C276.754 66.6064 275.934 65.5537 274.594 65.5537C273.247 65.5537 272.448 66.5928 272.448 68.3086V68.3223C272.448 70.0381 273.247 71.0771 274.594 71.0771ZM13.7363 91.584C13.5791 91.584 13.374 91.5703 13.21 91.543V90.5654C13.3535 90.5928 13.5381 90.5996 13.7021 90.5996C14.3789 90.5996 14.7891 90.292 15.0557 89.4443L15.1924 89.0068L12.4648 81.6309H13.7363L15.7598 87.6943H15.8691L17.8857 81.6309H19.1367L16.2588 89.4512C15.6504 91.1055 15.042 91.584 13.7363 91.584ZM23.3239 89.1299C21.2252 89.1299 19.9264 87.6807 19.9264 85.3223V85.3086C19.9264 82.9434 21.2252 81.501 23.3239 81.501C25.4225 81.501 26.7213 82.9434 26.7213 85.3086V85.3223C26.7213 87.6807 25.4225 89.1299 23.3239 89.1299ZM23.3239 88.0771C24.7184 88.0771 25.5045 87.0586 25.5045 85.3223V85.3086C25.5045 83.5654 24.7184 82.5537 23.3239 82.5537C21.9293 82.5537 21.1432 83.5654 21.1432 85.3086V85.3223C21.1432 87.0586 21.9293 88.0771 23.3239 88.0771ZM30.8948 89.1299C29.22 89.1299 28.3587 88.1455 28.3587 86.4023V81.6309H29.5481V86.1152C29.5481 87.4414 30.0266 88.0771 31.2024 88.0771C32.5013 88.0771 33.1917 87.2842 33.1917 85.9922V81.6309H34.3811V89H33.1917V87.8994H33.0823C32.72 88.6855 31.9749 89.1299 30.8948 89.1299ZM36.4628 89V81.6309H37.6523V82.7246H37.7616C38.0419 81.9521 38.7323 81.501 39.7304 81.501C39.956 81.501 40.2089 81.5283 40.3251 81.5488V82.7041C40.079 82.6631 39.8534 82.6357 39.5937 82.6357C38.4589 82.6357 37.6523 83.3535 37.6523 84.4336V89H36.4628ZM48.0705 89.0547C46.5529 89.0547 45.9172 88.4941 45.9172 87.0859V82.6152H44.7551V81.6309H45.9172V79.7236H47.1477V81.6309H48.7609V82.6152H47.1477V86.7852C47.1477 87.6533 47.4484 88.002 48.2141 88.002C48.426 88.002 48.5422 87.9951 48.7609 87.9746V88.9863C48.5285 89.0273 48.3029 89.0547 48.0705 89.0547ZM52.4217 89.1299C51.0204 89.1299 49.9608 88.2822 49.9608 86.9424V86.9287C49.9608 85.6162 50.9315 84.8574 52.6473 84.7549L54.7596 84.625V83.9551C54.7596 83.0459 54.2059 82.5537 53.1053 82.5537C52.2235 82.5537 51.6424 82.8818 51.451 83.4561L51.4442 83.4766H50.2547L50.2616 83.4355C50.453 82.2803 51.5741 81.501 53.1463 81.501C54.9442 81.501 55.9491 82.4238 55.9491 83.9551V89H54.7596V87.9131H54.6502C54.1854 88.6992 53.4129 89.1299 52.4217 89.1299ZM51.1776 86.915C51.1776 87.6602 51.8133 88.0977 52.6678 88.0977C53.8778 88.0977 54.7596 87.3047 54.7596 86.252V85.582L52.7909 85.7051C51.6698 85.7734 51.1776 86.1699 51.1776 86.9014V86.915ZM57.9829 89V81.6309H59.1723V82.7246H59.2817C59.562 81.9521 60.2524 81.501 61.2505 81.501C61.4761 81.501 61.729 81.5283 61.8452 81.5488V82.7041C61.5991 82.6631 61.3735 82.6357 61.1138 82.6357C59.979 82.6357 59.1723 83.3535 59.1723 84.4336V89H57.9829ZM66.005 91.5977C64.2277 91.5977 63.0929 90.7979 62.9083 89.5879L62.922 89.5811H64.1525L64.1593 89.5879C64.2892 90.1484 64.9454 90.5449 66.005 90.5449C67.3243 90.5449 68.1105 89.9229 68.1105 88.8359V87.3457H68.0011C67.5363 88.1592 66.7023 88.6172 65.6905 88.6172C63.7833 88.6172 62.6007 87.1406 62.6007 85.0762V85.0625C62.6007 82.998 63.7902 81.501 65.7179 81.501C66.757 81.501 67.5636 82.0137 68.0148 82.8477H68.0968V81.6309H69.2863V88.8975C69.2863 90.5449 68.0148 91.5977 66.005 91.5977ZM65.9503 87.5645C67.3175 87.5645 68.1378 86.5391 68.1378 85.0762V85.0625C68.1378 83.5996 67.3107 82.5537 65.9503 82.5537C64.5831 82.5537 63.8175 83.5996 63.8175 85.0625V85.0762C63.8175 86.5391 64.5831 87.5645 65.9503 87.5645ZM74.3689 89.1299C72.2634 89.1299 70.992 87.6533 70.992 85.3428V85.3359C70.992 83.0596 72.2908 81.501 74.2937 81.501C76.2966 81.501 77.5134 82.9912 77.5134 85.1924V85.6572H72.2088C72.2429 87.1816 73.0838 88.0703 74.3963 88.0703C75.3943 88.0703 76.0095 87.5986 76.2078 87.1543L76.2351 87.0928H77.4246L77.4109 87.1475C77.158 88.1455 76.1052 89.1299 74.3689 89.1299ZM74.2869 82.5605C73.1931 82.5605 72.3591 83.3057 72.2293 84.707H76.3035C76.1804 83.251 75.3738 82.5605 74.2869 82.5605ZM81.8373 89.0547C80.3197 89.0547 79.684 88.4941 79.684 87.0859V82.6152H78.5219V81.6309H79.684V79.7236H80.9145V81.6309H82.5277V82.6152H80.9145V86.7852C80.9145 87.6533 81.2152 88.002 81.9809 88.002C82.1928 88.002 82.309 87.9951 82.5277 87.9746V88.9863C82.2953 89.0273 82.0697 89.0547 81.8373 89.0547ZM90.0475 89L87.32 81.6309H88.5778L90.5944 87.7012H90.7038L92.7204 81.6309H93.9782L91.2507 89H90.0475ZM97.1605 89.1299C95.7591 89.1299 94.6995 88.2822 94.6995 86.9424V86.9287C94.6995 85.6162 95.6702 84.8574 97.3861 84.7549L99.4984 84.625V83.9551C99.4984 83.0459 98.9446 82.5537 97.8441 82.5537C96.9622 82.5537 96.3812 82.8818 96.1898 83.4561L96.1829 83.4766H94.9935L95.0003 83.4355C95.1917 82.2803 96.3128 81.501 97.8851 81.501C99.6829 81.501 100.688 82.4238 100.688 83.9551V89H99.4984V87.9131H99.389C98.9241 88.6992 98.1517 89.1299 97.1605 89.1299ZM95.9163 86.915C95.9163 87.6602 96.5521 88.0977 97.4066 88.0977C98.6165 88.0977 99.4984 87.3047 99.4984 86.252V85.582L97.5296 85.7051C96.4085 85.7734 95.9163 86.1699 95.9163 86.9014V86.915ZM102.79 89V78.7051H103.979V89H102.79ZM108.59 89.1299C106.916 89.1299 106.054 88.1455 106.054 86.4023V81.6309H107.244V86.1152C107.244 87.4414 107.722 88.0771 108.898 88.0771C110.197 88.0771 110.887 87.2842 110.887 85.9922V81.6309H112.077V89H110.887V87.8994H110.778C110.416 88.6855 109.671 89.1299 108.59 89.1299ZM117.166 89.1299C115.061 89.1299 113.789 87.6533 113.789 85.3428V85.3359C113.789 83.0596 115.088 81.501 117.091 81.501C119.094 81.501 120.311 82.9912 120.311 85.1924V85.6572H115.006C115.04 87.1816 115.881 88.0703 117.194 88.0703C118.192 88.0703 118.807 87.5986 119.005 87.1543L119.032 87.0928H120.222L120.208 87.1475C119.955 88.1455 118.903 89.1299 117.166 89.1299ZM117.084 82.5605C115.99 82.5605 115.156 83.3057 115.027 84.707H119.101C118.978 83.251 118.171 82.5605 117.084 82.5605ZM122.987 89.0684C122.502 89.0684 122.099 88.665 122.099 88.1797C122.099 87.6875 122.502 87.291 122.987 87.291C123.479 87.291 123.876 87.6875 123.876 88.1797C123.876 88.665 123.479 89.0684 122.987 89.0684Z" fill="white" fill-opacity="0.5"/>
<path d="M15.9717 72V67.7549L12.4717 62.1357H13.873L16.5322 66.5176H16.6416L19.3008 62.1357H20.7021L17.2021 67.7549V72H15.9717ZM24.0075 72.1299C21.9088 72.1299 20.61 70.6807 20.61 68.3223V68.3086C20.61 65.9434 21.9088 64.501 24.0075 64.501C26.1061 64.501 27.4049 65.9434 27.4049 68.3086V68.3223C27.4049 70.6807 26.1061 72.1299 24.0075 72.1299ZM24.0075 71.0771C25.402 71.0771 26.1881 70.0586 26.1881 68.3223V68.3086C26.1881 66.5654 25.402 65.5537 24.0075 65.5537C22.6129 65.5537 21.8268 66.5654 21.8268 68.3086V68.3223C21.8268 70.0586 22.6129 71.0771 24.0075 71.0771ZM31.5784 72.1299C29.9036 72.1299 29.0423 71.1455 29.0423 69.4023V64.6309H30.2317V69.1152C30.2317 70.4414 30.7102 71.0771 31.886 71.0771C33.1848 71.0771 33.8753 70.2842 33.8753 68.9922V64.6309H35.0647V72H33.8753V70.8994H33.7659C33.4036 71.6855 32.6585 72.1299 31.5784 72.1299ZM37.1464 72V64.6309H38.3359V65.7246H38.4452C38.7255 64.9521 39.4159 64.501 40.414 64.501C40.6396 64.501 40.8925 64.5283 41.0087 64.5488V65.7041C40.7626 65.6631 40.537 65.6357 40.2773 65.6357C39.1425 65.6357 38.3359 66.3535 38.3359 67.4336V72H37.1464ZM49.8 72.1299C48.7746 72.1299 47.9543 71.6445 47.5031 70.8242H47.3937V72H46.2043V61.7051H47.3937V65.793H47.5031C47.9064 65.0068 48.7883 64.501 49.8 64.501C51.673 64.501 52.8898 65.998 52.8898 68.3086V68.3223C52.8898 70.6191 51.6662 72.1299 49.8 72.1299ZM49.5266 71.0771C50.8732 71.0771 51.673 70.0381 51.673 68.3223V68.3086C51.673 66.5928 50.8732 65.5537 49.5266 65.5537C48.1867 65.5537 47.3664 66.6064 47.3664 68.3086V68.3223C47.3664 70.0244 48.1867 71.0771 49.5266 71.0771ZM57.6034 72.1299C55.4979 72.1299 54.2264 70.6533 54.2264 68.3428V68.3359C54.2264 66.0596 55.5252 64.501 57.5282 64.501C59.5311 64.501 60.7479 65.9912 60.7479 68.1924V68.6572H55.4432C55.4774 70.1816 56.3182 71.0703 57.6307 71.0703C58.6287 71.0703 59.244 70.5986 59.4422 70.1543L59.4696 70.0928H60.659L60.6454 70.1475C60.3924 71.1455 59.3397 72.1299 57.6034 72.1299ZM57.5213 65.5605C56.4276 65.5605 55.5936 66.3057 55.4637 67.707H59.5379C59.4149 66.251 58.6082 65.5605 57.5213 65.5605ZM65.1743 72.1299C63.3081 72.1299 62.0845 70.6191 62.0845 68.3223V68.3086C62.0845 65.998 63.3013 64.501 65.1743 64.501C66.186 64.501 67.0679 65.0068 67.4712 65.793H67.5805V61.7051H68.77V72H67.5805V70.8242H67.4712C67.02 71.6445 66.1997 72.1299 65.1743 72.1299ZM65.4477 71.0771C66.7876 71.0771 67.6079 70.0244 67.6079 68.3223V68.3086C67.6079 66.6064 66.7876 65.5537 65.4477 65.5537C64.1011 65.5537 63.3013 66.5928 63.3013 68.3086V68.3223C63.3013 70.0381 64.1011 71.0771 65.4477 71.0771ZM70.9132 72V64.6309H72.1027V65.7246H72.212C72.4923 64.9521 73.1827 64.501 74.1808 64.501C74.4064 64.501 74.6593 64.5283 74.7755 64.5488V65.7041C74.5294 65.6631 74.3038 65.6357 74.0441 65.6357C72.9093 65.6357 72.1027 66.3535 72.1027 67.4336V72H70.9132ZM78.9285 72.1299C76.8298 72.1299 75.531 70.6807 75.531 68.3223V68.3086C75.531 65.9434 76.8298 64.501 78.9285 64.501C81.0271 64.501 82.3259 65.9434 82.3259 68.3086V68.3223C82.3259 70.6807 81.0271 72.1299 78.9285 72.1299ZM78.9285 71.0771C80.323 71.0771 81.1091 70.0586 81.1091 68.3223V68.3086C81.1091 66.5654 80.323 65.5537 78.9285 65.5537C77.5339 65.5537 76.7478 66.5654 76.7478 68.3086V68.3223C76.7478 70.0586 77.5339 71.0771 78.9285 71.0771ZM87.06 72.1299C84.9613 72.1299 83.6625 70.6807 83.6625 68.3223V68.3086C83.6625 65.9434 84.9613 64.501 87.06 64.501C89.1586 64.501 90.4574 65.9434 90.4574 68.3086V68.3223C90.4574 70.6807 89.1586 72.1299 87.06 72.1299ZM87.06 71.0771C88.4545 71.0771 89.2406 70.0586 89.2406 68.3223V68.3086C89.2406 66.5654 88.4545 65.5537 87.06 65.5537C85.6654 65.5537 84.8793 66.5654 84.8793 68.3086V68.3223C84.8793 70.0586 85.6654 71.0771 87.06 71.0771ZM92.1631 72V64.6309H93.3526V65.752H93.462C93.7901 64.959 94.4873 64.501 95.4512 64.501C96.4493 64.501 97.1465 65.0273 97.4883 65.793H97.5977C97.9942 65.0137 98.835 64.501 99.8536 64.501C101.357 64.501 102.198 65.3623 102.198 66.9072V72H101.009V67.1807C101.009 66.0938 100.51 65.5537 99.4707 65.5537C98.4454 65.5537 97.7686 66.3262 97.7686 67.2627V72H96.5791V66.9961C96.5791 66.1211 95.9776 65.5537 95.0479 65.5537C94.084 65.5537 93.3526 66.3945 93.3526 67.4336V72H92.1631ZM108.071 72V61.7051H109.26V65.7383H109.369C109.739 64.959 110.429 64.501 111.516 64.501C113.17 64.501 114.093 65.4785 114.093 67.2285V72H112.904V67.5156C112.904 66.1895 112.357 65.5537 111.181 65.5537C110.005 65.5537 109.26 66.3467 109.26 67.6387V72H108.071ZM118.574 72.1299C116.899 72.1299 116.038 71.1455 116.038 69.4023V64.6309H117.228V69.1152C117.228 70.4414 117.706 71.0771 118.882 71.0771C120.181 71.0771 120.871 70.2842 120.871 68.9922V64.6309H122.061V72H120.871V70.8994H120.762C120.399 71.6855 119.654 72.1299 118.574 72.1299ZM124.142 72V64.6309H125.332V65.752H125.441C125.769 64.959 126.466 64.501 127.43 64.501C128.428 64.501 129.126 65.0273 129.467 65.793H129.577C129.973 65.0137 130.814 64.501 131.833 64.501C133.337 64.501 134.177 65.3623 134.177 66.9072V72H132.988V67.1807C132.988 66.0938 132.489 65.5537 131.45 65.5537C130.424 65.5537 129.748 66.3262 129.748 67.2627V72H128.558V66.9961C128.558 66.1211 127.957 65.5537 127.027 65.5537C126.063 65.5537 125.332 66.3945 125.332 67.4336V72H124.142ZM136.813 63.209C136.362 63.209 135.992 62.8398 135.992 62.3887C135.992 61.9375 136.362 61.5684 136.813 61.5684C137.264 61.5684 137.633 61.9375 137.633 62.3887C137.633 62.8398 137.264 63.209 136.813 63.209ZM136.211 72V64.6309H137.401V72H136.211ZM142.224 72.1299C140.357 72.1299 139.134 70.6191 139.134 68.3223V68.3086C139.134 65.998 140.35 64.501 142.224 64.501C143.235 64.501 144.117 65.0068 144.52 65.793H144.63V61.7051H145.819V72H144.63V70.8242H144.52C144.069 71.6445 143.249 72.1299 142.224 72.1299ZM142.497 71.0771C143.837 71.0771 144.657 70.0244 144.657 68.3223V68.3086C144.657 66.6064 143.837 65.5537 142.497 65.5537C141.15 65.5537 140.35 66.5928 140.35 68.3086V68.3223C140.35 70.0381 141.15 71.0771 142.497 71.0771ZM148.591 63.209C148.14 63.209 147.771 62.8398 147.771 62.3887C147.771 61.9375 148.14 61.5684 148.591 61.5684C149.042 61.5684 149.412 61.9375 149.412 62.3887C149.412 62.8398 149.042 63.209 148.591 63.209ZM147.99 72V64.6309H149.179V72H147.99ZM153.9 72.0547C152.382 72.0547 151.746 71.4941 151.746 70.0859V65.6152H150.584V64.6309H151.746V62.7236H152.977V64.6309H154.59V65.6152H152.977V69.7852C152.977 70.6533 153.277 71.002 154.043 71.002C154.255 71.002 154.371 70.9951 154.59 70.9746V71.9863C154.358 72.0273 154.132 72.0547 153.9 72.0547ZM156.856 74.584C156.699 74.584 156.494 74.5703 156.33 74.543V73.5654C156.473 73.5928 156.658 73.5996 156.822 73.5996C157.499 73.5996 157.909 73.292 158.176 72.4443L158.312 72.0068L155.585 64.6309H156.856L158.88 70.6943H158.989L161.006 64.6309H162.257L159.379 72.4512C158.77 74.1055 158.162 74.584 156.856 74.584ZM167.555 72V61.7051H168.744V72H167.555ZM173.895 72.1299C171.79 72.1299 170.518 70.6533 170.518 68.3428V68.3359C170.518 66.0596 171.817 64.501 173.82 64.501C175.823 64.501 177.04 65.9912 177.04 68.1924V68.6572H171.735C171.769 70.1816 172.61 71.0703 173.923 71.0703C174.921 71.0703 175.536 70.5986 175.734 70.1543L175.761 70.0928H176.951L176.937 70.1475C176.684 71.1455 175.632 72.1299 173.895 72.1299ZM173.813 65.5605C172.719 65.5605 171.885 66.3057 171.756 67.707H175.83C175.707 66.251 174.9 65.5605 173.813 65.5605ZM180.694 72L177.966 64.6309H179.224L181.241 70.7012H181.35L183.367 64.6309H184.624L181.897 72H180.694ZM188.791 72.1299C186.686 72.1299 185.414 70.6533 185.414 68.3428V68.3359C185.414 66.0596 186.713 64.501 188.716 64.501C190.719 64.501 191.936 65.9912 191.936 68.1924V68.6572H186.631C186.665 70.1816 187.506 71.0703 188.818 71.0703C189.816 71.0703 190.432 70.5986 190.63 70.1543L190.657 70.0928H191.847L191.833 70.1475C191.58 71.1455 190.527 72.1299 188.791 72.1299ZM188.709 65.5605C187.615 65.5605 186.781 66.3057 186.651 67.707H190.726C190.603 66.251 189.796 65.5605 188.709 65.5605ZM193.71 72V61.7051H194.899V72H193.71ZM200.908 72V61.7051H202.098V65.7383H202.207C202.576 64.959 203.267 64.501 204.353 64.501C206.008 64.501 206.931 65.4785 206.931 67.2285V72H205.741V67.5156C205.741 66.1895 205.194 65.5537 204.018 65.5537C202.843 65.5537 202.098 66.3467 202.098 67.6387V72H200.908ZM210.967 72.1299C209.566 72.1299 208.506 71.2822 208.506 69.9424V69.9287C208.506 68.6162 209.477 67.8574 211.193 67.7549L213.305 67.625V66.9551C213.305 66.0459 212.752 65.5537 211.651 65.5537C210.769 65.5537 210.188 65.8818 209.997 66.4561L209.99 66.4766H208.8L208.807 66.4355C208.999 65.2803 210.12 64.501 211.692 64.501C213.49 64.501 214.495 65.4238 214.495 66.9551V72H213.305V70.9131H213.196C212.731 71.6992 211.959 72.1299 210.967 72.1299ZM209.723 69.915C209.723 70.6602 210.359 71.0977 211.213 71.0977C212.423 71.0977 213.305 70.3047 213.305 69.252V68.582L211.336 68.7051C210.215 68.7734 209.723 69.1699 209.723 69.9014V69.915ZM219.058 72.1299C217.417 72.1299 216.289 71.3369 216.153 70.1201H217.369C217.568 70.7354 218.155 71.1387 219.099 71.1387C220.09 71.1387 220.794 70.667 220.794 69.9971V69.9834C220.794 69.4844 220.418 69.1357 219.509 68.917L218.367 68.6436C216.987 68.3154 216.364 67.7139 216.364 66.6543V66.6475C216.364 65.4238 217.54 64.501 219.106 64.501C220.651 64.501 221.724 65.2734 221.888 66.4766H220.719C220.562 65.8955 219.988 65.4922 219.099 65.4922C218.224 65.4922 217.581 65.9434 217.581 66.5928V66.6064C217.581 67.1055 217.95 67.4199 218.819 67.6318L219.953 67.9053C221.341 68.2402 222.011 68.8418 222.011 69.8945V69.9082C222.011 71.2207 220.733 72.1299 219.058 72.1299ZM227.514 72V64.6309H228.704V65.7246H228.813C229.093 64.9521 229.784 64.501 230.782 64.501C231.007 64.501 231.26 64.5283 231.376 64.5488V65.7041C231.13 65.6631 230.905 65.6357 230.645 65.6357C229.51 65.6357 228.704 66.3535 228.704 67.4336V72H227.514ZM235.509 72.1299C233.403 72.1299 232.132 70.6533 232.132 68.3428V68.3359C232.132 66.0596 233.431 64.501 235.434 64.501C237.437 64.501 238.653 65.9912 238.653 68.1924V68.6572H233.349C233.383 70.1816 234.224 71.0703 235.536 71.0703C236.534 71.0703 237.15 70.5986 237.348 70.1543L237.375 70.0928H238.565L238.551 70.1475C238.298 71.1455 237.245 72.1299 235.509 72.1299ZM235.427 65.5605C234.333 65.5605 233.499 66.3057 233.369 67.707H237.443C237.32 66.251 236.514 65.5605 235.427 65.5605ZM242.383 72.1299C240.981 72.1299 239.922 71.2822 239.922 69.9424V69.9287C239.922 68.6162 240.892 67.8574 242.608 67.7549L244.72 67.625V66.9551C244.72 66.0459 244.167 65.5537 243.066 65.5537C242.184 65.5537 241.603 65.8818 241.412 66.4561L241.405 66.4766H240.216L240.222 66.4355C240.414 65.2803 241.535 64.501 243.107 64.501C244.905 64.501 245.91 65.4238 245.91 66.9551V72H244.72V70.9131H244.611C244.146 71.6992 243.374 72.1299 242.383 72.1299ZM241.138 69.915C241.138 70.6602 241.774 71.0977 242.629 71.0977C243.839 71.0977 244.72 70.3047 244.72 69.252V68.582L242.752 68.7051C241.631 68.7734 241.138 69.1699 241.138 69.9014V69.915ZM250.958 72.1299C248.894 72.1299 247.575 70.6328 247.575 68.2949V68.2812C247.575 65.9912 248.887 64.501 250.952 64.501C252.743 64.501 253.816 65.5332 254.035 66.8457L254.041 66.8867H252.859L252.852 66.8662C252.667 66.1416 252.011 65.5537 250.952 65.5537C249.625 65.5537 248.791 66.6201 248.791 68.2812V68.2949C248.791 69.9902 249.639 71.0771 250.952 71.0771C251.943 71.0771 252.572 70.6396 252.845 69.8193L252.859 69.7783L254.035 69.7715L254.021 69.8467C253.72 71.1797 252.729 72.1299 250.958 72.1299ZM255.706 72V61.7051H256.896V65.7383H257.005C257.374 64.959 258.064 64.501 259.151 64.501C260.806 64.501 261.729 65.4785 261.729 67.2285V72H260.539V67.5156C260.539 66.1895 259.992 65.5537 258.816 65.5537C257.641 65.5537 256.896 66.3467 256.896 67.6387V72H255.706ZM266.75 72.1299C264.644 72.1299 263.373 70.6533 263.373 68.3428V68.3359C263.373 66.0596 264.672 64.501 266.674 64.501C268.677 64.501 269.894 65.9912 269.894 68.1924V68.6572H264.59C264.624 70.1816 265.465 71.0703 266.777 71.0703C267.775 71.0703 268.39 70.5986 268.589 70.1543L268.616 70.0928H269.805L269.792 70.1475C269.539 71.1455 268.486 72.1299 266.75 72.1299ZM266.668 65.5605C265.574 65.5605 264.74 66.3057 264.61 67.707H268.684C268.561 66.251 267.755 65.5605 266.668 65.5605ZM274.321 72.1299C272.454 72.1299 271.231 70.6191 271.231 68.3223V68.3086C271.231 65.998 272.448 64.501 274.321 64.501C275.332 64.501 276.214 65.0068 276.617 65.793H276.727V61.7051H277.916V72H276.727V70.8242H276.617C276.166 71.6445 275.346 72.1299 274.321 72.1299ZM274.594 71.0771C275.934 71.0771 276.754 70.0244 276.754 68.3223V68.3086C276.754 66.6064 275.934 65.5537 274.594 65.5537C273.247 65.5537 272.448 66.5928 272.448 68.3086V68.3223C272.448 70.0381 273.247 71.0771 274.594 71.0771ZM13.7363 91.584C13.5791 91.584 13.374 91.5703 13.21 91.543V90.5654C13.3535 90.5928 13.5381 90.5996 13.7021 90.5996C14.3789 90.5996 14.7891 90.292 15.0557 89.4443L15.1924 89.0068L12.4648 81.6309H13.7363L15.7598 87.6943H15.8691L17.8857 81.6309H19.1367L16.2588 89.4512C15.6504 91.1055 15.042 91.584 13.7363 91.584ZM23.3239 89.1299C21.2252 89.1299 19.9264 87.6807 19.9264 85.3223V85.3086C19.9264 82.9434 21.2252 81.501 23.3239 81.501C25.4225 81.501 26.7213 82.9434 26.7213 85.3086V85.3223C26.7213 87.6807 25.4225 89.1299 23.3239 89.1299ZM23.3239 88.0771C24.7184 88.0771 25.5045 87.0586 25.5045 85.3223V85.3086C25.5045 83.5654 24.7184 82.5537 23.3239 82.5537C21.9293 82.5537 21.1432 83.5654 21.1432 85.3086V85.3223C21.1432 87.0586 21.9293 88.0771 23.3239 88.0771ZM30.8948 89.1299C29.22 89.1299 28.3587 88.1455 28.3587 86.4023V81.6309H29.5481V86.1152C29.5481 87.4414 30.0266 88.0771 31.2024 88.0771C32.5013 88.0771 33.1917 87.2842 33.1917 85.9922V81.6309H34.3811V89H33.1917V87.8994H33.0823C32.72 88.6855 31.9749 89.1299 30.8948 89.1299ZM36.4628 89V81.6309H37.6523V82.7246H37.7616C38.0419 81.9521 38.7323 81.501 39.7304 81.501C39.956 81.501 40.2089 81.5283 40.3251 81.5488V82.7041C40.079 82.6631 39.8534 82.6357 39.5937 82.6357C38.4589 82.6357 37.6523 83.3535 37.6523 84.4336V89H36.4628ZM48.0705 89.0547C46.5529 89.0547 45.9172 88.4941 45.9172 87.0859V82.6152H44.7551V81.6309H45.9172V79.7236H47.1477V81.6309H48.7609V82.6152H47.1477V86.7852C47.1477 87.6533 47.4484 88.002 48.2141 88.002C48.426 88.002 48.5422 87.9951 48.7609 87.9746V88.9863C48.5285 89.0273 48.3029 89.0547 48.0705 89.0547ZM52.4217 89.1299C51.0204 89.1299 49.9608 88.2822 49.9608 86.9424V86.9287C49.9608 85.6162 50.9315 84.8574 52.6473 84.7549L54.7596 84.625V83.9551C54.7596 83.0459 54.2059 82.5537 53.1053 82.5537C52.2235 82.5537 51.6424 82.8818 51.451 83.4561L51.4442 83.4766H50.2547L50.2616 83.4355C50.453 82.2803 51.5741 81.501 53.1463 81.501C54.9442 81.501 55.9491 82.4238 55.9491 83.9551V89H54.7596V87.9131H54.6502C54.1854 88.6992 53.4129 89.1299 52.4217 89.1299ZM51.1776 86.915C51.1776 87.6602 51.8133 88.0977 52.6678 88.0977C53.8778 88.0977 54.7596 87.3047 54.7596 86.252V85.582L52.7909 85.7051C51.6698 85.7734 51.1776 86.1699 51.1776 86.9014V86.915ZM57.9829 89V81.6309H59.1723V82.7246H59.2817C59.562 81.9521 60.2524 81.501 61.2505 81.501C61.4761 81.501 61.729 81.5283 61.8452 81.5488V82.7041C61.5991 82.6631 61.3735 82.6357 61.1138 82.6357C59.979 82.6357 59.1723 83.3535 59.1723 84.4336V89H57.9829ZM66.005 91.5977C64.2277 91.5977 63.0929 90.7979 62.9083 89.5879L62.922 89.5811H64.1525L64.1593 89.5879C64.2892 90.1484 64.9454 90.5449 66.005 90.5449C67.3243 90.5449 68.1105 89.9229 68.1105 88.8359V87.3457H68.0011C67.5363 88.1592 66.7023 88.6172 65.6905 88.6172C63.7833 88.6172 62.6007 87.1406 62.6007 85.0762V85.0625C62.6007 82.998 63.7902 81.501 65.7179 81.501C66.757 81.501 67.5636 82.0137 68.0148 82.8477H68.0968V81.6309H69.2863V88.8975C69.2863 90.5449 68.0148 91.5977 66.005 91.5977ZM65.9503 87.5645C67.3175 87.5645 68.1378 86.5391 68.1378 85.0762V85.0625C68.1378 83.5996 67.3107 82.5537 65.9503 82.5537C64.5831 82.5537 63.8175 83.5996 63.8175 85.0625V85.0762C63.8175 86.5391 64.5831 87.5645 65.9503 87.5645ZM74.3689 89.1299C72.2634 89.1299 70.992 87.6533 70.992 85.3428V85.3359C70.992 83.0596 72.2908 81.501 74.2937 81.501C76.2966 81.501 77.5134 82.9912 77.5134 85.1924V85.6572H72.2088C72.2429 87.1816 73.0838 88.0703 74.3963 88.0703C75.3943 88.0703 76.0095 87.5986 76.2078 87.1543L76.2351 87.0928H77.4246L77.4109 87.1475C77.158 88.1455 76.1052 89.1299 74.3689 89.1299ZM74.2869 82.5605C73.1931 82.5605 72.3591 83.3057 72.2293 84.707H76.3035C76.1804 83.251 75.3738 82.5605 74.2869 82.5605ZM81.8373 89.0547C80.3197 89.0547 79.684 88.4941 79.684 87.0859V82.6152H78.5219V81.6309H79.684V79.7236H80.9145V81.6309H82.5277V82.6152H80.9145V86.7852C80.9145 87.6533 81.2152 88.002 81.9809 88.002C82.1928 88.002 82.309 87.9951 82.5277 87.9746V88.9863C82.2953 89.0273 82.0697 89.0547 81.8373 89.0547ZM90.0475 89L87.32 81.6309H88.5778L90.5944 87.7012H90.7038L92.7204 81.6309H93.9782L91.2507 89H90.0475ZM97.1605 89.1299C95.7591 89.1299 94.6995 88.2822 94.6995 86.9424V86.9287C94.6995 85.6162 95.6702 84.8574 97.3861 84.7549L99.4984 84.625V83.9551C99.4984 83.0459 98.9446 82.5537 97.8441 82.5537C96.9622 82.5537 96.3812 82.8818 96.1898 83.4561L96.1829 83.4766H94.9935L95.0003 83.4355C95.1917 82.2803 96.3128 81.501 97.8851 81.501C99.6829 81.501 100.688 82.4238 100.688 83.9551V89H99.4984V87.9131H99.389C98.9241 88.6992 98.1517 89.1299 97.1605 89.1299ZM95.9163 86.915C95.9163 87.6602 96.5521 88.0977 97.4066 88.0977C98.6165 88.0977 99.4984 87.3047 99.4984 86.252V85.582L97.5296 85.7051C96.4085 85.7734 95.9163 86.1699 95.9163 86.9014V86.915ZM102.79 89V78.7051H103.979V89H102.79ZM108.59 89.1299C106.916 89.1299 106.054 88.1455 106.054 86.4023V81.6309H107.244V86.1152C107.244 87.4414 107.722 88.0771 108.898 88.0771C110.197 88.0771 110.887 87.2842 110.887 85.9922V81.6309H112.077V89H110.887V87.8994H110.778C110.416 88.6855 109.671 89.1299 108.59 89.1299ZM117.166 89.1299C115.061 89.1299 113.789 87.6533 113.789 85.3428V85.3359C113.789 83.0596 115.088 81.501 117.091 81.501C119.094 81.501 120.311 82.9912 120.311 85.1924V85.6572H115.006C115.04 87.1816 115.881 88.0703 117.194 88.0703C118.192 88.0703 118.807 87.5986 119.005 87.1543L119.032 87.0928H120.222L120.208 87.1475C119.955 88.1455 118.903 89.1299 117.166 89.1299ZM117.084 82.5605C115.99 82.5605 115.156 83.3057 115.027 84.707H119.101C118.978 83.251 118.171 82.5605 117.084 82.5605ZM122.987 89.0684C122.502 89.0684 122.099 88.665 122.099 88.1797C122.099 87.6875 122.502 87.291 122.987 87.291C123.479 87.291 123.876 87.6875 123.876 88.1797C123.876 88.665 123.479 89.0684 122.987 89.0684Z" fill="white" fill-opacity="0.7" style="mix-blend-mode:overlay"/>
<path d="M15.8203 112.141C14.0742 112.141 12.9434 111.168 12.832 109.832L12.8262 109.762H13.8398L13.8457 109.82C13.9277 110.652 14.6953 111.227 15.8203 111.227C16.9277 111.227 17.6836 110.605 17.6836 109.709V109.697C17.6836 108.66 16.9395 108.08 15.7559 108.08H14.6953V107.189H15.709C16.7168 107.189 17.4199 106.568 17.4199 105.725V105.713C17.4199 104.828 16.8398 104.318 15.8086 104.318C14.8125 104.318 14.1035 104.846 14.0156 105.701L14.0098 105.76H12.9961L13.002 105.701C13.1367 104.324 14.2266 103.404 15.8086 103.404C17.4199 103.404 18.4805 104.301 18.4805 105.584V105.596C18.4805 106.639 17.7422 107.354 16.6875 107.576V107.6C17.918 107.705 18.7559 108.473 18.7559 109.674V109.686C18.7559 111.098 17.5137 112.141 15.8203 112.141ZM23.8477 112V105.684H24.8672V106.645H24.9609C25.2422 105.965 25.8398 105.572 26.666 105.572C27.5215 105.572 28.1191 106.023 28.4121 106.68H28.5059C28.8457 106.012 29.5664 105.572 30.4395 105.572C31.7285 105.572 32.4492 106.311 32.4492 107.635V112H31.4297V107.869C31.4297 106.938 31.002 106.475 30.1113 106.475C29.2324 106.475 28.6523 107.137 28.6523 107.939V112H27.6328V107.711C27.6328 106.961 27.1172 106.475 26.3203 106.475C25.4941 106.475 24.8672 107.195 24.8672 108.086V112H23.8477ZM36.8848 112.111C35.0859 112.111 33.9727 110.869 33.9727 108.848V108.836C33.9727 106.809 35.0859 105.572 36.8848 105.572C38.6836 105.572 39.7969 106.809 39.7969 108.836V108.848C39.7969 110.869 38.6836 112.111 36.8848 112.111ZM36.8848 111.209C38.0801 111.209 38.7539 110.336 38.7539 108.848V108.836C38.7539 107.342 38.0801 106.475 36.8848 106.475C35.6895 106.475 35.0156 107.342 35.0156 108.836V108.848C35.0156 110.336 35.6895 111.209 36.8848 111.209ZM41.3789 112V105.684H42.3984V106.621H42.4922C42.7324 105.959 43.3242 105.572 44.1797 105.572C44.373 105.572 44.5898 105.596 44.6895 105.613V106.604C44.4785 106.568 44.2852 106.545 44.0625 106.545C43.0898 106.545 42.3984 107.16 42.3984 108.086V112H41.3789ZM48.3516 112.111C46.5469 112.111 45.457 110.846 45.457 108.865V108.859C45.457 106.908 46.5703 105.572 48.2871 105.572C50.0039 105.572 51.0469 106.85 51.0469 108.736V109.135H46.5C46.5293 110.441 47.25 111.203 48.375 111.203C49.2305 111.203 49.7578 110.799 49.9277 110.418L49.9512 110.365H50.9707L50.959 110.412C50.7422 111.268 49.8398 112.111 48.3516 112.111ZM48.2812 106.48C47.3438 106.48 46.6289 107.119 46.5176 108.32H50.0098C49.9043 107.072 49.2129 106.48 48.2812 106.48ZM56.0039 112V105.684H57.0234V106.633H57.1172C57.4336 105.965 58.0254 105.572 58.957 105.572C60.375 105.572 61.166 106.41 61.166 107.91V112H60.1465V108.156C60.1465 107.02 59.6777 106.475 58.6699 106.475C57.6621 106.475 57.0234 107.154 57.0234 108.262V112H56.0039ZM65.6074 112.111C63.8086 112.111 62.6953 110.869 62.6953 108.848V108.836C62.6953 106.809 63.8086 105.572 65.6074 105.572C67.4062 105.572 68.5195 106.809 68.5195 108.836V108.848C68.5195 110.869 67.4062 112.111 65.6074 112.111ZM65.6074 111.209C66.8027 111.209 67.4766 110.336 67.4766 108.848V108.836C67.4766 107.342 66.8027 106.475 65.6074 106.475C64.4121 106.475 63.7383 107.342 63.7383 108.836V108.848C63.7383 110.336 64.4121 111.209 65.6074 111.209ZM72.3457 112.047C71.0449 112.047 70.5 111.566 70.5 110.359V106.527H69.5039V105.684H70.5V104.049H71.5547V105.684H72.9375V106.527H71.5547V110.102C71.5547 110.846 71.8125 111.145 72.4688 111.145C72.6504 111.145 72.75 111.139 72.9375 111.121V111.988C72.7383 112.023 72.5449 112.047 72.3457 112.047ZM75 104.465C74.6133 104.465 74.2969 104.148 74.2969 103.762C74.2969 103.375 74.6133 103.059 75 103.059C75.3867 103.059 75.7031 103.375 75.7031 103.762C75.7031 104.148 75.3867 104.465 75 104.465ZM74.4844 112V105.684H75.5039V112H74.4844ZM77.8477 112V106.527H76.7988V105.684H77.8477V104.98C77.8477 103.721 78.4805 103.117 79.6816 103.117C79.9277 103.117 80.1504 103.135 80.3613 103.176V103.99C80.2383 103.967 80.0684 103.961 79.8867 103.961C79.1602 103.961 78.8672 104.318 78.8672 105.01V105.684H80.3027V106.527H78.8672V112H77.8477ZM82.3125 104.465C81.9258 104.465 81.6094 104.148 81.6094 103.762C81.6094 103.375 81.9258 103.059 82.3125 103.059C82.6992 103.059 83.0156 103.375 83.0156 103.762C83.0156 104.148 82.6992 104.465 82.3125 104.465ZM81.7969 112V105.684H82.8164V112H81.7969ZM87.3223 112.111C85.5527 112.111 84.4219 110.828 84.4219 108.824V108.812C84.4219 106.85 85.5469 105.572 87.3164 105.572C88.8516 105.572 89.7715 106.457 89.959 107.582L89.9648 107.617H88.9512L88.9453 107.6C88.7871 106.979 88.2246 106.475 87.3164 106.475C86.1797 106.475 85.4648 107.389 85.4648 108.812V108.824C85.4648 110.277 86.1914 111.209 87.3164 111.209C88.166 111.209 88.7051 110.834 88.9395 110.131L88.9512 110.096L89.959 110.09L89.9473 110.154C89.6895 111.297 88.8398 112.111 87.3223 112.111ZM93.1875 112.111C91.9863 112.111 91.0781 111.385 91.0781 110.236V110.225C91.0781 109.1 91.9102 108.449 93.3809 108.361L95.1914 108.25V107.676C95.1914 106.896 94.7168 106.475 93.7734 106.475C93.0176 106.475 92.5195 106.756 92.3555 107.248L92.3496 107.266H91.3301L91.3359 107.23C91.5 106.24 92.4609 105.572 93.8086 105.572C95.3496 105.572 96.2109 106.363 96.2109 107.676V112H95.1914V111.068H95.0977C94.6992 111.742 94.0371 112.111 93.1875 112.111ZM92.1211 110.213C92.1211 110.852 92.666 111.227 93.3984 111.227C94.4355 111.227 95.1914 110.547 95.1914 109.645V109.07L93.5039 109.176C92.543 109.234 92.1211 109.574 92.1211 110.201V110.213ZM100.318 112.047C99.0176 112.047 98.4727 111.566 98.4727 110.359V106.527H97.4766V105.684H98.4727V104.049H99.5273V105.684H100.91V106.527H99.5273V110.102C99.5273 110.846 99.7852 111.145 100.441 111.145C100.623 111.145 100.723 111.139 100.91 111.121V111.988C100.711 112.023 100.518 112.047 100.318 112.047ZM102.973 104.465C102.586 104.465 102.27 104.148 102.27 103.762C102.27 103.375 102.586 103.059 102.973 103.059C103.359 103.059 103.676 103.375 103.676 103.762C103.676 104.148 103.359 104.465 102.973 104.465ZM102.457 112V105.684H103.477V112H102.457ZM107.994 112.111C106.195 112.111 105.082 110.869 105.082 108.848V108.836C105.082 106.809 106.195 105.572 107.994 105.572C109.793 105.572 110.906 106.809 110.906 108.836V108.848C110.906 110.869 109.793 112.111 107.994 112.111ZM107.994 111.209C109.189 111.209 109.863 110.336 109.863 108.848V108.836C109.863 107.342 109.189 106.475 107.994 106.475C106.799 106.475 106.125 107.342 106.125 108.836V108.848C106.125 110.336 106.799 111.209 107.994 111.209ZM112.488 112V105.684H113.508V106.633H113.602C113.918 105.965 114.51 105.572 115.441 105.572C116.859 105.572 117.65 106.41 117.65 107.91V112H116.631V108.156C116.631 107.02 116.162 106.475 115.154 106.475C114.146 106.475 113.508 107.154 113.508 108.262V112H112.488ZM121.664 112.111C120.258 112.111 119.291 111.432 119.174 110.389H120.217C120.387 110.916 120.891 111.262 121.699 111.262C122.549 111.262 123.152 110.857 123.152 110.283V110.271C123.152 109.844 122.83 109.545 122.051 109.357L121.072 109.123C119.889 108.842 119.355 108.326 119.355 107.418V107.412C119.355 106.363 120.363 105.572 121.705 105.572C123.029 105.572 123.949 106.234 124.09 107.266H123.088C122.953 106.768 122.461 106.422 121.699 106.422C120.949 106.422 120.398 106.809 120.398 107.365V107.377C120.398 107.805 120.715 108.074 121.459 108.256L122.432 108.49C123.621 108.777 124.195 109.293 124.195 110.195V110.207C124.195 111.332 123.1 112.111 121.664 112.111Z" fill="white" fill-opacity="0.2"/>
<path d="M15.8203 112.141C14.0742 112.141 12.9434 111.168 12.832 109.832L12.8262 109.762H13.8398L13.8457 109.82C13.9277 110.652 14.6953 111.227 15.8203 111.227C16.9277 111.227 17.6836 110.605 17.6836 109.709V109.697C17.6836 108.66 16.9395 108.08 15.7559 108.08H14.6953V107.189H15.709C16.7168 107.189 17.4199 106.568 17.4199 105.725V105.713C17.4199 104.828 16.8398 104.318 15.8086 104.318C14.8125 104.318 14.1035 104.846 14.0156 105.701L14.0098 105.76H12.9961L13.002 105.701C13.1367 104.324 14.2266 103.404 15.8086 103.404C17.4199 103.404 18.4805 104.301 18.4805 105.584V105.596C18.4805 106.639 17.7422 107.354 16.6875 107.576V107.6C17.918 107.705 18.7559 108.473 18.7559 109.674V109.686C18.7559 111.098 17.5137 112.141 15.8203 112.141ZM23.8477 112V105.684H24.8672V106.645H24.9609C25.2422 105.965 25.8398 105.572 26.666 105.572C27.5215 105.572 28.1191 106.023 28.4121 106.68H28.5059C28.8457 106.012 29.5664 105.572 30.4395 105.572C31.7285 105.572 32.4492 106.311 32.4492 107.635V112H31.4297V107.869C31.4297 106.938 31.002 106.475 30.1113 106.475C29.2324 106.475 28.6523 107.137 28.6523 107.939V112H27.6328V107.711C27.6328 106.961 27.1172 106.475 26.3203 106.475C25.4941 106.475 24.8672 107.195 24.8672 108.086V112H23.8477ZM36.8848 112.111C35.0859 112.111 33.9727 110.869 33.9727 108.848V108.836C33.9727 106.809 35.0859 105.572 36.8848 105.572C38.6836 105.572 39.7969 106.809 39.7969 108.836V108.848C39.7969 110.869 38.6836 112.111 36.8848 112.111ZM36.8848 111.209C38.0801 111.209 38.7539 110.336 38.7539 108.848V108.836C38.7539 107.342 38.0801 106.475 36.8848 106.475C35.6895 106.475 35.0156 107.342 35.0156 108.836V108.848C35.0156 110.336 35.6895 111.209 36.8848 111.209ZM41.3789 112V105.684H42.3984V106.621H42.4922C42.7324 105.959 43.3242 105.572 44.1797 105.572C44.373 105.572 44.5898 105.596 44.6895 105.613V106.604C44.4785 106.568 44.2852 106.545 44.0625 106.545C43.0898 106.545 42.3984 107.16 42.3984 108.086V112H41.3789ZM48.3516 112.111C46.5469 112.111 45.457 110.846 45.457 108.865V108.859C45.457 106.908 46.5703 105.572 48.2871 105.572C50.0039 105.572 51.0469 106.85 51.0469 108.736V109.135H46.5C46.5293 110.441 47.25 111.203 48.375 111.203C49.2305 111.203 49.7578 110.799 49.9277 110.418L49.9512 110.365H50.9707L50.959 110.412C50.7422 111.268 49.8398 112.111 48.3516 112.111ZM48.2812 106.48C47.3438 106.48 46.6289 107.119 46.5176 108.32H50.0098C49.9043 107.072 49.2129 106.48 48.2812 106.48ZM56.0039 112V105.684H57.0234V106.633H57.1172C57.4336 105.965 58.0254 105.572 58.957 105.572C60.375 105.572 61.166 106.41 61.166 107.91V112H60.1465V108.156C60.1465 107.02 59.6777 106.475 58.6699 106.475C57.6621 106.475 57.0234 107.154 57.0234 108.262V112H56.0039ZM65.6074 112.111C63.8086 112.111 62.6953 110.869 62.6953 108.848V108.836C62.6953 106.809 63.8086 105.572 65.6074 105.572C67.4062 105.572 68.5195 106.809 68.5195 108.836V108.848C68.5195 110.869 67.4062 112.111 65.6074 112.111ZM65.6074 111.209C66.8027 111.209 67.4766 110.336 67.4766 108.848V108.836C67.4766 107.342 66.8027 106.475 65.6074 106.475C64.4121 106.475 63.7383 107.342 63.7383 108.836V108.848C63.7383 110.336 64.4121 111.209 65.6074 111.209ZM72.3457 112.047C71.0449 112.047 70.5 111.566 70.5 110.359V106.527H69.5039V105.684H70.5V104.049H71.5547V105.684H72.9375V106.527H71.5547V110.102C71.5547 110.846 71.8125 111.145 72.4688 111.145C72.6504 111.145 72.75 111.139 72.9375 111.121V111.988C72.7383 112.023 72.5449 112.047 72.3457 112.047ZM75 104.465C74.6133 104.465 74.2969 104.148 74.2969 103.762C74.2969 103.375 74.6133 103.059 75 103.059C75.3867 103.059 75.7031 103.375 75.7031 103.762C75.7031 104.148 75.3867 104.465 75 104.465ZM74.4844 112V105.684H75.5039V112H74.4844ZM77.8477 112V106.527H76.7988V105.684H77.8477V104.98C77.8477 103.721 78.4805 103.117 79.6816 103.117C79.9277 103.117 80.1504 103.135 80.3613 103.176V103.99C80.2383 103.967 80.0684 103.961 79.8867 103.961C79.1602 103.961 78.8672 104.318 78.8672 105.01V105.684H80.3027V106.527H78.8672V112H77.8477ZM82.3125 104.465C81.9258 104.465 81.6094 104.148 81.6094 103.762C81.6094 103.375 81.9258 103.059 82.3125 103.059C82.6992 103.059 83.0156 103.375 83.0156 103.762C83.0156 104.148 82.6992 104.465 82.3125 104.465ZM81.7969 112V105.684H82.8164V112H81.7969ZM87.3223 112.111C85.5527 112.111 84.4219 110.828 84.4219 108.824V108.812C84.4219 106.85 85.5469 105.572 87.3164 105.572C88.8516 105.572 89.7715 106.457 89.959 107.582L89.9648 107.617H88.9512L88.9453 107.6C88.7871 106.979 88.2246 106.475 87.3164 106.475C86.1797 106.475 85.4648 107.389 85.4648 108.812V108.824C85.4648 110.277 86.1914 111.209 87.3164 111.209C88.166 111.209 88.7051 110.834 88.9395 110.131L88.9512 110.096L89.959 110.09L89.9473 110.154C89.6895 111.297 88.8398 112.111 87.3223 112.111ZM93.1875 112.111C91.9863 112.111 91.0781 111.385 91.0781 110.236V110.225C91.0781 109.1 91.9102 108.449 93.3809 108.361L95.1914 108.25V107.676C95.1914 106.896 94.7168 106.475 93.7734 106.475C93.0176 106.475 92.5195 106.756 92.3555 107.248L92.3496 107.266H91.3301L91.3359 107.23C91.5 106.24 92.4609 105.572 93.8086 105.572C95.3496 105.572 96.2109 106.363 96.2109 107.676V112H95.1914V111.068H95.0977C94.6992 111.742 94.0371 112.111 93.1875 112.111ZM92.1211 110.213C92.1211 110.852 92.666 111.227 93.3984 111.227C94.4355 111.227 95.1914 110.547 95.1914 109.645V109.07L93.5039 109.176C92.543 109.234 92.1211 109.574 92.1211 110.201V110.213ZM100.318 112.047C99.0176 112.047 98.4727 111.566 98.4727 110.359V106.527H97.4766V105.684H98.4727V104.049H99.5273V105.684H100.91V106.527H99.5273V110.102C99.5273 110.846 99.7852 111.145 100.441 111.145C100.623 111.145 100.723 111.139 100.91 111.121V111.988C100.711 112.023 100.518 112.047 100.318 112.047ZM102.973 104.465C102.586 104.465 102.27 104.148 102.27 103.762C102.27 103.375 102.586 103.059 102.973 103.059C103.359 103.059 103.676 103.375 103.676 103.762C103.676 104.148 103.359 104.465 102.973 104.465ZM102.457 112V105.684H103.477V112H102.457ZM107.994 112.111C106.195 112.111 105.082 110.869 105.082 108.848V108.836C105.082 106.809 106.195 105.572 107.994 105.572C109.793 105.572 110.906 106.809 110.906 108.836V108.848C110.906 110.869 109.793 112.111 107.994 112.111ZM107.994 111.209C109.189 111.209 109.863 110.336 109.863 108.848V108.836C109.863 107.342 109.189 106.475 107.994 106.475C106.799 106.475 106.125 107.342 106.125 108.836V108.848C106.125 110.336 106.799 111.209 107.994 111.209ZM112.488 112V105.684H113.508V106.633H113.602C113.918 105.965 114.51 105.572 115.441 105.572C116.859 105.572 117.65 106.41 117.65 107.91V112H116.631V108.156C116.631 107.02 116.162 106.475 115.154 106.475C114.146 106.475 113.508 107.154 113.508 108.262V112H112.488ZM121.664 112.111C120.258 112.111 119.291 111.432 119.174 110.389H120.217C120.387 110.916 120.891 111.262 121.699 111.262C122.549 111.262 123.152 110.857 123.152 110.283V110.271C123.152 109.844 122.83 109.545 122.051 109.357L121.072 109.123C119.889 108.842 119.355 108.326 119.355 107.418V107.412C119.355 106.363 120.363 105.572 121.705 105.572C123.029 105.572 123.949 106.234 124.09 107.266H123.088C122.953 106.768 122.461 106.422 121.699 106.422C120.949 106.422 120.398 106.809 120.398 107.365V107.377C120.398 107.805 120.715 108.074 121.459 108.256L122.432 108.49C123.621 108.777 124.195 109.293 124.195 110.195V110.207C124.195 111.332 123.1 112.111 121.664 112.111Z" fill="white" fill-opacity="0.7" style="mix-blend-mode:overlay"/>
<g filter="url(#filter1_b_357_442)">
<path d="M12 125H306V125C306 129.418 302.418 133 298 133H20C15.5817 133 12 129.418 12 125V125Z" fill="black" fill-opacity="0.44"/>
</g>
<g filter="url(#filter2_b_357_442)">
<path d="M24 133H294V133C294 137.418 290.418 141 286 141H32C27.5817 141 24 137.418 24 133V133Z" fill="black" fill-opacity="0.3"/>
</g>
</g>
<rect x="10" y="10" width="20" height="20" rx="4.5" fill="black"/>
<path d="M26.0557 17.9297C25.1118 20.08 24.3165 20.661 24.207 20.7636C24.2872 20.839 25.4729 21.8769 25.3808 23.4147C25.2856 25.0092 23.9251 25.4965 23.1955 25.4965C22.2074 25.4965 21.469 24.8827 21.1375 24.6497C21.0477 24.5866 20.9254 24.4855 20.8083 24.3767C20.5901 24.1743 20.4668 23.8891 20.4668 23.5914V21.3626C20.4668 21.1479 20.5814 20.9497 20.7671 20.8425L21.1733 20.6079L20.7671 20.3732C20.5814 20.2661 20.4668 20.0678 20.4668 19.8531V17.6697C20.4668 17.3427 20.6235 17.0427 20.8717 16.8297C22.7571 15.2127 25.4574 14.6768 26.1333 15.185C26.6241 15.5542 26.5607 16.7798 26.0561 17.9297H26.0557Z" fill="url(#paint0_linear_357_442)"/>
<path d="M26.0557 17.9297C25.1118 20.08 24.3165 20.661 24.207 20.7636C24.2872 20.839 25.4729 21.8769 25.3808 23.4147C25.2856 25.0092 23.9251 25.4965 23.1955 25.4965C22.2074 25.4965 21.469 24.8827 21.1375 24.6497C21.0477 24.5866 20.9254 24.4855 20.8083 24.3767C20.5901 24.1743 20.4668 23.8891 20.4668 23.5914V21.3626C20.4668 21.1479 20.5814 20.9497 20.7671 20.8425L21.1733 20.6079L20.7671 20.3732C20.5814 20.2661 20.4668 20.0678 20.4668 19.8531V17.6697C20.4668 17.3427 20.6235 17.0427 20.8717 16.8297C22.7571 15.2127 25.4574 14.6768 26.1333 15.185C26.6241 15.5542 26.5607 16.7798 26.0561 17.9297H26.0557Z" fill="url(#paint1_linear_357_442)"/>
<path d="M13.9912 17.928C14.9352 20.077 15.7305 20.6576 15.8399 20.7602C15.7598 20.8355 14.5741 21.8728 14.6661 23.4097C14.7614 25.0032 16.1219 25.4902 16.8515 25.4902C17.8395 25.4902 18.5779 24.8768 18.9094 24.6439C18.9991 24.5809 19.1214 24.4799 19.2386 24.3711C19.4568 24.1688 19.5801 23.8838 19.5801 23.5863V21.3588C19.5801 21.1443 19.4655 20.9461 19.2798 20.839L18.8736 20.6045L19.2798 20.37C19.4655 20.2629 19.5801 20.0648 19.5801 19.8502V17.6681C19.5801 17.3413 19.4233 17.0415 19.1752 16.8286C17.2898 15.2125 14.5895 14.677 13.9137 15.1849C13.4229 15.5538 13.4863 16.7787 13.9909 17.928H13.9912Z" fill="url(#paint2_linear_357_442)"/>
<path d="M13.9912 17.928C14.9352 20.077 15.7305 20.6576 15.8399 20.7602C15.7598 20.8355 14.5741 21.8728 14.6661 23.4097C14.7614 25.0032 16.1219 25.4902 16.8515 25.4902C17.8395 25.4902 18.5779 24.8768 18.9094 24.6439C18.9991 24.5809 19.1214 24.4799 19.2386 24.3711C19.4568 24.1688 19.5801 23.8838 19.5801 23.5863V21.3588C19.5801 21.1443 19.4655 20.9461 19.2798 20.839L18.8736 20.6045L19.2798 20.37C19.4655 20.2629 19.5801 20.0648 19.5801 19.8502V17.6681C19.5801 17.3413 19.4233 17.0415 19.1752 16.8286C17.2898 15.2125 14.5895 14.677 13.9137 15.1849C13.4229 15.5538 13.4863 16.7787 13.9909 17.928H13.9912Z" fill="url(#paint3_linear_357_442)"/>
<defs>
<filter id="filter0_b_357_442" x="-90" y="-90" width="500" height="321" filterUnits="userSpaceOnUse" color-interpolation-filters="sRGB">
<feFlood flood-opacity="0" result="BackgroundImageFix"/>
<feGaussianBlur in="BackgroundImageFix" stdDeviation="45"/>
<feComposite in2="SourceAlpha" operator="in" result="effect1_backgroundBlur_357_442"/>
<feBlend mode="normal" in="SourceGraphic" in2="effect1_backgroundBlur_357_442" result="shape"/>
</filter>
<filter id="filter1_b_357_442" x="-29" y="84" width="376" height="90" filterUnits="userSpaceOnUse" color-interpolation-filters="sRGB">
<feFlood flood-opacity="0" result="BackgroundImageFix"/>
<feGaussianBlur in="BackgroundImageFix" stdDeviation="20.5"/>
<feComposite in2="SourceAlpha" operator="in" result="effect1_backgroundBlur_357_442"/>
<feBlend mode="normal" in="SourceGraphic" in2="effect1_backgroundBlur_357_442" result="shape"/>
</filter>
<filter id="filter2_b_357_442" x="-17" y="92" width="352" height="90" filterUnits="userSpaceOnUse" color-interpolation-filters="sRGB">
<feFlood flood-opacity="0" result="BackgroundImageFix"/>
<feGaussianBlur in="BackgroundImageFix" stdDeviation="20.5"/>
<feComposite in2="SourceAlpha" operator="in" result="effect1_backgroundBlur_357_442"/>
<feBlend mode="normal" in="SourceGraphic" in2="effect1_backgroundBlur_357_442" result="shape"/>
</filter>
<linearGradient id="paint0_linear_357_442" x1="20.7839" y1="24.0441" x2="26.4702" y2="15.6127" gradientUnits="userSpaceOnUse">
<stop stop-color="#3973FF"/>
<stop offset="0.473958" stop-color="#30FFD9"/>
<stop offset="1" stop-color="#FFFE74"/>
</linearGradient>
<linearGradient id="paint1_linear_357_442" x1="20.7839" y1="24.0441" x2="26.4702" y2="15.6127" gradientUnits="userSpaceOnUse">
<stop stop-color="#3973FF"/>
<stop offset="0.473958" stop-color="#30FFD9"/>
<stop offset="1" stop-color="#FFFE74"/>
</linearGradient>
<linearGradient id="paint2_linear_357_442" x1="19.263" y1="24.0387" x2="13.5813" y2="15.6093" gradientUnits="userSpaceOnUse">
<stop stop-color="#3973FF"/>
<stop offset="0.473958" stop-color="#30FFD9"/>
<stop offset="1" stop-color="#FFFE74"/>
</linearGradient>
<linearGradient id="paint3_linear_357_442" x1="19.263" y1="24.0387" x2="13.5813" y2="15.6093" gradientUnits="userSpaceOnUse">
<stop stop-color="#3973FF"/>
<stop offset="0.473958" stop-color="#30FFD9"/>
<stop offset="1" stop-color="#FFFE74"/>
</linearGradient>
</defs>
</svg>
