<svg width="24" height="25" viewBox="0 0 24 25" fill="none" xmlns="http://www.w3.org/2000/svg">
<path d="M7.8 2.4082H16.2C19.4 2.4082 22 5.0082 22 8.2082V16.6082C22 18.1465 21.3889 19.6217 20.3012 20.7094C19.2135 21.7971 17.7383 22.4082 16.2 22.4082H7.8C4.6 22.4082 2 19.8082 2 16.6082V8.2082C2 6.66995 2.61107 5.19469 3.69878 4.10698C4.78649 3.01927 6.26174 2.4082 7.8 2.4082ZM7.6 4.4082C6.64522 4.4082 5.72955 4.78749 5.05442 5.46262C4.37928 6.13775 4 7.05342 4 8.0082V16.8082C4 18.7982 5.61 20.4082 7.6 20.4082H16.4C17.3548 20.4082 18.2705 20.0289 18.9456 19.3538C19.6207 18.6787 20 17.763 20 16.8082V8.0082C20 6.0182 18.39 4.4082 16.4 4.4082H7.6ZM17.25 5.9082C17.5815 5.9082 17.8995 6.0399 18.1339 6.27432C18.3683 6.50874 18.5 6.82668 18.5 7.1582C18.5 7.48972 18.3683 7.80767 18.1339 8.04209C17.8995 8.27651 17.5815 8.4082 17.25 8.4082C16.9185 8.4082 16.6005 8.27651 16.3661 8.04209C16.1317 7.80767 16 7.48972 16 7.1582C16 6.82668 16.1317 6.50874 16.3661 6.27432C16.6005 6.0399 16.9185 5.9082 17.25 5.9082ZM12 7.4082C13.3261 7.4082 14.5979 7.93499 15.5355 8.87267C16.4732 9.81035 17 11.0821 17 12.4082C17 13.7343 16.4732 15.0061 15.5355 15.9437C14.5979 16.8814 13.3261 17.4082 12 17.4082C10.6739 17.4082 9.40215 16.8814 8.46447 15.9437C7.52678 15.0061 7 13.7343 7 12.4082C7 11.0821 7.52678 9.81035 8.46447 8.87267C9.40215 7.93499 10.6739 7.4082 12 7.4082ZM12 9.4082C11.2044 9.4082 10.4413 9.72427 9.87868 10.2869C9.31607 10.8495 9 11.6126 9 12.4082C9 13.2039 9.31607 13.9669 9.87868 14.5295C10.4413 15.0921 11.2044 15.4082 12 15.4082C12.7956 15.4082 13.5587 15.0921 14.1213 14.5295C14.6839 13.9669 15 13.2039 15 12.4082C15 11.6126 14.6839 10.8495 14.1213 10.2869C13.5587 9.72427 12.7956 9.4082 12 9.4082Z" fill="white"/>
</svg>
