<svg width="27" height="26" viewBox="0 0 27 26" fill="none" xmlns="http://www.w3.org/2000/svg">
<path d="M26.0012 7.54201V13.6301H20.705C20.5492 13.6172 20.2117 13.4224 20.1338 13.2797L18.7838 10.7224C18.2515 9.70986 17.3299 9.13869 16.3433 9.19061C15.3568 9.24254 14.513 9.90457 14.0846 10.982L12.2932 15.4735L12.0336 14.7984C11.3975 13.1498 9.58017 11.9037 7.78877 11.9037L0.0390625 11.9426V7.54201C0.0390625 2.8169 2.85596 0 7.58108 0H18.4592C23.1844 0 26.0012 2.8169 26.0012 7.54201Z" fill="#292D32"/>
<path d="M26.0012 18.4189V15.576H20.705C19.8352 15.576 18.8097 14.9529 18.4073 14.187L17.0573 11.6297C16.6938 10.9417 16.1746 10.9807 15.889 11.6947L12.9033 19.2367C12.5788 20.0804 12.0336 20.0804 11.6961 19.2367L10.2162 15.4981C9.86575 14.5894 8.77534 13.8495 7.80176 13.8495L0.0390625 13.8885V18.4189C0.0390625 23.0661 2.76509 25.87 7.34742 25.9479C7.49021 25.9609 7.64598 25.9609 7.78877 25.9609H18.1736C18.3684 25.9609 18.5631 25.9609 18.7448 25.9479C23.3012 25.844 26.0012 23.0531 26.0012 18.4189Z" fill="#292D32"/>
<path d="M0.0389432 13.8887V18.1854C0.0129811 17.77 0 17.3287 0 16.8743V13.8887H0.0389432Z" fill="#292D32"/>
</svg>
