<svg width="24" height="25" viewBox="0 0 24 25" fill="none" xmlns="http://www.w3.org/2000/svg">
<path d="M19 3.4082C19.5304 3.4082 20.0391 3.61892 20.4142 3.99399C20.7893 4.36906 21 4.87777 21 5.4082V19.4082C21 19.9386 20.7893 20.4473 20.4142 20.8224C20.0391 21.1975 19.5304 21.4082 19 21.4082H5C4.46957 21.4082 3.96086 21.1975 3.58579 20.8224C3.21071 20.4473 3 19.9386 3 19.4082V5.4082C3 4.87777 3.21071 4.36906 3.58579 3.99399C3.96086 3.61892 4.46957 3.4082 5 3.4082H19ZM18.5 18.9082V13.6082C18.5 12.7436 18.1565 11.9144 17.5452 11.303C16.9338 10.6917 16.1046 10.3482 15.24 10.3482C14.39 10.3482 13.4 10.8682 12.92 11.6482V10.5382H10.13V18.9082H12.92V13.9782C12.92 13.2082 13.54 12.5782 14.31 12.5782C14.6813 12.5782 15.0374 12.7257 15.2999 12.9883C15.5625 13.2508 15.71 13.6069 15.71 13.9782V18.9082H18.5ZM6.88 8.9682C7.32556 8.9682 7.75288 8.7912 8.06794 8.47614C8.383 8.16108 8.56 7.73377 8.56 7.2882C8.56 6.3582 7.81 5.5982 6.88 5.5982C6.43178 5.5982 6.00193 5.77626 5.68499 6.09319C5.36805 6.41013 5.19 6.83999 5.19 7.2882C5.19 8.2182 5.95 8.9682 6.88 8.9682ZM8.27 18.9082V10.5382H5.5V18.9082H8.27Z" fill="white"/>
</svg>
