<svg width="26" height="31" viewBox="0 0 26 31" fill="none" xmlns="http://www.w3.org/2000/svg">
<path d="M22.8409 3.3789L14.4604 0.23999C13.5918 -0.0799965 12.1747 -0.0799965 11.3062 0.23999L2.92559 3.3789C1.31042 3.9884 0 5.87784 0 7.59967V19.9419C0 21.1762 0.807584 22.8066 1.79802 23.538L10.1786 29.8005C11.6567 30.9129 14.0794 30.9129 15.5575 29.8005L23.938 23.538C24.9285 22.7913 25.7361 21.1762 25.7361 19.9419V7.59967C25.7513 5.87784 24.4409 3.9884 22.8409 3.3789ZM18.1783 11.9119L11.6262 18.4639C11.3976 18.6925 11.1081 18.7991 10.8186 18.7991C10.5291 18.7991 10.2396 18.6925 10.011 18.4639L7.573 15.9954C7.13112 15.5535 7.13112 14.8222 7.573 14.3803C8.01489 13.9384 8.74629 13.9384 9.18817 14.3803L10.8338 16.0259L16.5784 10.2815C17.0202 9.83957 17.7516 9.83957 18.1935 10.2815C18.6354 10.7233 18.6354 11.47 18.1783 11.9119Z" fill="#292D32"/>
</svg>
