<svg width="26" height="26" viewBox="0 0 26 26" fill="none" xmlns="http://www.w3.org/2000/svg">
<path d="M12.6885 0C5.69715 0 0 5.69715 0 12.6885C0 19.6799 5.69715 25.3771 12.6885 25.3771C19.6799 25.3771 25.3771 19.6799 25.3771 12.6885C25.3771 5.69715 19.6799 0 12.6885 0ZM18.7537 9.77017L11.5593 16.9646C11.3816 17.1422 11.1405 17.2437 10.8868 17.2437C10.633 17.2437 10.3919 17.1422 10.2143 16.9646L6.62342 13.3737C6.25545 13.0058 6.25545 12.3967 6.62342 12.0287C6.99138 11.6608 7.60043 11.6608 7.9684 12.0287L10.8868 14.9471L17.4087 8.42519C17.7766 8.05722 18.3857 8.05722 18.7537 8.42519C19.1216 8.79316 19.1216 9.38952 18.7537 9.77017Z" fill="#292D32"/>
</svg>
