<svg width="48" height="48" viewBox="0 0 48 48" fill="none" xmlns="http://www.w3.org/2000/svg">
<path d="M22.9146 16.1399L6.9846 32.8589C6.71866 33.1378 6.57031 33.5084 6.57031 33.8939C6.57031 34.2793 6.71866 34.6499 6.9846 34.9289L7.0026 34.9469C7.13152 35.0826 7.2867 35.1906 7.4587 35.2645C7.6307 35.3383 7.81592 35.3764 8.0031 35.3764C8.19028 35.3764 8.3755 35.3383 8.5475 35.2645C8.7195 35.1906 8.87468 35.0826 9.0036 34.9469L24.0036 19.2029L38.9976 34.9469C39.1265 35.0826 39.2817 35.1906 39.4537 35.2645C39.6257 35.3383 39.8109 35.3764 39.9981 35.3764C40.1853 35.3764 40.3705 35.3383 40.5425 35.2645C40.7145 35.1906 40.8697 35.0826 40.9986 34.9469L41.0166 34.9289C41.2825 34.6499 41.4309 34.2793 41.4309 33.8939C41.4309 33.5084 41.2825 33.1378 41.0166 32.8589L25.0866 16.1399C24.9465 15.9928 24.778 15.8758 24.5913 15.7958C24.4047 15.7158 24.2037 15.6746 24.0006 15.6746C23.7975 15.6746 23.5965 15.7158 23.4099 15.7958C23.2232 15.8758 23.0547 15.9928 22.9146 16.1399Z" fill="black"/>
</svg>
