<svg width="26" height="26" viewBox="0 0 26 26" fill="none" xmlns="http://www.w3.org/2000/svg">
<path d="M18.0218 0H7.3789C2.75598 0 0 2.75598 0 7.3789V18.0091C0 22.6447 2.75598 25.4007 7.3789 25.4007H18.0091C22.632 25.4007 25.388 22.6447 25.388 18.0218V7.3789C25.4007 2.75598 22.6447 0 18.0218 0ZM16.2437 18.5425C16.0532 18.7838 15.7738 18.9108 15.4944 18.9108C15.2912 18.9108 15.088 18.8473 14.9102 18.7076C13.564 17.6662 11.824 17.6662 10.4778 18.7076C10.0587 19.0251 9.46176 18.9489 9.14425 18.5425C8.82674 18.1234 8.90294 17.5265 9.30936 17.209C11.3287 15.6468 14.0466 15.6468 16.0659 17.209C16.4978 17.5265 16.574 18.1234 16.2437 18.5425ZM19.0505 14.6181C18.86 14.8594 18.5806 14.9864 18.3012 14.9864C18.098 14.9864 17.8948 14.9229 17.717 14.7832C14.6689 12.4336 10.7445 12.4336 7.69641 14.7832C7.2773 15.1134 6.68038 15.0372 6.35017 14.6181C6.01997 14.199 6.10887 13.6021 6.51528 13.2846C10.2619 10.3889 15.1134 10.3889 18.86 13.2846C19.2918 13.6021 19.368 14.199 19.0505 14.6181ZM21.0699 10.6937C20.8794 10.935 20.6 11.062 20.3206 11.062C20.1174 11.062 19.9141 10.9985 19.7363 10.8588C15.4563 7.55671 9.93167 7.55671 5.66436 10.8588C5.24524 11.1763 4.64833 11.1001 4.33082 10.6937C4.01331 10.2746 4.08951 9.67766 4.49592 9.36016C9.47446 5.51195 15.9135 5.51195 20.9048 9.36016C21.3239 9.67766 21.4001 10.2746 21.0699 10.6937Z" fill="#292D32"/>
</svg>
